<?xml version="1.0" encoding="UTF-8" standalone="no"?><svg xmlns="http://www.w3.org/2000/svg" xmlns:xlink="http://www.w3.org/1999/xlink" contentStyleType="text/css" height="2051px" preserveAspectRatio="none" style="width:3844px;height:2051px;background:#FFFFFF;" version="1.1" viewBox="0 0 3844 2051" width="3844px" zoomAndPan="magnify"><defs/><g><!--MD5=[10ea673caf457862023e152271927b45]
cluster controller--><g id="cluster_controller"><path d="M2399.5,6 L2469.5,6 A3.75,3.75 0 0 1 2472,8.5 L2479,29.6094 L3021.5,29.6094 A2.5,2.5 0 0 1 3024,32.1094 L3024,404.5 A2.5,2.5 0 0 1 3021.5,407 L2399.5,407 A2.5,2.5 0 0 1 2397,404.5 L2397,8.5 A2.5,2.5 0 0 1 2399.5,6 " fill="none" style="stroke:#000000;stroke-width:1.5;"/><line style="stroke:#000000;stroke-width:1.5;" x1="2397" x2="2479" y1="29.6094" y2="29.6094"/><text fill="#000000" font-family="sans-serif" font-size="14" font-weight="bold" lengthAdjust="spacing" textLength="69" x="2401" y="22.5332">controller</text></g><!--MD5=[5d4cd377749310b66bf14896f5cd8d9b]
cluster model--><g id="cluster_model"><path d="M8.5,501.5 L52.5,501.5 A3.75,3.75 0 0 1 55,504 L62,525.1094 L2610.5,525.1094 A2.5,2.5 0 0 1 2613,527.6094 L2613,2041.5 A2.5,2.5 0 0 1 2610.5,2044 L8.5,2044 A2.5,2.5 0 0 1 6,2041.5 L6,504 A2.5,2.5 0 0 1 8.5,501.5 " fill="none" style="stroke:#000000;stroke-width:1.5;"/><line style="stroke:#000000;stroke-width:1.5;" x1="6" x2="62" y1="525.1094" y2="525.1094"/><text fill="#000000" font-family="sans-serif" font-size="14" font-weight="bold" lengthAdjust="spacing" textLength="43" x="10" y="518.0332">model</text></g><!--MD5=[e396aeb6bc02155fa86f9822808e156d]
cluster frameworks--><g id="cluster_frameworks"><path d="M32.5,1374 L115.5,1374 A3.75,3.75 0 0 1 118,1376.5 L125,1397.6094 L2586.5,1397.6094 A2.5,2.5 0 0 1 2589,1400.1094 L2589,1649.5 A2.5,2.5 0 0 1 2586.5,1652 L32.5,1652 A2.5,2.5 0 0 1 30,1649.5 L30,1376.5 A2.5,2.5 0 0 1 32.5,1374 " fill="none" style="stroke:#000000;stroke-width:1.5;"/><line style="stroke:#000000;stroke-width:1.5;" x1="30" x2="125" y1="1397.6094" y2="1397.6094"/><text fill="#000000" font-family="sans-serif" font-size="14" font-weight="bold" lengthAdjust="spacing" textLength="82" x="34" y="1390.5332">frameworks</text></g><!--MD5=[86cbce8df1eb9d604fbbb2fa357940f8]
cluster view--><g id="cluster_view"><path d="M2639.5,431 L2673.5,431 A3.75,3.75 0 0 1 2676,433.5 L2683,454.6094 L3834.5,454.6094 A2.5,2.5 0 0 1 3837,457.1094 L3837,775.5 A2.5,2.5 0 0 1 3834.5,778 L2639.5,778 A2.5,2.5 0 0 1 2637,775.5 L2637,433.5 A2.5,2.5 0 0 1 2639.5,431 " fill="none" style="stroke:#000000;stroke-width:1.5;"/><line style="stroke:#000000;stroke-width:1.5;" x1="2637" x2="2683" y1="454.6094" y2="454.6094"/><text fill="#000000" font-family="sans-serif" font-size="14" font-weight="bold" lengthAdjust="spacing" textLength="33" x="2641" y="447.5332">view</text></g><!--MD5=[3f908ccd3a2056432adfb9e2b53696ab]
class HomeController--><g id="elem_HomeController"><rect codeLine="2" fill="#F1F1F1" height="206.4844" id="HomeController" rx="2.5" ry="2.5" style="stroke:#181818;stroke-width:0.5;" width="279" x="2413.5" y="42"/><ellipse cx="2499.75" cy="58" fill="#ADD1B2" rx="11" ry="11" style="stroke:#181818;stroke-width:1.0;"/><path d="M2502.5156,53.875 Q2502.6719,53.6563 2502.8594,53.5469 Q2503.0469,53.4375 2503.2656,53.4375 Q2503.6406,53.4375 2503.875,53.6953 Q2504.1094,53.9531 2504.1094,54.5625 L2504.1094,56.0156 Q2504.1094,56.625 2503.875,56.8906 Q2503.6406,57.1563 2503.2656,57.1563 Q2502.9219,57.1563 2502.7188,56.9531 Q2502.5156,56.7656 2502.4063,56.25 Q2502.3594,55.8906 2502.1719,55.7031 Q2501.8438,55.3281 2501.2344,55.1094 Q2500.625,54.8906 2500,54.8906 Q2499.2344,54.8906 2498.6016,55.2188 Q2497.9688,55.5469 2497.4766,56.2969 Q2496.9844,57.0469 2496.9844,58.0781 L2496.9844,59.1719 Q2496.9844,60.4063 2497.875,61.2266 Q2498.7656,62.0469 2500.3594,62.0469 Q2501.2969,62.0469 2501.9531,61.7969 Q2502.3438,61.6406 2502.7656,61.2031 Q2503.0313,60.9375 2503.1797,60.8594 Q2503.3281,60.7813 2503.5313,60.7813 Q2503.8594,60.7813 2504.1172,61.0391 Q2504.375,61.2969 2504.375,61.6406 Q2504.375,61.9844 2504.0313,62.3906 Q2503.5313,62.9688 2502.7344,63.2969 Q2501.6563,63.75 2500.3594,63.75 Q2498.8438,63.75 2497.6406,63.125 Q2496.6563,62.625 2495.9688,61.5547 Q2495.2813,60.4844 2495.2813,59.2031 L2495.2813,58.0469 Q2495.2813,56.7188 2495.8984,55.5703 Q2496.5156,54.4219 2497.6094,53.8047 Q2498.7031,53.1875 2499.9375,53.1875 Q2500.6719,53.1875 2501.3203,53.3516 Q2501.9688,53.5156 2502.5156,53.875 Z " fill="#000000"/><text fill="#000000" font-family="sans-serif" font-size="14" lengthAdjust="spacing" textLength="98" x="2520.25" y="63.7285">HomeController</text><line style="stroke:#181818;stroke-width:0.5;" x1="2414.5" x2="2691.5" y1="74" y2="74"/><line style="stroke:#181818;stroke-width:0.5;" x1="2414.5" x2="2691.5" y1="82" y2="82"/><rect fill="#F24D5C" height="6" style="stroke:#C82930;stroke-width:1.0;" width="6" x="2421.5" y="93.3047"/><text fill="#000000" font-family="sans-serif" font-size="14" lengthAdjust="spacing" textLength="152" x="2433.5" y="100.5332">search_button_clicked()</text><rect fill="#F24D5C" height="6" style="stroke:#C82930;stroke-width:1.0;" width="6" x="2421.5" y="110.9141"/><text fill="#000000" font-family="sans-serif" font-size="14" lengthAdjust="spacing" textLength="140" x="2433.5" y="118.1426">validate_date_range()</text><rect fill="#F24D5C" height="6" style="stroke:#C82930;stroke-width:1.0;" width="6" x="2421.5" y="128.5234"/><text fill="#000000" font-family="sans-serif" font-size="14" lengthAdjust="spacing" textLength="126" x="2433.5" y="135.752">update_from_date()</text><rect fill="#F24D5C" height="6" style="stroke:#C82930;stroke-width:1.0;" width="6" x="2421.5" y="146.1328"/><text fill="#000000" font-family="sans-serif" font-size="14" lengthAdjust="spacing" textLength="110" x="2433.5" y="153.3613">update_to_date()</text><rect fill="#F24D5C" height="6" style="stroke:#C82930;stroke-width:1.0;" width="6" x="2421.5" y="163.7422"/><text fill="#000000" font-family="sans-serif" font-size="14" lengthAdjust="spacing" textLength="171" x="2433.5" y="170.9707">new_repo_button_clicked()</text><rect fill="#F24D5C" height="6" style="stroke:#C82930;stroke-width:1.0;" width="6" x="2421.5" y="181.3516"/><text fill="#000000" font-family="sans-serif" font-size="14" lengthAdjust="spacing" textLength="116" x="2433.5" y="188.5801">update_repo_list()</text><rect fill="#F24D5C" height="6" style="stroke:#C82930;stroke-width:1.0;" width="6" x="2421.5" y="198.9609"/><text fill="#000000" font-family="sans-serif" font-size="14" lengthAdjust="spacing" textLength="131" x="2433.5" y="206.1895">update_branch_list()</text><rect fill="#F24D5C" height="6" style="stroke:#C82930;stroke-width:1.0;" width="6" x="2421.5" y="216.5703"/><text fill="#000000" font-family="sans-serif" font-size="14" lengthAdjust="spacing" textLength="185" x="2433.5" y="223.7988">delete_repo_button_clicked()</text><rect fill="#F24D5C" height="6" style="stroke:#C82930;stroke-width:1.0;" width="6" x="2421.5" y="234.1797"/><text fill="#000000" font-family="sans-serif" font-size="14" lengthAdjust="spacing" textLength="253" x="2433.5" y="241.4082">create_directory(directory_path : String)</text></g><!--MD5=[1f0ad5f0d1fa1a6c0560668d4d92649b]
class NewRepoController--><g id="elem_NewRepoController"><rect codeLine="13" fill="#F1F1F1" height="83.2188" id="NewRepoController" rx="2.5" ry="2.5" style="stroke:#181818;stroke-width:0.5;" width="176" x="2413" y="308"/><ellipse cx="2437.9" cy="324" fill="#ADD1B2" rx="11" ry="11" style="stroke:#181818;stroke-width:1.0;"/><path d="M2440.6656,319.875 Q2440.8219,319.6563 2441.0094,319.5469 Q2441.1969,319.4375 2441.4156,319.4375 Q2441.7906,319.4375 2442.025,319.6953 Q2442.2594,319.9531 2442.2594,320.5625 L2442.2594,322.0156 Q2442.2594,322.625 2442.025,322.8906 Q2441.7906,323.1563 2441.4156,323.1563 Q2441.0719,323.1563 2440.8688,322.9531 Q2440.6656,322.7656 2440.5563,322.25 Q2440.5094,321.8906 2440.3219,321.7031 Q2439.9938,321.3281 2439.3844,321.1094 Q2438.775,320.8906 2438.15,320.8906 Q2437.3844,320.8906 2436.7516,321.2188 Q2436.1188,321.5469 2435.6266,322.2969 Q2435.1344,323.0469 2435.1344,324.0781 L2435.1344,325.1719 Q2435.1344,326.4063 2436.025,327.2266 Q2436.9156,328.0469 2438.5094,328.0469 Q2439.4469,328.0469 2440.1031,327.7969 Q2440.4938,327.6406 2440.9156,327.2031 Q2441.1813,326.9375 2441.3297,326.8594 Q2441.4781,326.7813 2441.6813,326.7813 Q2442.0094,326.7813 2442.2672,327.0391 Q2442.525,327.2969 2442.525,327.6406 Q2442.525,327.9844 2442.1813,328.3906 Q2441.6813,328.9688 2440.8844,329.2969 Q2439.8063,329.75 2438.5094,329.75 Q2436.9938,329.75 2435.7906,329.125 Q2434.8063,328.625 2434.1188,327.5547 Q2433.4313,326.4844 2433.4313,325.2031 L2433.4313,324.0469 Q2433.4313,322.7188 2434.0484,321.5703 Q2434.6656,320.4219 2435.7594,319.8047 Q2436.8531,319.1875 2438.0875,319.1875 Q2438.8219,319.1875 2439.4703,319.3516 Q2440.1188,319.5156 2440.6656,319.875 Z " fill="#000000"/><text fill="#000000" font-family="sans-serif" font-size="14" lengthAdjust="spacing" textLength="122" x="2454.1" y="329.7285">NewRepoController</text><line style="stroke:#181818;stroke-width:0.5;" x1="2414" x2="2588" y1="340" y2="340"/><line style="stroke:#181818;stroke-width:0.5;" x1="2414" x2="2588" y1="348" y2="348"/><rect fill="#F24D5C" height="6" style="stroke:#C82930;stroke-width:1.0;" width="6" x="2421" y="359.3047"/><text fill="#000000" font-family="sans-serif" font-size="14" lengthAdjust="spacing" textLength="124" x="2433" y="366.5332">ok_button_clicked()</text><rect fill="#F24D5C" height="6" style="stroke:#C82930;stroke-width:1.0;" width="6" x="2421" y="376.9141"/><text fill="#000000" font-family="sans-serif" font-size="14" lengthAdjust="spacing" textLength="150" x="2433" y="384.1426">cancel_button_clicked()</text></g><!--MD5=[624fda96084990f474dbb692f3ed956d]
class TraceVisualizerController--><g id="elem_TraceVisualizerController"><rect codeLine="18" fill="#F1F1F1" height="65.6094" id="TraceVisualizerController" rx="2.5" ry="2.5" style="stroke:#181818;stroke-width:0.5;" width="384" x="2624" y="316.5"/><ellipse cx="2732.25" cy="332.5" fill="#ADD1B2" rx="11" ry="11" style="stroke:#181818;stroke-width:1.0;"/><path d="M2735.0156,328.375 Q2735.1719,328.1563 2735.3594,328.0469 Q2735.5469,327.9375 2735.7656,327.9375 Q2736.1406,327.9375 2736.375,328.1953 Q2736.6094,328.4531 2736.6094,329.0625 L2736.6094,330.5156 Q2736.6094,331.125 2736.375,331.3906 Q2736.1406,331.6563 2735.7656,331.6563 Q2735.4219,331.6563 2735.2188,331.4531 Q2735.0156,331.2656 2734.9063,330.75 Q2734.8594,330.3906 2734.6719,330.2031 Q2734.3438,329.8281 2733.7344,329.6094 Q2733.125,329.3906 2732.5,329.3906 Q2731.7344,329.3906 2731.1016,329.7188 Q2730.4688,330.0469 2729.9766,330.7969 Q2729.4844,331.5469 2729.4844,332.5781 L2729.4844,333.6719 Q2729.4844,334.9063 2730.375,335.7266 Q2731.2656,336.5469 2732.8594,336.5469 Q2733.7969,336.5469 2734.4531,336.2969 Q2734.8438,336.1406 2735.2656,335.7031 Q2735.5313,335.4375 2735.6797,335.3594 Q2735.8281,335.2813 2736.0313,335.2813 Q2736.3594,335.2813 2736.6172,335.5391 Q2736.875,335.7969 2736.875,336.1406 Q2736.875,336.4844 2736.5313,336.8906 Q2736.0313,337.4688 2735.2344,337.7969 Q2734.1563,338.25 2732.8594,338.25 Q2731.3438,338.25 2730.1406,337.625 Q2729.1563,337.125 2728.4688,336.0547 Q2727.7813,334.9844 2727.7813,333.7031 L2727.7813,332.5469 Q2727.7813,331.2188 2728.3984,330.0703 Q2729.0156,328.9219 2730.1094,328.3047 Q2731.2031,327.6875 2732.4375,327.6875 Q2733.1719,327.6875 2733.8203,327.8516 Q2734.4688,328.0156 2735.0156,328.375 Z " fill="#000000"/><text fill="#000000" font-family="sans-serif" font-size="14" lengthAdjust="spacing" textLength="159" x="2752.75" y="338.2285">TraceVisualizerController</text><line style="stroke:#181818;stroke-width:0.5;" x1="2625" x2="3007" y1="348.5" y2="348.5"/><line style="stroke:#181818;stroke-width:0.5;" x1="2625" x2="3007" y1="356.5" y2="356.5"/><rect fill="#F24D5C" height="6" style="stroke:#C82930;stroke-width:1.0;" width="6" x="2632" y="367.8047"/><text fill="#000000" font-family="sans-serif" font-size="14" lengthAdjust="spacing" textLength="358" x="2644" y="375.0332">show_commit_changes(item : QTCore.QT.ItemDataRole)</text></g><!--MD5=[be25d3dd214c8dacd7244d40401a17ba]
class DataModel--><g id="elem_DataModel"><rect codeLine="40" fill="#F1F1F1" height="118.4375" id="DataModel" rx="2.5" ry="2.5" style="stroke:#181818;stroke-width:0.5;" width="191" x="1524.5" y="1018"/><ellipse cx="1581.75" cy="1034" fill="#ADD1B2" rx="11" ry="11" style="stroke:#181818;stroke-width:1.0;"/><path d="M1584.5156,1029.875 Q1584.6719,1029.6563 1584.8594,1029.5469 Q1585.0469,1029.4375 1585.2656,1029.4375 Q1585.6406,1029.4375 1585.875,1029.6953 Q1586.1094,1029.9531 1586.1094,1030.5625 L1586.1094,1032.0156 Q1586.1094,1032.625 1585.875,1032.8906 Q1585.6406,1033.1563 1585.2656,1033.1563 Q1584.9219,1033.1563 1584.7188,1032.9531 Q1584.5156,1032.7656 1584.4063,1032.25 Q1584.3594,1031.8906 1584.1719,1031.7031 Q1583.8438,1031.3281 1583.2344,1031.1094 Q1582.625,1030.8906 1582,1030.8906 Q1581.2344,1030.8906 1580.6016,1031.2188 Q1579.9688,1031.5469 1579.4766,1032.2969 Q1578.9844,1033.0469 1578.9844,1034.0781 L1578.9844,1035.1719 Q1578.9844,1036.4063 1579.875,1037.2266 Q1580.7656,1038.0469 1582.3594,1038.0469 Q1583.2969,1038.0469 1583.9531,1037.7969 Q1584.3438,1037.6406 1584.7656,1037.2031 Q1585.0313,1036.9375 1585.1797,1036.8594 Q1585.3281,1036.7813 1585.5313,1036.7813 Q1585.8594,1036.7813 1586.1172,1037.0391 Q1586.375,1037.2969 1586.375,1037.6406 Q1586.375,1037.9844 1586.0313,1038.3906 Q1585.5313,1038.9688 1584.7344,1039.2969 Q1583.6563,1039.75 1582.3594,1039.75 Q1580.8438,1039.75 1579.6406,1039.125 Q1578.6563,1038.625 1577.9688,1037.5547 Q1577.2813,1036.4844 1577.2813,1035.2031 L1577.2813,1034.0469 Q1577.2813,1032.7188 1577.8984,1031.5703 Q1578.5156,1030.4219 1579.6094,1029.8047 Q1580.7031,1029.1875 1581.9375,1029.1875 Q1582.6719,1029.1875 1583.3203,1029.3516 Q1583.9688,1029.5156 1584.5156,1029.875 Z " fill="#000000"/><text fill="#000000" font-family="sans-serif" font-size="14" lengthAdjust="spacing" textLength="68" x="1602.25" y="1039.7285">DataModel</text><line style="stroke:#181818;stroke-width:0.5;" x1="1525.5" x2="1714.5" y1="1050" y2="1050"/><rect fill="none" height="6" style="stroke:#C82930;stroke-width:1.0;" width="6" x="1532.5" y="1061.3047"/><text fill="#000000" font-family="sans-serif" font-size="14" lengthAdjust="spacing" textLength="78" x="1544.5" y="1068.5332">repo : Stirng</text><rect fill="none" height="6" style="stroke:#C82930;stroke-width:1.0;" width="6" x="1532.5" y="1078.9141"/><text fill="#000000" font-family="sans-serif" font-size="14" lengthAdjust="spacing" textLength="93" x="1544.5" y="1086.1426">branch : String</text><rect fill="none" height="6" style="stroke:#C82930;stroke-width:1.0;" width="6" x="1532.5" y="1096.5234"/><text fill="#000000" font-family="sans-serif" font-size="14" lengthAdjust="spacing" textLength="148" x="1544.5" y="1103.752">commits : List&lt;Commit&gt;</text><rect fill="none" height="6" style="stroke:#C82930;stroke-width:1.0;" width="6" x="1532.5" y="1114.1328"/><text fill="#000000" font-family="sans-serif" font-size="14" lengthAdjust="spacing" textLength="165" x="1544.5" y="1121.3613">logs : List&lt;LogInstruction&gt;</text><line style="stroke:#181818;stroke-width:0.5;" x1="1525.5" x2="1714.5" y1="1128.4375" y2="1128.4375"/></g><!--MD5=[488485e79d4ae6024baa4c602538735b]
class GlobalModel--><g id="elem_GlobalModel"><rect codeLine="47" fill="#F1F1F1" height="136.0469" id="GlobalModel" rx="2.5" ry="2.5" style="stroke:#181818;stroke-width:0.5;" width="499" x="1238.5" y="822"/><ellipse cx="1444.25" cy="838" fill="#ADD1B2" rx="11" ry="11" style="stroke:#181818;stroke-width:1.0;"/><path d="M1447.0156,833.875 Q1447.1719,833.6563 1447.3594,833.5469 Q1447.5469,833.4375 1447.7656,833.4375 Q1448.1406,833.4375 1448.375,833.6953 Q1448.6094,833.9531 1448.6094,834.5625 L1448.6094,836.0156 Q1448.6094,836.625 1448.375,836.8906 Q1448.1406,837.1563 1447.7656,837.1563 Q1447.4219,837.1563 1447.2188,836.9531 Q1447.0156,836.7656 1446.9063,836.25 Q1446.8594,835.8906 1446.6719,835.7031 Q1446.3438,835.3281 1445.7344,835.1094 Q1445.125,834.8906 1444.5,834.8906 Q1443.7344,834.8906 1443.1016,835.2188 Q1442.4688,835.5469 1441.9766,836.2969 Q1441.4844,837.0469 1441.4844,838.0781 L1441.4844,839.1719 Q1441.4844,840.4063 1442.375,841.2266 Q1443.2656,842.0469 1444.8594,842.0469 Q1445.7969,842.0469 1446.4531,841.7969 Q1446.8438,841.6406 1447.2656,841.2031 Q1447.5313,840.9375 1447.6797,840.8594 Q1447.8281,840.7813 1448.0313,840.7813 Q1448.3594,840.7813 1448.6172,841.0391 Q1448.875,841.2969 1448.875,841.6406 Q1448.875,841.9844 1448.5313,842.3906 Q1448.0313,842.9688 1447.2344,843.2969 Q1446.1563,843.75 1444.8594,843.75 Q1443.3438,843.75 1442.1406,843.125 Q1441.1563,842.625 1440.4688,841.5547 Q1439.7813,840.4844 1439.7813,839.2031 L1439.7813,838.0469 Q1439.7813,836.7188 1440.3984,835.5703 Q1441.0156,834.4219 1442.1094,833.8047 Q1443.2031,833.1875 1444.4375,833.1875 Q1445.1719,833.1875 1445.8203,833.3516 Q1446.4688,833.5156 1447.0156,833.875 Z " fill="#000000"/><text fill="#000000" font-family="sans-serif" font-size="14" lengthAdjust="spacing" textLength="79" x="1464.75" y="843.7285">GlobalModel</text><line style="stroke:#181818;stroke-width:0.5;" x1="1239.5" x2="1736.5" y1="854" y2="854"/><rect fill="none" height="6" style="stroke:#C82930;stroke-width:1.0;" width="6" x="1246.5" y="865.3047"/><text fill="#000000" font-family="sans-serif" font-size="14" lengthAdjust="spacing" textLength="255" x="1258.5" y="872.5332">repos : Dictionnary&lt;String, List&lt;String&gt;&gt;</text><line style="stroke:#181818;stroke-width:0.5;" x1="1239.5" x2="1736.5" y1="879.6094" y2="879.6094"/><ellipse cx="1249.5" cy="893.9141" fill="#84BE84" rx="3" ry="3" style="stroke:#038048;stroke-width:1.0;"/><text fill="#000000" font-family="sans-serif" font-size="14" lengthAdjust="spacing" textLength="298" x="1258.5" y="898.1426">get_repo_branch(repo : String, branch : String)</text><ellipse cx="1249.5" cy="911.5234" fill="#84BE84" rx="3" ry="3" style="stroke:#038048;stroke-width:1.0;"/><text fill="#000000" font-family="sans-serif" font-size="14" lengthAdjust="spacing" textLength="473" x="1258.5" y="915.752">add_repos_branch(repo : String, branch : String, instructions : Instructions)</text><ellipse cx="1249.5" cy="929.1328" fill="#84BE84" rx="3" ry="3" style="stroke:#038048;stroke-width:1.0;"/><text fill="#000000" font-family="sans-serif" font-size="14" lengthAdjust="spacing" textLength="172" x="1258.5" y="933.3613">remove_repo(repo : String)</text><ellipse cx="1249.5" cy="946.7422" fill="#84BE84" rx="3" ry="3" style="stroke:#038048;stroke-width:1.0;"/><text fill="#000000" font-family="sans-serif" font-size="14" lengthAdjust="spacing" textLength="325" x="1258.5" y="950.9707">remove_repo_branch(repo : String, branch : String)</text></g><!--MD5=[1480faaa3acf2f09e26952af5ff9b1cf]
class HomeModel--><g id="elem_HomeModel"><rect codeLine="54" fill="#F1F1F1" height="153.6563" id="HomeModel" rx="2.5" ry="2.5" style="stroke:#181818;stroke-width:0.5;" width="437" x="1412.5" y="537.5"/><ellipse cx="1589.75" cy="553.5" fill="#ADD1B2" rx="11" ry="11" style="stroke:#181818;stroke-width:1.0;"/><path d="M1592.5156,549.375 Q1592.6719,549.1563 1592.8594,549.0469 Q1593.0469,548.9375 1593.2656,548.9375 Q1593.6406,548.9375 1593.875,549.1953 Q1594.1094,549.4531 1594.1094,550.0625 L1594.1094,551.5156 Q1594.1094,552.125 1593.875,552.3906 Q1593.6406,552.6563 1593.2656,552.6563 Q1592.9219,552.6563 1592.7188,552.4531 Q1592.5156,552.2656 1592.4063,551.75 Q1592.3594,551.3906 1592.1719,551.2031 Q1591.8438,550.8281 1591.2344,550.6094 Q1590.625,550.3906 1590,550.3906 Q1589.2344,550.3906 1588.6016,550.7188 Q1587.9688,551.0469 1587.4766,551.7969 Q1586.9844,552.5469 1586.9844,553.5781 L1586.9844,554.6719 Q1586.9844,555.9063 1587.875,556.7266 Q1588.7656,557.5469 1590.3594,557.5469 Q1591.2969,557.5469 1591.9531,557.2969 Q1592.3438,557.1406 1592.7656,556.7031 Q1593.0313,556.4375 1593.1797,556.3594 Q1593.3281,556.2813 1593.5313,556.2813 Q1593.8594,556.2813 1594.1172,556.5391 Q1594.375,556.7969 1594.375,557.1406 Q1594.375,557.4844 1594.0313,557.8906 Q1593.5313,558.4688 1592.7344,558.7969 Q1591.6563,559.25 1590.3594,559.25 Q1588.8438,559.25 1587.6406,558.625 Q1586.6563,558.125 1585.9688,557.0547 Q1585.2813,555.9844 1585.2813,554.7031 L1585.2813,553.5469 Q1585.2813,552.2188 1585.8984,551.0703 Q1586.5156,549.9219 1587.6094,549.3047 Q1588.7031,548.6875 1589.9375,548.6875 Q1590.6719,548.6875 1591.3203,548.8516 Q1591.9688,549.0156 1592.5156,549.375 Z " fill="#000000"/><text fill="#000000" font-family="sans-serif" font-size="14" lengthAdjust="spacing" textLength="74" x="1610.25" y="559.2285">HomeModel</text><line style="stroke:#181818;stroke-width:0.5;" x1="1413.5" x2="1848.5" y1="569.5" y2="569.5"/><rect fill="none" height="6" style="stroke:#C82930;stroke-width:1.0;" width="6" x="1420.5" y="580.8047"/><text fill="#000000" font-family="sans-serif" font-size="14" lengthAdjust="spacing" textLength="404" x="1432.5" y="588.0332">added_log_instructions : List&lt;Dictionnary&lt;String, List&lt;String&gt;&gt;&gt;</text><rect fill="none" height="6" style="stroke:#C82930;stroke-width:1.0;" width="6" x="1420.5" y="598.4141"/><text fill="#000000" font-family="sans-serif" font-size="14" lengthAdjust="spacing" textLength="411" x="1432.5" y="605.6426">deleted_log_instructions : List&lt;Dictionnary&lt;String, List&lt;String&gt;&gt;&gt;</text><line style="stroke:#181818;stroke-width:0.5;" x1="1413.5" x2="1848.5" y1="612.7188" y2="612.7188"/><ellipse cx="1423.5" cy="627.0234" fill="#84BE84" rx="3" ry="3" style="stroke:#038048;stroke-width:1.0;"/><text fill="#000000" font-family="sans-serif" font-size="14" lengthAdjust="spacing" textLength="270" x="1432.5" y="631.252">get_repos(repo_path : String) : list&lt;String&gt;</text><ellipse cx="1423.5" cy="644.6328" fill="#84BE84" rx="3" ry="3" style="stroke:#038048;stroke-width:1.0;"/><text fill="#000000" font-family="sans-serif" font-size="14" lengthAdjust="spacing" textLength="169" x="1432.5" y="648.8613">git_pull(repo_path : String)</text><ellipse cx="1423.5" cy="662.2422" fill="#84BE84" rx="3" ry="3" style="stroke:#038048;stroke-width:1.0;"/><text fill="#000000" font-family="sans-serif" font-size="14" lengthAdjust="spacing" textLength="163" x="1432.5" y="666.4707">delete_repo(path : String)</text><ellipse cx="1423.5" cy="679.8516" fill="#84BE84" rx="3" ry="3" style="stroke:#038048;stroke-width:1.0;"/><text fill="#000000" font-family="sans-serif" font-size="14" lengthAdjust="spacing" textLength="293" x="1432.5" y="684.0801">get_branches(repo_path : String) : list&lt;String&gt;</text></g><!--MD5=[c0d827a8f741ed2c900c5402788ad16b]
class Instructions--><g id="elem_Instructions"><rect codeLine="62" fill="#F1F1F1" height="153.6563" id="Instructions" rx="2.5" ry="2.5" style="stroke:#181818;stroke-width:0.5;" width="294" x="1473" y="1196"/><ellipse cx="1579.75" cy="1212" fill="#ADD1B2" rx="11" ry="11" style="stroke:#181818;stroke-width:1.0;"/><path d="M1582.5156,1207.875 Q1582.6719,1207.6563 1582.8594,1207.5469 Q1583.0469,1207.4375 1583.2656,1207.4375 Q1583.6406,1207.4375 1583.875,1207.6953 Q1584.1094,1207.9531 1584.1094,1208.5625 L1584.1094,1210.0156 Q1584.1094,1210.625 1583.875,1210.8906 Q1583.6406,1211.1563 1583.2656,1211.1563 Q1582.9219,1211.1563 1582.7188,1210.9531 Q1582.5156,1210.7656 1582.4063,1210.25 Q1582.3594,1209.8906 1582.1719,1209.7031 Q1581.8438,1209.3281 1581.2344,1209.1094 Q1580.625,1208.8906 1580,1208.8906 Q1579.2344,1208.8906 1578.6016,1209.2188 Q1577.9688,1209.5469 1577.4766,1210.2969 Q1576.9844,1211.0469 1576.9844,1212.0781 L1576.9844,1213.1719 Q1576.9844,1214.4063 1577.875,1215.2266 Q1578.7656,1216.0469 1580.3594,1216.0469 Q1581.2969,1216.0469 1581.9531,1215.7969 Q1582.3438,1215.6406 1582.7656,1215.2031 Q1583.0313,1214.9375 1583.1797,1214.8594 Q1583.3281,1214.7813 1583.5313,1214.7813 Q1583.8594,1214.7813 1584.1172,1215.0391 Q1584.375,1215.2969 1584.375,1215.6406 Q1584.375,1215.9844 1584.0313,1216.3906 Q1583.5313,1216.9688 1582.7344,1217.2969 Q1581.6563,1217.75 1580.3594,1217.75 Q1578.8438,1217.75 1577.6406,1217.125 Q1576.6563,1216.625 1575.9688,1215.5547 Q1575.2813,1214.4844 1575.2813,1213.2031 L1575.2813,1212.0469 Q1575.2813,1210.7188 1575.8984,1209.5703 Q1576.5156,1208.4219 1577.6094,1207.8047 Q1578.7031,1207.1875 1579.9375,1207.1875 Q1580.6719,1207.1875 1581.3203,1207.3516 Q1581.9688,1207.5156 1582.5156,1207.875 Z " fill="#000000"/><text fill="#000000" font-family="sans-serif" font-size="14" lengthAdjust="spacing" textLength="72" x="1600.25" y="1217.7285">Instructions</text><line style="stroke:#181818;stroke-width:0.5;" x1="1474" x2="1766" y1="1228" y2="1228"/><rect fill="none" height="6" style="stroke:#C82930;stroke-width:1.0;" width="6" x="1481" y="1239.3047"/><text fill="#000000" font-family="sans-serif" font-size="14" lengthAdjust="spacing" textLength="146" x="1493" y="1246.5332">dates : List&lt;DateTime&gt;</text><rect fill="none" height="6" style="stroke:#C82930;stroke-width:1.0;" width="6" x="1481" y="1256.9141"/><text fill="#000000" font-family="sans-serif" font-size="14" lengthAdjust="spacing" textLength="159" x="1493" y="1264.1426">frameworks : List&lt;String&gt;</text><rect fill="none" height="6" style="stroke:#C82930;stroke-width:1.0;" width="6" x="1481" y="1274.5234"/><text fill="#000000" font-family="sans-serif" font-size="14" lengthAdjust="spacing" textLength="147" x="1493" y="1281.752">file_types : List&lt;String&gt;</text><rect fill="none" height="6" style="stroke:#C82930;stroke-width:1.0;" width="6" x="1481" y="1292.1328"/><text fill="#000000" font-family="sans-serif" font-size="14" lengthAdjust="spacing" textLength="77" x="1493" y="1299.3613">path : String</text><rect fill="none" height="6" style="stroke:#C82930;stroke-width:1.0;" width="6" x="1481" y="1309.7422"/><text fill="#000000" font-family="sans-serif" font-size="14" lengthAdjust="spacing" textLength="135" x="1493" y="1316.9707">authors : List&lt;String&gt;</text><line style="stroke:#181818;stroke-width:0.5;" x1="1474" x2="1766" y1="1324.0469" y2="1324.0469"/><ellipse cx="1484" cy="1338.3516" fill="#84BE84" rx="3" ry="3" style="stroke:#038048;stroke-width:1.0;"/><text fill="#000000" font-family="sans-serif" font-size="14" lengthAdjust="spacing" textLength="268" x="1493" y="1342.5801">set_frameworks(frameworks : List&lt;String&gt;)</text></g><!--MD5=[618ac1cf5bc8a3d04f724c7f019864e3]
class LogInstruction--><g id="elem_LogInstruction"><rect codeLine="70" fill="#F1F1F1" height="100.8281" id="LogInstruction" rx="2.5" ry="2.5" style="stroke:#181818;stroke-width:0.5;" width="305" x="1269.5" y="1696"/><ellipse cx="1373.25" cy="1712" fill="#ADD1B2" rx="11" ry="11" style="stroke:#181818;stroke-width:1.0;"/><path d="M1376.0156,1707.875 Q1376.1719,1707.6563 1376.3594,1707.5469 Q1376.5469,1707.4375 1376.7656,1707.4375 Q1377.1406,1707.4375 1377.375,1707.6953 Q1377.6094,1707.9531 1377.6094,1708.5625 L1377.6094,1710.0156 Q1377.6094,1710.625 1377.375,1710.8906 Q1377.1406,1711.1563 1376.7656,1711.1563 Q1376.4219,1711.1563 1376.2188,1710.9531 Q1376.0156,1710.7656 1375.9063,1710.25 Q1375.8594,1709.8906 1375.6719,1709.7031 Q1375.3438,1709.3281 1374.7344,1709.1094 Q1374.125,1708.8906 1373.5,1708.8906 Q1372.7344,1708.8906 1372.1016,1709.2188 Q1371.4688,1709.5469 1370.9766,1710.2969 Q1370.4844,1711.0469 1370.4844,1712.0781 L1370.4844,1713.1719 Q1370.4844,1714.4063 1371.375,1715.2266 Q1372.2656,1716.0469 1373.8594,1716.0469 Q1374.7969,1716.0469 1375.4531,1715.7969 Q1375.8438,1715.6406 1376.2656,1715.2031 Q1376.5313,1714.9375 1376.6797,1714.8594 Q1376.8281,1714.7813 1377.0313,1714.7813 Q1377.3594,1714.7813 1377.6172,1715.0391 Q1377.875,1715.2969 1377.875,1715.6406 Q1377.875,1715.9844 1377.5313,1716.3906 Q1377.0313,1716.9688 1376.2344,1717.2969 Q1375.1563,1717.75 1373.8594,1717.75 Q1372.3438,1717.75 1371.1406,1717.125 Q1370.1563,1716.625 1369.4688,1715.5547 Q1368.7813,1714.4844 1368.7813,1713.2031 L1368.7813,1712.0469 Q1368.7813,1710.7188 1369.3984,1709.5703 Q1370.0156,1708.4219 1371.1094,1707.8047 Q1372.2031,1707.1875 1373.4375,1707.1875 Q1374.1719,1707.1875 1374.8203,1707.3516 Q1375.4688,1707.5156 1376.0156,1707.875 Z " fill="#000000"/><text fill="#000000" font-family="sans-serif" font-size="14" lengthAdjust="spacing" textLength="89" x="1393.75" y="1717.7285">LogInstruction</text><line style="stroke:#181818;stroke-width:0.5;" x1="1270.5" x2="1573.5" y1="1728" y2="1728"/><rect fill="none" height="6" style="stroke:#C82930;stroke-width:1.0;" width="6" x="1277.5" y="1739.3047"/><text fill="#000000" font-family="sans-serif" font-size="14" lengthAdjust="spacing" textLength="114" x="1289.5" y="1746.5332">instruction : String</text><rect fill="none" height="6" style="stroke:#C82930;stroke-width:1.0;" width="6" x="1277.5" y="1756.9141"/><text fill="#000000" font-family="sans-serif" font-size="14" lengthAdjust="spacing" textLength="101" x="1289.5" y="1764.1426">date : DateTime</text><line style="stroke:#181818;stroke-width:0.5;" x1="1270.5" x2="1573.5" y1="1771.2188" y2="1771.2188"/><ellipse cx="1280.5" cy="1785.5234" fill="#84BE84" rx="3" ry="3" style="stroke:#038048;stroke-width:1.0;"/><text fill="#000000" font-family="sans-serif" font-size="14" lengthAdjust="spacing" textLength="279" x="1289.5" y="1789.752">add_modification(modification : Modification)</text></g><!--MD5=[392569bdf4cc06d7d4c14230b81d2d7d]
class Modification--><g id="elem_Modification"><rect codeLine="75" fill="#F1F1F1" height="171.2656" id="Modification" rx="2.5" ry="2.5" style="stroke:#181818;stroke-width:0.5;" width="155" x="1344.5" y="1857"/><ellipse cx="1381.1" cy="1873" fill="#ADD1B2" rx="11" ry="11" style="stroke:#181818;stroke-width:1.0;"/><path d="M1383.8656,1868.875 Q1384.0219,1868.6563 1384.2094,1868.5469 Q1384.3969,1868.4375 1384.6156,1868.4375 Q1384.9906,1868.4375 1385.225,1868.6953 Q1385.4594,1868.9531 1385.4594,1869.5625 L1385.4594,1871.0156 Q1385.4594,1871.625 1385.225,1871.8906 Q1384.9906,1872.1563 1384.6156,1872.1563 Q1384.2719,1872.1563 1384.0688,1871.9531 Q1383.8656,1871.7656 1383.7563,1871.25 Q1383.7094,1870.8906 1383.5219,1870.7031 Q1383.1938,1870.3281 1382.5844,1870.1094 Q1381.975,1869.8906 1381.35,1869.8906 Q1380.5844,1869.8906 1379.9516,1870.2188 Q1379.3188,1870.5469 1378.8266,1871.2969 Q1378.3344,1872.0469 1378.3344,1873.0781 L1378.3344,1874.1719 Q1378.3344,1875.4063 1379.225,1876.2266 Q1380.1156,1877.0469 1381.7094,1877.0469 Q1382.6469,1877.0469 1383.3031,1876.7969 Q1383.6938,1876.6406 1384.1156,1876.2031 Q1384.3813,1875.9375 1384.5297,1875.8594 Q1384.6781,1875.7813 1384.8813,1875.7813 Q1385.2094,1875.7813 1385.4672,1876.0391 Q1385.725,1876.2969 1385.725,1876.6406 Q1385.725,1876.9844 1385.3813,1877.3906 Q1384.8813,1877.9688 1384.0844,1878.2969 Q1383.0063,1878.75 1381.7094,1878.75 Q1380.1938,1878.75 1378.9906,1878.125 Q1378.0063,1877.625 1377.3188,1876.5547 Q1376.6313,1875.4844 1376.6313,1874.2031 L1376.6313,1873.0469 Q1376.6313,1871.7188 1377.2484,1870.5703 Q1377.8656,1869.4219 1378.9594,1868.8047 Q1380.0531,1868.1875 1381.2875,1868.1875 Q1382.0219,1868.1875 1382.6703,1868.3516 Q1383.3188,1868.5156 1383.8656,1868.875 Z " fill="#000000"/><text fill="#000000" font-family="sans-serif" font-size="14" lengthAdjust="spacing" textLength="75" x="1399.9" y="1878.7285">Modification</text><line style="stroke:#181818;stroke-width:0.5;" x1="1345.5" x2="1498.5" y1="1889" y2="1889"/><rect fill="none" height="6" style="stroke:#C82930;stroke-width:1.0;" width="6" x="1352.5" y="1900.3047"/><text fill="#000000" font-family="sans-serif" font-size="14" lengthAdjust="spacing" textLength="103" x="1364.5" y="1907.5332">commit : Commit</text><rect fill="none" height="6" style="stroke:#C82930;stroke-width:1.0;" width="6" x="1352.5" y="1917.9141"/><text fill="#000000" font-family="sans-serif" font-size="14" lengthAdjust="spacing" textLength="101" x="1364.5" y="1925.1426">date : DateTime</text><rect fill="none" height="6" style="stroke:#C82930;stroke-width:1.0;" width="6" x="1352.5" y="1935.5234"/><text fill="#000000" font-family="sans-serif" font-size="14" lengthAdjust="spacing" textLength="76" x="1364.5" y="1942.752">type : String</text><rect fill="none" height="6" style="stroke:#C82930;stroke-width:1.0;" width="6" x="1352.5" y="1953.1328"/><text fill="#000000" font-family="sans-serif" font-size="14" lengthAdjust="spacing" textLength="129" x="1364.5" y="1960.3613">before_code : String</text><rect fill="none" height="6" style="stroke:#C82930;stroke-width:1.0;" width="6" x="1352.5" y="1970.7422"/><text fill="#000000" font-family="sans-serif" font-size="14" lengthAdjust="spacing" textLength="117" x="1364.5" y="1977.9707">after_code : String</text><rect fill="none" height="6" style="stroke:#C82930;stroke-width:1.0;" width="6" x="1352.5" y="1988.3516"/><text fill="#000000" font-family="sans-serif" font-size="14" lengthAdjust="spacing" textLength="80" x="1364.5" y="1995.5801">hash : String</text><rect fill="none" height="6" style="stroke:#C82930;stroke-width:1.0;" width="6" x="1352.5" y="2005.9609"/><text fill="#000000" font-family="sans-serif" font-size="14" lengthAdjust="spacing" textLength="110" x="1364.5" y="2013.1895">file_name : String</text><line style="stroke:#181818;stroke-width:0.5;" x1="1345.5" x2="1498.5" y1="2020.2656" y2="2020.2656"/></g><!--MD5=[f57186dfa0d48264967cdb8ff683e49b]
class NewRepoModel--><g id="elem_NewRepoModel"><rect codeLine="84" fill="#F1F1F1" height="65.6094" id="NewRepoModel" rx="2.5" ry="2.5" style="stroke:#181818;stroke-width:0.5;" width="331" x="1884.5" y="581.5"/><ellipse cx="1996.75" cy="597.5" fill="#ADD1B2" rx="11" ry="11" style="stroke:#181818;stroke-width:1.0;"/><path d="M1999.5156,593.375 Q1999.6719,593.1563 1999.8594,593.0469 Q2000.0469,592.9375 2000.2656,592.9375 Q2000.6406,592.9375 2000.875,593.1953 Q2001.1094,593.4531 2001.1094,594.0625 L2001.1094,595.5156 Q2001.1094,596.125 2000.875,596.3906 Q2000.6406,596.6563 2000.2656,596.6563 Q1999.9219,596.6563 1999.7188,596.4531 Q1999.5156,596.2656 1999.4063,595.75 Q1999.3594,595.3906 1999.1719,595.2031 Q1998.8438,594.8281 1998.2344,594.6094 Q1997.625,594.3906 1997,594.3906 Q1996.2344,594.3906 1995.6016,594.7188 Q1994.9688,595.0469 1994.4766,595.7969 Q1993.9844,596.5469 1993.9844,597.5781 L1993.9844,598.6719 Q1993.9844,599.9063 1994.875,600.7266 Q1995.7656,601.5469 1997.3594,601.5469 Q1998.2969,601.5469 1998.9531,601.2969 Q1999.3438,601.1406 1999.7656,600.7031 Q2000.0313,600.4375 2000.1797,600.3594 Q2000.3281,600.2813 2000.5313,600.2813 Q2000.8594,600.2813 2001.1172,600.5391 Q2001.375,600.7969 2001.375,601.1406 Q2001.375,601.4844 2001.0313,601.8906 Q2000.5313,602.4688 1999.7344,602.7969 Q1998.6563,603.25 1997.3594,603.25 Q1995.8438,603.25 1994.6406,602.625 Q1993.6563,602.125 1992.9688,601.0547 Q1992.2813,599.9844 1992.2813,598.7031 L1992.2813,597.5469 Q1992.2813,596.2188 1992.8984,595.0703 Q1993.5156,593.9219 1994.6094,593.3047 Q1995.7031,592.6875 1996.9375,592.6875 Q1997.6719,592.6875 1998.3203,592.8516 Q1998.9688,593.0156 1999.5156,593.375 Z " fill="#000000"/><text fill="#000000" font-family="sans-serif" font-size="14" lengthAdjust="spacing" textLength="98" x="2017.25" y="603.2285">NewRepoModel</text><line style="stroke:#181818;stroke-width:0.5;" x1="1885.5" x2="2214.5" y1="613.5" y2="613.5"/><line style="stroke:#181818;stroke-width:0.5;" x1="1885.5" x2="2214.5" y1="621.5" y2="621.5"/><ellipse cx="1895.5" cy="635.8047" fill="#84BE84" rx="3" ry="3" style="stroke:#038048;stroke-width:1.0;"/><text fill="#000000" font-family="sans-serif" font-size="14" lengthAdjust="spacing" textLength="305" x="1904.5" y="640.0332">clone_repo(repo_url : String, repo_path : String)</text></g><!--MD5=[3b09f52bbd0953f6406b035cffe3f09c]
class TraceVisualizerModel--><g id="elem_TraceVisualizerModel"><rect codeLine="87" fill="#F1F1F1" height="65.6094" id="TraceVisualizerModel" rx="2.5" ry="2.5" style="stroke:#181818;stroke-width:0.5;" width="346" x="2251" y="581.5"/><ellipse cx="2352.25" cy="597.5" fill="#ADD1B2" rx="11" ry="11" style="stroke:#181818;stroke-width:1.0;"/><path d="M2355.0156,593.375 Q2355.1719,593.1563 2355.3594,593.0469 Q2355.5469,592.9375 2355.7656,592.9375 Q2356.1406,592.9375 2356.375,593.1953 Q2356.6094,593.4531 2356.6094,594.0625 L2356.6094,595.5156 Q2356.6094,596.125 2356.375,596.3906 Q2356.1406,596.6563 2355.7656,596.6563 Q2355.4219,596.6563 2355.2188,596.4531 Q2355.0156,596.2656 2354.9063,595.75 Q2354.8594,595.3906 2354.6719,595.2031 Q2354.3438,594.8281 2353.7344,594.6094 Q2353.125,594.3906 2352.5,594.3906 Q2351.7344,594.3906 2351.1016,594.7188 Q2350.4688,595.0469 2349.9766,595.7969 Q2349.4844,596.5469 2349.4844,597.5781 L2349.4844,598.6719 Q2349.4844,599.9063 2350.375,600.7266 Q2351.2656,601.5469 2352.8594,601.5469 Q2353.7969,601.5469 2354.4531,601.2969 Q2354.8438,601.1406 2355.2656,600.7031 Q2355.5313,600.4375 2355.6797,600.3594 Q2355.8281,600.2813 2356.0313,600.2813 Q2356.3594,600.2813 2356.6172,600.5391 Q2356.875,600.7969 2356.875,601.1406 Q2356.875,601.4844 2356.5313,601.8906 Q2356.0313,602.4688 2355.2344,602.7969 Q2354.1563,603.25 2352.8594,603.25 Q2351.3438,603.25 2350.1406,602.625 Q2349.1563,602.125 2348.4688,601.0547 Q2347.7813,599.9844 2347.7813,598.7031 L2347.7813,597.5469 Q2347.7813,596.2188 2348.3984,595.0703 Q2349.0156,593.9219 2350.1094,593.3047 Q2351.2031,592.6875 2352.4375,592.6875 Q2353.1719,592.6875 2353.8203,592.8516 Q2354.4688,593.0156 2355.0156,593.375 Z " fill="#000000"/><text fill="#000000" font-family="sans-serif" font-size="14" lengthAdjust="spacing" textLength="135" x="2372.75" y="603.2285">TraceVisualizerModel</text><line style="stroke:#181818;stroke-width:0.5;" x1="2252" x2="2596" y1="613.5" y2="613.5"/><line style="stroke:#181818;stroke-width:0.5;" x1="2252" x2="2596" y1="621.5" y2="621.5"/><ellipse cx="2262" cy="635.8047" fill="#84BE84" rx="3" ry="3" style="stroke:#038048;stroke-width:1.0;"/><text fill="#000000" font-family="sans-serif" font-size="14" lengthAdjust="spacing" textLength="320" x="2271" y="640.0332">get_commit_changes(commits : List&lt;modification&gt;)</text></g><!--MD5=[0817977829b4debe244f842399e843ac]
class framework--><g id="elem_framework"><rect codeLine="26" fill="#F1F1F1" height="83.2188" id="framework" rx="2.5" ry="2.5" style="stroke:#181818;stroke-width:0.5;" width="1246" x="997" y="1410"/><ellipse cx="1582.75" cy="1426" fill="#B4A7E5" rx="11" ry="11" style="stroke:#181818;stroke-width:1.0;"/><path d="M1583.7031,1422.6406 L1583.7031,1429.2969 L1585.4219,1429.2969 Q1586.0313,1429.2969 1586.2969,1429.5313 Q1586.5625,1429.7656 1586.5625,1430.1563 Q1586.5625,1430.5313 1586.2969,1430.7656 Q1586.0313,1431 1585.4219,1431 L1580.2813,1431 Q1579.6719,1431 1579.4063,1430.7656 Q1579.1406,1430.5313 1579.1406,1430.1406 Q1579.1406,1429.7656 1579.4063,1429.5313 Q1579.6719,1429.2969 1580.2813,1429.2969 L1582,1429.2969 L1582,1422.6406 L1580.2813,1422.6406 Q1579.6719,1422.6406 1579.4063,1422.4063 Q1579.1406,1422.1719 1579.1406,1421.7813 Q1579.1406,1421.4063 1579.4063,1421.1719 Q1579.6719,1420.9375 1580.2813,1420.9375 L1585.4219,1420.9375 Q1586.0313,1420.9375 1586.2969,1421.1719 Q1586.5625,1421.4063 1586.5625,1421.7813 Q1586.5625,1422.1719 1586.2969,1422.4063 Q1586.0313,1422.6406 1585.4219,1422.6406 L1583.7031,1422.6406 Z " fill="#000000"/><text fill="#000000" font-family="sans-serif" font-size="14" font-style="italic" lengthAdjust="spacing" textLength="66" x="1603.25" y="1431.7285">framework</text><line style="stroke:#181818;stroke-width:0.5;" x1="998" x2="2242" y1="1442" y2="1442"/><line style="stroke:#181818;stroke-width:0.5;" x1="998" x2="2242" y1="1450" y2="1450"/><ellipse cx="1008" cy="1464.3047" fill="#84BE84" rx="3" ry="3" style="stroke:#038048;stroke-width:1.0;"/><text fill="#000000" font-family="sans-serif" font-size="14" lengthAdjust="spacing" textLength="199" x="1017" y="1468.5332">get_logs(): List&lt;LogInstruction&gt;</text><ellipse cx="1008" cy="1481.9141" fill="#84BE84" rx="3" ry="3" style="stroke:#038048;stroke-width:1.0;"/><text fill="#000000" font-family="sans-serif" font-size="14" lengthAdjust="spacing" textLength="1220" x="1017" y="1486.1426">add_logs(logs : List&lt;LogInstruction&gt;, instruction : String, newInstruction : String, type : String, date : DateTime, source_code_before : String, source_code : String, hash : String, filename : String)</text></g><!--MD5=[fcd78a8750062a0f6e64907752fca85c]
class Log4J--><g id="elem_Log4J"><rect codeLine="30" fill="#F1F1F1" height="83.2188" id="Log4J" rx="2.5" ry="2.5" style="stroke:#181818;stroke-width:0.5;" width="1246" x="46" y="1553"/><ellipse cx="645.75" cy="1569" fill="#ADD1B2" rx="11" ry="11" style="stroke:#181818;stroke-width:1.0;"/><path d="M648.5156,1564.875 Q648.6719,1564.6563 648.8594,1564.5469 Q649.0469,1564.4375 649.2656,1564.4375 Q649.6406,1564.4375 649.875,1564.6953 Q650.1094,1564.9531 650.1094,1565.5625 L650.1094,1567.0156 Q650.1094,1567.625 649.875,1567.8906 Q649.6406,1568.1563 649.2656,1568.1563 Q648.9219,1568.1563 648.7188,1567.9531 Q648.5156,1567.7656 648.4063,1567.25 Q648.3594,1566.8906 648.1719,1566.7031 Q647.8438,1566.3281 647.2344,1566.1094 Q646.625,1565.8906 646,1565.8906 Q645.2344,1565.8906 644.6016,1566.2188 Q643.9688,1566.5469 643.4766,1567.2969 Q642.9844,1568.0469 642.9844,1569.0781 L642.9844,1570.1719 Q642.9844,1571.4063 643.875,1572.2266 Q644.7656,1573.0469 646.3594,1573.0469 Q647.2969,1573.0469 647.9531,1572.7969 Q648.3438,1572.6406 648.7656,1572.2031 Q649.0313,1571.9375 649.1797,1571.8594 Q649.3281,1571.7813 649.5313,1571.7813 Q649.8594,1571.7813 650.1172,1572.0391 Q650.375,1572.2969 650.375,1572.6406 Q650.375,1572.9844 650.0313,1573.3906 Q649.5313,1573.9688 648.7344,1574.2969 Q647.6563,1574.75 646.3594,1574.75 Q644.8438,1574.75 643.6406,1574.125 Q642.6563,1573.625 641.9688,1572.5547 Q641.2813,1571.4844 641.2813,1570.2031 L641.2813,1569.0469 Q641.2813,1567.7188 641.8984,1566.5703 Q642.5156,1565.4219 643.6094,1564.8047 Q644.7031,1564.1875 645.9375,1564.1875 Q646.6719,1564.1875 647.3203,1564.3516 Q647.9688,1564.5156 648.5156,1564.875 Z " fill="#000000"/><text fill="#000000" font-family="sans-serif" font-size="14" lengthAdjust="spacing" textLength="38" x="666.25" y="1574.7285">Log4J</text><line style="stroke:#181818;stroke-width:0.5;" x1="47" x2="1291" y1="1585" y2="1585"/><line style="stroke:#181818;stroke-width:0.5;" x1="47" x2="1291" y1="1593" y2="1593"/><ellipse cx="57" cy="1607.3047" fill="#84BE84" rx="3" ry="3" style="stroke:#038048;stroke-width:1.0;"/><text fill="#000000" font-family="sans-serif" font-size="14" lengthAdjust="spacing" textLength="203" x="66" y="1611.5332">get_logs() : List&lt;LogInstruction&gt;</text><ellipse cx="57" cy="1624.9141" fill="#84BE84" rx="3" ry="3" style="stroke:#038048;stroke-width:1.0;"/><text fill="#000000" font-family="sans-serif" font-size="14" lengthAdjust="spacing" textLength="1220" x="66" y="1629.1426">add_logs(logs : List&lt;LogInstruction&gt;, instruction : String, newInstruction : String, type : String, date : DateTime, source_code_before : String, source_code : String, hash : String, filename : String)</text></g><!--MD5=[5e31062437323cd361d86d64563a1a4b]
class Log4P--><g id="elem_Log4P"><rect codeLine="34" fill="#F1F1F1" height="83.2188" id="Log4P" rx="2.5" ry="2.5" style="stroke:#181818;stroke-width:0.5;" width="1246" x="1327" y="1553"/><ellipse cx="1925.25" cy="1569" fill="#ADD1B2" rx="11" ry="11" style="stroke:#181818;stroke-width:1.0;"/><path d="M1928.0156,1564.875 Q1928.1719,1564.6563 1928.3594,1564.5469 Q1928.5469,1564.4375 1928.7656,1564.4375 Q1929.1406,1564.4375 1929.375,1564.6953 Q1929.6094,1564.9531 1929.6094,1565.5625 L1929.6094,1567.0156 Q1929.6094,1567.625 1929.375,1567.8906 Q1929.1406,1568.1563 1928.7656,1568.1563 Q1928.4219,1568.1563 1928.2188,1567.9531 Q1928.0156,1567.7656 1927.9063,1567.25 Q1927.8594,1566.8906 1927.6719,1566.7031 Q1927.3438,1566.3281 1926.7344,1566.1094 Q1926.125,1565.8906 1925.5,1565.8906 Q1924.7344,1565.8906 1924.1016,1566.2188 Q1923.4688,1566.5469 1922.9766,1567.2969 Q1922.4844,1568.0469 1922.4844,1569.0781 L1922.4844,1570.1719 Q1922.4844,1571.4063 1923.375,1572.2266 Q1924.2656,1573.0469 1925.8594,1573.0469 Q1926.7969,1573.0469 1927.4531,1572.7969 Q1927.8438,1572.6406 1928.2656,1572.2031 Q1928.5313,1571.9375 1928.6797,1571.8594 Q1928.8281,1571.7813 1929.0313,1571.7813 Q1929.3594,1571.7813 1929.6172,1572.0391 Q1929.875,1572.2969 1929.875,1572.6406 Q1929.875,1572.9844 1929.5313,1573.3906 Q1929.0313,1573.9688 1928.2344,1574.2969 Q1927.1563,1574.75 1925.8594,1574.75 Q1924.3438,1574.75 1923.1406,1574.125 Q1922.1563,1573.625 1921.4688,1572.5547 Q1920.7813,1571.4844 1920.7813,1570.2031 L1920.7813,1569.0469 Q1920.7813,1567.7188 1921.3984,1566.5703 Q1922.0156,1565.4219 1923.1094,1564.8047 Q1924.2031,1564.1875 1925.4375,1564.1875 Q1926.1719,1564.1875 1926.8203,1564.3516 Q1927.4688,1564.5156 1928.0156,1564.875 Z " fill="#000000"/><text fill="#000000" font-family="sans-serif" font-size="14" lengthAdjust="spacing" textLength="41" x="1945.75" y="1574.7285">Log4P</text><line style="stroke:#181818;stroke-width:0.5;" x1="1328" x2="2572" y1="1585" y2="1585"/><line style="stroke:#181818;stroke-width:0.5;" x1="1328" x2="2572" y1="1593" y2="1593"/><ellipse cx="1338" cy="1607.3047" fill="#84BE84" rx="3" ry="3" style="stroke:#038048;stroke-width:1.0;"/><text fill="#000000" font-family="sans-serif" font-size="14" lengthAdjust="spacing" textLength="203" x="1347" y="1611.5332">get_logs() : List&lt;LogInstruction&gt;</text><ellipse cx="1338" cy="1624.9141" fill="#84BE84" rx="3" ry="3" style="stroke:#038048;stroke-width:1.0;"/><text fill="#000000" font-family="sans-serif" font-size="14" lengthAdjust="spacing" textLength="1220" x="1347" y="1629.1426">add_logs(logs : List&lt;LogInstruction&gt;, instruction : String, newInstruction : String, type : String, date : DateTime, source_code_before : String, source_code : String, hash : String, filename : String)</text></g><!--MD5=[9a5c7ef6f1b55b5416e49b291d6cd453]
class CommitWindowView--><g id="elem_CommitWindowView"><rect codeLine="94" fill="#F1F1F1" height="65.6094" id="CommitWindowView" rx="2.5" ry="2.5" style="stroke:#181818;stroke-width:0.5;" width="199" x="2653.5" y="581.5"/><ellipse cx="2687.4" cy="597.5" fill="#ADD1B2" rx="11" ry="11" style="stroke:#181818;stroke-width:1.0;"/><path d="M2690.1656,593.375 Q2690.3219,593.1563 2690.5094,593.0469 Q2690.6969,592.9375 2690.9156,592.9375 Q2691.2906,592.9375 2691.525,593.1953 Q2691.7594,593.4531 2691.7594,594.0625 L2691.7594,595.5156 Q2691.7594,596.125 2691.525,596.3906 Q2691.2906,596.6563 2690.9156,596.6563 Q2690.5719,596.6563 2690.3688,596.4531 Q2690.1656,596.2656 2690.0563,595.75 Q2690.0094,595.3906 2689.8219,595.2031 Q2689.4938,594.8281 2688.8844,594.6094 Q2688.275,594.3906 2687.65,594.3906 Q2686.8844,594.3906 2686.2516,594.7188 Q2685.6188,595.0469 2685.1266,595.7969 Q2684.6344,596.5469 2684.6344,597.5781 L2684.6344,598.6719 Q2684.6344,599.9063 2685.525,600.7266 Q2686.4156,601.5469 2688.0094,601.5469 Q2688.9469,601.5469 2689.6031,601.2969 Q2689.9938,601.1406 2690.4156,600.7031 Q2690.6813,600.4375 2690.8297,600.3594 Q2690.9781,600.2813 2691.1813,600.2813 Q2691.5094,600.2813 2691.7672,600.5391 Q2692.025,600.7969 2692.025,601.1406 Q2692.025,601.4844 2691.6813,601.8906 Q2691.1813,602.4688 2690.3844,602.7969 Q2689.3063,603.25 2688.0094,603.25 Q2686.4938,603.25 2685.2906,602.625 Q2684.3063,602.125 2683.6188,601.0547 Q2682.9313,599.9844 2682.9313,598.7031 L2682.9313,597.5469 Q2682.9313,596.2188 2683.5484,595.0703 Q2684.1656,593.9219 2685.2594,593.3047 Q2686.3531,592.6875 2687.5875,592.6875 Q2688.3219,592.6875 2688.9703,592.8516 Q2689.6188,593.0156 2690.1656,593.375 Z " fill="#000000"/><text fill="#000000" font-family="sans-serif" font-size="14" lengthAdjust="spacing" textLength="125" x="2705.6" y="603.2285">CommitWindowView</text><line style="stroke:#181818;stroke-width:0.5;" x1="2654.5" x2="2851.5" y1="613.5" y2="613.5"/><rect fill="none" height="6" style="stroke:#C82930;stroke-width:1.0;" width="6" x="2661.5" y="624.8047"/><text fill="#000000" font-family="sans-serif" font-size="14" lengthAdjust="spacing" textLength="173" x="2673.5" y="632.0332">code_table : QTableWidget</text><line style="stroke:#181818;stroke-width:0.5;" x1="2654.5" x2="2851.5" y1="639.1094" y2="639.1094"/></g><!--MD5=[638d2833c1deeea8266eb58e4e049321]
class HomeView--><g id="elem_HomeView"><rect codeLine="98" fill="#F1F1F1" height="294.5313" id="HomeView" rx="2.5" ry="2.5" style="stroke:#181818;stroke-width:0.5;" width="261" x="3559.5" y="467"/><ellipse cx="3653.25" cy="483" fill="#ADD1B2" rx="11" ry="11" style="stroke:#181818;stroke-width:1.0;"/><path d="M3656.0156,478.875 Q3656.1719,478.6563 3656.3594,478.5469 Q3656.5469,478.4375 3656.7656,478.4375 Q3657.1406,478.4375 3657.375,478.6953 Q3657.6094,478.9531 3657.6094,479.5625 L3657.6094,481.0156 Q3657.6094,481.625 3657.375,481.8906 Q3657.1406,482.1563 3656.7656,482.1563 Q3656.4219,482.1563 3656.2188,481.9531 Q3656.0156,481.7656 3655.9063,481.25 Q3655.8594,480.8906 3655.6719,480.7031 Q3655.3438,480.3281 3654.7344,480.1094 Q3654.125,479.8906 3653.5,479.8906 Q3652.7344,479.8906 3652.1016,480.2188 Q3651.4688,480.5469 3650.9766,481.2969 Q3650.4844,482.0469 3650.4844,483.0781 L3650.4844,484.1719 Q3650.4844,485.4063 3651.375,486.2266 Q3652.2656,487.0469 3653.8594,487.0469 Q3654.7969,487.0469 3655.4531,486.7969 Q3655.8438,486.6406 3656.2656,486.2031 Q3656.5313,485.9375 3656.6797,485.8594 Q3656.8281,485.7813 3657.0313,485.7813 Q3657.3594,485.7813 3657.6172,486.0391 Q3657.875,486.2969 3657.875,486.6406 Q3657.875,486.9844 3657.5313,487.3906 Q3657.0313,487.9688 3656.2344,488.2969 Q3655.1563,488.75 3653.8594,488.75 Q3652.3438,488.75 3651.1406,488.125 Q3650.1563,487.625 3649.4688,486.5547 Q3648.7813,485.4844 3648.7813,484.2031 L3648.7813,483.0469 Q3648.7813,481.7188 3649.3984,480.5703 Q3650.0156,479.4219 3651.1094,478.8047 Q3652.2031,478.1875 3653.4375,478.1875 Q3654.1719,478.1875 3654.8203,478.3516 Q3655.4688,478.5156 3656.0156,478.875 Z " fill="#000000"/><text fill="#000000" font-family="sans-serif" font-size="14" lengthAdjust="spacing" textLength="65" x="3673.75" y="488.7285">HomeView</text><line style="stroke:#181818;stroke-width:0.5;" x1="3560.5" x2="3819.5" y1="499" y2="499"/><rect fill="none" height="6" style="stroke:#C82930;stroke-width:1.0;" width="6" x="3567.5" y="510.3047"/><text fill="#000000" font-family="sans-serif" font-size="14" lengthAdjust="spacing" textLength="150" x="3579.5" y="517.5332">branches : QComboBox</text><rect fill="none" height="6" style="stroke:#C82930;stroke-width:1.0;" width="6" x="3567.5" y="527.9141"/><text fill="#000000" font-family="sans-serif" font-size="14" lengthAdjust="spacing" textLength="145" x="3579.5" y="535.1426">repo_list : QComboBox</text><rect fill="none" height="6" style="stroke:#C82930;stroke-width:1.0;" width="6" x="3567.5" y="545.5234"/><text fill="#000000" font-family="sans-serif" font-size="14" lengthAdjust="spacing" textLength="206" x="3579.5" y="552.752">new_repo_button : QPushButton</text><rect fill="none" height="6" style="stroke:#C82930;stroke-width:1.0;" width="6" x="3567.5" y="563.1328"/><text fill="#000000" font-family="sans-serif" font-size="14" lengthAdjust="spacing" textLength="220" x="3579.5" y="570.3613">delete_repo_button : QPushButton</text><rect fill="none" height="6" style="stroke:#C82930;stroke-width:1.0;" width="6" x="3567.5" y="580.7422"/><text fill="#000000" font-family="sans-serif" font-size="14" lengthAdjust="spacing" textLength="169" x="3579.5" y="587.9707">searched_path : QLineEdit</text><rect fill="none" height="6" style="stroke:#C82930;stroke-width:1.0;" width="6" x="3567.5" y="598.3516"/><text fill="#000000" font-family="sans-serif" font-size="14" lengthAdjust="spacing" textLength="182" x="3579.5" y="605.5801">searched_author : QLineEdit</text><rect fill="none" height="6" style="stroke:#C82930;stroke-width:1.0;" width="6" x="3567.5" y="615.9609"/><text fill="#000000" font-family="sans-serif" font-size="14" lengthAdjust="spacing" textLength="207" x="3579.5" y="623.1895">slected_framework : QListWidget</text><rect fill="none" height="6" style="stroke:#C82930;stroke-width:1.0;" width="6" x="3567.5" y="633.5703"/><text fill="#000000" font-family="sans-serif" font-size="14" lengthAdjust="spacing" textLength="160" x="3579.5" y="640.7988">from_date_label : QLabel</text><rect fill="none" height="6" style="stroke:#C82930;stroke-width:1.0;" width="6" x="3567.5" y="651.1797"/><text fill="#000000" font-family="sans-serif" font-size="14" lengthAdjust="spacing" textLength="216" x="3579.5" y="658.4082">from_calendar : QCalendarWidget</text><rect fill="none" height="6" style="stroke:#C82930;stroke-width:1.0;" width="6" x="3567.5" y="668.7891"/><text fill="#000000" font-family="sans-serif" font-size="14" lengthAdjust="spacing" textLength="144" x="3579.5" y="676.0176">to_date_label : QLabel</text><rect fill="none" height="6" style="stroke:#C82930;stroke-width:1.0;" width="6" x="3567.5" y="686.3984"/><text fill="#000000" font-family="sans-serif" font-size="14" lengthAdjust="spacing" textLength="199" x="3579.5" y="693.627">to_calendat : QCalendarWidget</text><rect fill="none" height="6" style="stroke:#C82930;stroke-width:1.0;" width="6" x="3567.5" y="704.0078"/><text fill="#000000" font-family="sans-serif" font-size="14" lengthAdjust="spacing" textLength="187" x="3579.5" y="711.2363">search_button : QPushButton</text><line style="stroke:#181818;stroke-width:0.5;" x1="3560.5" x2="3819.5" y1="718.3125" y2="718.3125"/><ellipse cx="3570.5" cy="732.6172" fill="#84BE84" rx="3" ry="3" style="stroke:#038048;stroke-width:1.0;"/><text fill="#000000" font-family="sans-serif" font-size="14" lengthAdjust="spacing" textLength="193" x="3579.5" y="736.8457">setRepos(repos : List&lt;String&gt;)</text><ellipse cx="3570.5" cy="750.2266" fill="#84BE84" rx="3" ry="3" style="stroke:#038048;stroke-width:1.0;"/><text fill="#000000" font-family="sans-serif" font-size="14" lengthAdjust="spacing" textLength="235" x="3579.5" y="754.4551">setBranches(branches : List&lt;String&gt;)</text></g><!--MD5=[8283b49bf57b64d6403c6871ced2d88e]
class NewRepoView--><g id="elem_NewRepoView"><rect codeLine="115" fill="#F1F1F1" height="100.8281" id="NewRepoView" rx="2.5" ry="2.5" style="stroke:#181818;stroke-width:0.5;" width="209" x="2887.5" y="564"/><ellipse cx="2943.25" cy="580" fill="#ADD1B2" rx="11" ry="11" style="stroke:#181818;stroke-width:1.0;"/><path d="M2946.0156,575.875 Q2946.1719,575.6563 2946.3594,575.5469 Q2946.5469,575.4375 2946.7656,575.4375 Q2947.1406,575.4375 2947.375,575.6953 Q2947.6094,575.9531 2947.6094,576.5625 L2947.6094,578.0156 Q2947.6094,578.625 2947.375,578.8906 Q2947.1406,579.1563 2946.7656,579.1563 Q2946.4219,579.1563 2946.2188,578.9531 Q2946.0156,578.7656 2945.9063,578.25 Q2945.8594,577.8906 2945.6719,577.7031 Q2945.3438,577.3281 2944.7344,577.1094 Q2944.125,576.8906 2943.5,576.8906 Q2942.7344,576.8906 2942.1016,577.2188 Q2941.4688,577.5469 2940.9766,578.2969 Q2940.4844,579.0469 2940.4844,580.0781 L2940.4844,581.1719 Q2940.4844,582.4063 2941.375,583.2266 Q2942.2656,584.0469 2943.8594,584.0469 Q2944.7969,584.0469 2945.4531,583.7969 Q2945.8438,583.6406 2946.2656,583.2031 Q2946.5313,582.9375 2946.6797,582.8594 Q2946.8281,582.7813 2947.0313,582.7813 Q2947.3594,582.7813 2947.6172,583.0391 Q2947.875,583.2969 2947.875,583.6406 Q2947.875,583.9844 2947.5313,584.3906 Q2947.0313,584.9688 2946.2344,585.2969 Q2945.1563,585.75 2943.8594,585.75 Q2942.3438,585.75 2941.1406,585.125 Q2940.1563,584.625 2939.4688,583.5547 Q2938.7813,582.4844 2938.7813,581.2031 L2938.7813,580.0469 Q2938.7813,578.7188 2939.3984,577.5703 Q2940.0156,576.4219 2941.1094,575.8047 Q2942.2031,575.1875 2943.4375,575.1875 Q2944.1719,575.1875 2944.8203,575.3516 Q2945.4688,575.5156 2946.0156,575.875 Z " fill="#000000"/><text fill="#000000" font-family="sans-serif" font-size="14" lengthAdjust="spacing" textLength="89" x="2963.75" y="585.7285">NewRepoView</text><line style="stroke:#181818;stroke-width:0.5;" x1="2888.5" x2="3095.5" y1="596" y2="596"/><rect fill="none" height="6" style="stroke:#C82930;stroke-width:1.0;" width="6" x="2895.5" y="607.3047"/><text fill="#000000" font-family="sans-serif" font-size="14" lengthAdjust="spacing" textLength="136" x="2907.5" y="614.5332">new_repo : QLineEdit</text><rect fill="none" height="6" style="stroke:#C82930;stroke-width:1.0;" width="6" x="2895.5" y="624.9141"/><text fill="#000000" font-family="sans-serif" font-size="14" lengthAdjust="spacing" textLength="159" x="2907.5" y="632.1426">ok_button : QPushButton</text><rect fill="none" height="6" style="stroke:#C82930;stroke-width:1.0;" width="6" x="2895.5" y="642.5234"/><text fill="#000000" font-family="sans-serif" font-size="14" lengthAdjust="spacing" textLength="183" x="2907.5" y="649.752">delete_button : QPushButton</text><line style="stroke:#181818;stroke-width:0.5;" x1="2888.5" x2="3095.5" y1="656.8281" y2="656.8281"/></g><!--MD5=[388245a4d28dd375e067b2e75943a2e5]
class TraceVisualizerView--><g id="elem_TraceVisualizerView"><rect codeLine="121" fill="#F1F1F1" height="118.4375" id="TraceVisualizerView" rx="2.5" ry="2.5" style="stroke:#181818;stroke-width:0.5;" width="392" x="3132" y="555.5"/><ellipse cx="3260.75" cy="571.5" fill="#ADD1B2" rx="11" ry="11" style="stroke:#181818;stroke-width:1.0;"/><path d="M3263.5156,567.375 Q3263.6719,567.1563 3263.8594,567.0469 Q3264.0469,566.9375 3264.2656,566.9375 Q3264.6406,566.9375 3264.875,567.1953 Q3265.1094,567.4531 3265.1094,568.0625 L3265.1094,569.5156 Q3265.1094,570.125 3264.875,570.3906 Q3264.6406,570.6563 3264.2656,570.6563 Q3263.9219,570.6563 3263.7188,570.4531 Q3263.5156,570.2656 3263.4063,569.75 Q3263.3594,569.3906 3263.1719,569.2031 Q3262.8438,568.8281 3262.2344,568.6094 Q3261.625,568.3906 3261,568.3906 Q3260.2344,568.3906 3259.6016,568.7188 Q3258.9688,569.0469 3258.4766,569.7969 Q3257.9844,570.5469 3257.9844,571.5781 L3257.9844,572.6719 Q3257.9844,573.9063 3258.875,574.7266 Q3259.7656,575.5469 3261.3594,575.5469 Q3262.2969,575.5469 3262.9531,575.2969 Q3263.3438,575.1406 3263.7656,574.7031 Q3264.0313,574.4375 3264.1797,574.3594 Q3264.3281,574.2813 3264.5313,574.2813 Q3264.8594,574.2813 3265.1172,574.5391 Q3265.375,574.7969 3265.375,575.1406 Q3265.375,575.4844 3265.0313,575.8906 Q3264.5313,576.4688 3263.7344,576.7969 Q3262.6563,577.25 3261.3594,577.25 Q3259.8438,577.25 3258.6406,576.625 Q3257.6563,576.125 3256.9688,575.0547 Q3256.2813,573.9844 3256.2813,572.7031 L3256.2813,571.5469 Q3256.2813,570.2188 3256.8984,569.0703 Q3257.5156,567.9219 3258.6094,567.3047 Q3259.7031,566.6875 3260.9375,566.6875 Q3261.6719,566.6875 3262.3203,566.8516 Q3262.9688,567.0156 3263.5156,567.375 Z " fill="#000000"/><text fill="#000000" font-family="sans-serif" font-size="14" lengthAdjust="spacing" textLength="126" x="3281.25" y="577.2285">TraceVisualizerView</text><line style="stroke:#181818;stroke-width:0.5;" x1="3133" x2="3523" y1="587.5" y2="587.5"/><rect fill="none" height="6" style="stroke:#C82930;stroke-width:1.0;" width="6" x="3140" y="598.8047"/><text fill="#000000" font-family="sans-serif" font-size="14" lengthAdjust="spacing" textLength="213" x="3152" y="606.0332">log_instructions_list : QListWidget</text><rect fill="none" height="6" style="stroke:#C82930;stroke-width:1.0;" width="6" x="3140" y="616.4141"/><text fill="#000000" font-family="sans-serif" font-size="14" lengthAdjust="spacing" textLength="156" x="3152" y="623.6426">graphic : QGraphicsView</text><line style="stroke:#181818;stroke-width:0.5;" x1="3133" x2="3523" y1="630.7188" y2="630.7188"/><ellipse cx="3143" cy="645.0234" fill="#84BE84" rx="3" ry="3" style="stroke:#038048;stroke-width:1.0;"/><text fill="#000000" font-family="sans-serif" font-size="14" lengthAdjust="spacing" textLength="366" x="3152" y="649.252">set_log_instructions(logInstructions : List&lt;LogInstruction&gt;)</text><ellipse cx="3143" cy="662.6328" fill="#84BE84" rx="3" ry="3" style="stroke:#038048;stroke-width:1.0;"/><text fill="#000000" font-family="sans-serif" font-size="14" lengthAdjust="spacing" textLength="240" x="3152" y="666.8613">set_graphic(graphic : QGraphicsView)</text></g><!--MD5=[9ff14242065709841444a690a60a3c45]
reverse link framework to Log4J--><g id="link_framework_Log4J"><path d="M1326.64,1496 C1204.11,1514.16 1062.58,1535.15 942.27,1552.98 " fill="none" id="framework-backto-Log4J" style="stroke:#181818;stroke-width:1.0;stroke-dasharray:7.0,7.0;"/><polygon fill="none" points="1325.72,1489.06,1346.53,1493.05,1327.77,1502.9,1325.72,1489.06" style="stroke:#181818;stroke-width:1.0;"/></g><!--MD5=[2879bcae562d4aa6a14007fe03a239fe]
reverse link framework to Log4P--><g id="link_framework_Log4P"><path d="M1733.46,1500.98 C1773.09,1517.91 1817.13,1536.73 1855.09,1552.95 " fill="none" id="framework-backto-Log4P" style="stroke:#181818;stroke-width:1.0;stroke-dasharray:7.0,7.0;"/><polygon fill="none" points="1730.65,1507.39,1715.01,1493.09,1736.15,1494.52,1730.65,1507.39" style="stroke:#181818;stroke-width:1.0;"/></g><!--MD5=[f6b2a2985ef9700565fd6caf5495fc7e]
reverse link HomeController to HomeView--><g id="link_HomeController_HomeView"><path codeLine="129" d="M2705.6,158.44 C2911.46,181.57 3282.22,246.23 3542,423 C3560.01,435.25 3576.8,450.39 3592.14,466.73 " fill="none" id="HomeController-backto-HomeView" style="stroke:#181818;stroke-width:1.0;"/><polygon fill="none" points="2692.58,157,2698.1094,161.6287,2704.5088,158.3049,2698.9794,153.6762,2692.58,157" style="stroke:#181818;stroke-width:1.0;"/><text fill="#000000" font-family="sans-serif" font-size="13" lengthAdjust="spacing" textLength="7" x="2700.4047" y="154.7102">1</text><text fill="#000000" font-family="sans-serif" font-size="13" lengthAdjust="spacing" textLength="7" x="3579.9136" y="456.2144">1</text></g><!--MD5=[9aa4bbe68bb664ccd94c7768ab57af55]
reverse link HomeController to HomeModel--><g id="link_HomeController_HomeModel"><path codeLine="130" d="M2400.6,193.04 C2257.47,240.52 2040.04,321.27 1867,423 C1812.07,455.29 1756.35,499.61 1712.85,537.38 " fill="none" id="HomeController-backto-HomeModel" style="stroke:#181818;stroke-width:1.0;"/><polygon fill="none" points="2413.35,188.83,2406.3996,186.9085,2401.9527,192.5852,2408.9031,194.5067,2413.35,188.83" style="stroke:#181818;stroke-width:1.0;"/><text fill="#000000" font-family="sans-serif" font-size="13" lengthAdjust="spacing" textLength="7" x="2398.5215" y="188.2809">1</text><text fill="#000000" font-family="sans-serif" font-size="13" lengthAdjust="spacing" textLength="7" x="1713.5626" y="526.5303">1</text></g><!--MD5=[d5422aabca01993ef8fdfebb3000d9e5]
link HomeController to TraceVisualizerView--><g id="link_HomeController_TraceVisualizerView"><path codeLine="131" d="M2692.74,168.39 C2801.37,190.71 2952.23,232.83 3066,308 C3162.97,372.07 3244.55,481.87 3289.79,550.91 " fill="none" id="HomeController-to-TraceVisualizerView" style="stroke:#181818;stroke-width:1.0;stroke-dasharray:7.0,7.0;"/><polygon fill="#181818" points="3292.71,555.4,3291.1461,545.6761,3289.9795,551.2114,3284.4443,550.0449,3292.71,555.4" style="stroke:#181818;stroke-width:1.0;"/></g><!--MD5=[500aa6208658bcd0524f6063b340d107]
link HomeController to TraceVisualizerModel--><g id="link_HomeController_TraceVisualizerModel"><path codeLine="132" d="M2432.59,248.1 C2417.69,266.43 2404.68,286.58 2396,308 C2359.14,398.99 2389.88,517.32 2409.97,576.46 " fill="none" id="HomeController-to-TraceVisualizerModel" style="stroke:#181818;stroke-width:1.0;stroke-dasharray:7.0,7.0;"/><polygon fill="#181818" points="2411.64,581.3,2412.4912,571.488,2410.0118,576.5725,2404.9273,574.0931,2411.64,581.3" style="stroke:#181818;stroke-width:1.0;"/></g><!--MD5=[1b265ae96e7a3d29957e8e548b564e3e]
link HomeController to TraceVisualizerController--><g id="link_HomeController_TraceVisualizerController"><path codeLine="133" d="M2685.66,248.14 C2716.07,271.56 2746.4,294.91 2770.14,313.19 " fill="none" id="HomeController-to-TraceVisualizerController" style="stroke:#181818;stroke-width:1.0;stroke-dasharray:7.0,7.0;"/><polygon fill="#181818" points="2774.19,316.31,2769.4937,307.6529,2770.2263,313.2621,2764.6171,313.9948,2774.19,316.31" style="stroke:#181818;stroke-width:1.0;"/></g><!--MD5=[cb80877f5cf1a9b5a629766372806f2a]
link HomeController to NewRepoView--><g id="link_HomeController_NewRepoView"><path codeLine="134" d="M2692.69,152.13 C2803.16,165.22 2950.87,202.86 3026,308 C3079.02,382.2 3046.1,493.48 3018.35,559.27 " fill="none" id="HomeController-to-NewRepoView" style="stroke:#181818;stroke-width:1.0;stroke-dasharray:7.0,7.0;"/><polygon fill="#181818" points="3016.36,563.92,3023.5642,557.2044,3018.3175,559.3191,3016.2028,554.0724,3016.36,563.92" style="stroke:#181818;stroke-width:1.0;"/></g><!--MD5=[13c746762d625580d375a30c2780db09]
link HomeController to NewRepoModel--><g id="link_HomeController_NewRepoModel"><path codeLine="135" d="M2430.36,248.13 C2370.1,299.4 2297.07,363.19 2234,423 C2179.22,474.95 2119.01,538.64 2082.88,577.62 " fill="none" id="HomeController-to-NewRepoModel" style="stroke:#181818;stroke-width:1.0;stroke-dasharray:7.0,7.0;"/><polygon fill="#181818" points="2079.46,581.32,2088.51,577.4345,2082.8573,577.6515,2082.6404,571.9988,2079.46,581.32" style="stroke:#181818;stroke-width:1.0;"/></g><!--MD5=[83501fea4de216da77353b26b5134ec3]
link HomeController to NewRepoController--><g id="link_HomeController_NewRepoController"><path codeLine="136" d="M2514.02,248.14 C2509.1,267.38 2504.8,286.58 2501.84,302.95 " fill="none" id="HomeController-to-NewRepoController" style="stroke:#181818;stroke-width:1.0;stroke-dasharray:7.0,7.0;"/><polygon fill="#181818" points="2500.97,307.94,2506.4529,299.7585,2501.8267,303.0139,2498.5712,298.3877,2500.97,307.94" style="stroke:#181818;stroke-width:1.0;"/></g><!--MD5=[3e3a23ecaf04c60f8b1138c5673dcbee]
reverse link NewRepoController to HomeController--><g id="link_NewRepoController_HomeController"><path codeLine="140" d="M2526.62,295.58 C2531.34,280.95 2536.04,264.56 2540.27,248.14 " fill="none" id="NewRepoController-backto-HomeController" style="stroke:#181818;stroke-width:1.0;"/><polygon fill="none" points="2522.47,307.94,2528.1682,303.5207,2526.2806,296.5611,2520.5823,300.9804,2522.47,307.94" style="stroke:#181818;stroke-width:1.0;"/><text fill="#000000" font-family="sans-serif" font-size="13" lengthAdjust="spacing" textLength="7" x="2518.4463" y="297.2377">1</text><text fill="#000000" font-family="sans-serif" font-size="13" lengthAdjust="spacing" textLength="7" x="2532.0274" y="270.1392">1</text></g><!--MD5=[b313d68615eb4c68550be3f408ea276d]
reverse link NewRepoController to NewRepoView--><g id="link_NewRepoController_NewRepoView"><path codeLine="138" d="M2567.06,397.71 C2579.79,404.74 2593.4,410.96 2607,415 C2635.03,423.32 2844.57,408.58 2870,423 C2923.64,453.41 2957.37,518.17 2975.44,563.71 " fill="none" id="NewRepoController-backto-NewRepoView" style="stroke:#181818;stroke-width:1.0;"/><polygon fill="none" points="2555.65,391.08,2558.8238,397.5551,2566.0216,397.1158,2562.8477,390.6407,2555.65,391.08" style="stroke:#181818;stroke-width:1.0;"/><text fill="#000000" font-family="sans-serif" font-size="13" lengthAdjust="spacing" textLength="7" x="2557.1217" y="412.7978">1</text><text fill="#000000" font-family="sans-serif" font-size="13" lengthAdjust="spacing" textLength="7" x="2965.6191" y="552.9746">1</text></g><!--MD5=[cb034d2556c0cb97d9f9e8afb01e56ae]
reverse link NewRepoController to NewRepoModel--><g id="link_NewRepoController_NewRepoModel"><path codeLine="139" d="M2399.77,364.74 C2347.6,375.27 2284.5,393.14 2234,423 C2164.34,464.19 2103.49,538.78 2072.27,581.38 " fill="none" id="NewRepoController-backto-NewRepoModel" style="stroke:#181818;stroke-width:1.0;"/><polygon fill="none" points="2412.79,362.22,2406.1387,359.4342,2401.009,364.5023,2407.6603,367.2881,2412.79,362.22" style="stroke:#181818;stroke-width:1.0;"/><text fill="#000000" font-family="sans-serif" font-size="13" lengthAdjust="spacing" textLength="7" x="2397.9087" y="360.1264">1</text><text fill="#000000" font-family="sans-serif" font-size="13" lengthAdjust="spacing" textLength="7" x="2069.1413" y="570.4707">1</text></g><!--MD5=[772c04445e493f915fab86436f0cefa4]
reverse link TraceVisualizerController to TraceVisualizerView--><g id="link_TraceVisualizerController_TraceVisualizerView"><path codeLine="142" d="M3020.68,386.19 C3052.89,395.76 3085.07,407.83 3114,423 C3177.43,456.27 3237.21,512.38 3277.38,555.12 " fill="none" id="TraceVisualizerController-backto-TraceVisualizerView" style="stroke:#181818;stroke-width:1.0;"/><polygon fill="none" points="3007.85,382.51,3012.5086,388.0143,3019.3813,385.831,3014.7227,380.3267,3007.85,382.51" style="stroke:#181818;stroke-width:1.0;"/><text fill="#000000" font-family="sans-serif" font-size="13" lengthAdjust="spacing" textLength="7" x="3015.8591" y="399.3027">1</text><text fill="#000000" font-family="sans-serif" font-size="13" lengthAdjust="spacing" textLength="7" x="3264.1224" y="544.8193">1</text></g><!--MD5=[6ebd19e41af2bcb54b29a3122cd20519]
reverse link TraceVisualizerController to TraceVisualizerModel--><g id="link_TraceVisualizerController_TraceVisualizerModel"><path codeLine="143" d="M2706.84,387.72 C2683.05,397.72 2658.57,409.56 2637,423 C2563.74,468.65 2491.67,540.25 2453.01,581.44 " fill="none" id="TraceVisualizerController-backto-TraceVisualizerModel" style="stroke:#181818;stroke-width:1.0;"/><polygon fill="none" points="2719.19,382.66,2712.1214,381.2335,2708.086,387.2098,2715.1546,388.6362,2719.19,382.66" style="stroke:#181818;stroke-width:1.0;"/><text fill="#000000" font-family="sans-serif" font-size="13" lengthAdjust="spacing" textLength="7" x="2694.3223" y="403.5528">1</text><text fill="#000000" font-family="sans-serif" font-size="13" lengthAdjust="spacing" textLength="7" x="2451.2714" y="570.543">1</text></g><!--MD5=[27f0084aefc26b11ecf56b527c3048c5]
reverse link TraceVisualizerController to HomeView--><g id="link_TraceVisualizerController_HomeView"><path codeLine="144" d="M3021.62,367.04 C3228.21,384.26 3519.29,410.45 3542,423 C3562.34,434.24 3580.82,449.57 3597.29,466.67 " fill="none" id="TraceVisualizerController-backto-HomeView" style="stroke:#181818;stroke-width:1.0;"/><polygon fill="none" points="3008.45,365.94,3014.0946,370.4276,3020.408,366.9431,3014.7634,362.4555,3008.45,365.94" style="stroke:#181818;stroke-width:1.0;"/><text fill="#000000" font-family="sans-serif" font-size="13" lengthAdjust="spacing" textLength="7" x="3016.1043" y="363.7793">1</text><text fill="#000000" font-family="sans-serif" font-size="13" lengthAdjust="spacing" textLength="7" x="3592.6901" y="456.1513">1</text></g><!--MD5=[8539e04dfc72fdd161be1ea9788999cd]
link TraceVisualizerController to CommitWindowView--><g id="link_TraceVisualizerController_CommitWindowView"><path codeLine="145" d="M2808.27,382.75 C2796.53,431.78 2774.24,524.83 2761.86,576.53 " fill="none" id="TraceVisualizerController-to-CommitWindowView" style="stroke:#181818;stroke-width:1.0;stroke-dasharray:7.0,7.0;"/><polygon fill="#181818" points="2760.69,581.4,2766.6617,573.5681,2761.8455,576.5354,2758.8782,571.7192,2760.69,581.4" style="stroke:#181818;stroke-width:1.0;"/></g><!--MD5=[e0fa75ac132777b1dc11988bbacad7ea]
link HomeModel to GlobalModel--><g id="link_HomeModel_GlobalModel"><path codeLine="147" d="M1591.17,691.68 C1570.68,730.87 1545.84,778.37 1525.67,816.95 " fill="none" id="HomeModel-to-GlobalModel" style="stroke:#181818;stroke-width:1.0;stroke-dasharray:7.0,7.0;"/><polygon fill="#181818" points="1523.24,821.61,1530.9535,815.4861,1525.5558,817.1786,1523.8633,811.7809,1523.24,821.61" style="stroke:#181818;stroke-width:1.0;"/></g><!--MD5=[4350eb6ee107dfbc1f7fb61567a7bca5]
link HomeModel to Instructions--><g id="link_HomeModel_Instructions"><path codeLine="148" d="M1690.4,691.77 C1715.6,728.88 1742.1,775.46 1755,822 C1792.37,956.81 1788.52,1007.59 1733,1136 C1724.58,1155.48 1712.46,1174.36 1699.26,1191.54 " fill="none" id="HomeModel-to-Instructions" style="stroke:#181818;stroke-width:1.0;stroke-dasharray:7.0,7.0;"/><polygon fill="#181818" points="1695.88,1195.87,1704.5664,1191.2281,1698.9527,1191.9255,1698.2552,1186.3119,1695.88,1195.87" style="stroke:#181818;stroke-width:1.0;"/></g><!--MD5=[85ac66f3f119c9237e6a3d5c9aa3a16d]
link GlobalModel to DataModel--><g id="link_GlobalModel_DataModel"><path codeLine="150" d="M1535.84,958.05 C1548.7,976.07 1562.55,995.48 1575.23,1013.25 " fill="none" id="GlobalModel-to-DataModel" style="stroke:#181818;stroke-width:1.0;stroke-dasharray:7.0,7.0;"/><polygon fill="#181818" points="1578.43,1017.74,1576.4666,1008.0888,1575.5292,1013.6675,1569.9506,1012.7301,1578.43,1017.74" style="stroke:#181818;stroke-width:1.0;"/></g><!--MD5=[0429f2612ae119dee6c4d6f97266989b]
link GlobalModel to Instructions--><g id="link_GlobalModel_Instructions"><path codeLine="151" d="M1482.46,958.23 C1480.79,1008.91 1483.95,1079.17 1507,1136 C1514.92,1155.54 1526.73,1174.38 1539.76,1191.49 " fill="none" id="GlobalModel-to-Instructions" style="stroke:#181818;stroke-width:1.0;stroke-dasharray:7.0,7.0;"/><polygon fill="#181818" points="1543.1,1195.81,1540.7415,1186.2477,1540.0342,1191.8602,1534.4218,1191.1529,1543.1,1195.81" style="stroke:#181818;stroke-width:1.0;"/></g><!--MD5=[fe44111dbef61e77a05f992b84e9e37d]
reverse link DataModel to Instructions--><g id="link_DataModel_Instructions"><path codeLine="153" d="M1620,1149.27 C1620,1164.44 1620,1180.52 1620,1195.87 " fill="none" id="DataModel-backto-Instructions" style="stroke:#181818;stroke-width:1.0;"/><polygon fill="none" points="1620,1136.21,1616,1142.21,1620,1148.21,1624,1142.21,1620,1136.21" style="stroke:#181818;stroke-width:1.0;"/><text fill="#000000" font-family="sans-serif" font-size="13" lengthAdjust="spacing" textLength="7" x="1612.5734" y="1157.8911">1</text><text fill="#000000" font-family="sans-serif" font-size="13" lengthAdjust="spacing" textLength="7" x="1612.6555" y="1185.0194">1</text></g><!--MD5=[d4afc868c56245ffb7ef75ee9ec3b053]
reverse link LogInstruction to Modification--><g id="link_LogInstruction_Modification"><path codeLine="155" d="M1422,1810.43 C1422,1825.26 1422,1841.3 1422,1856.9 " fill="none" id="LogInstruction-backto-Modification" style="stroke:#181818;stroke-width:1.0;"/><polygon fill="none" points="1422,1797.21,1418,1803.21,1422,1809.21,1426,1803.21,1422,1797.21" style="stroke:#181818;stroke-width:1.0;"/><text fill="#000000" font-family="sans-serif" font-size="13" lengthAdjust="spacing" textLength="7" x="1414.5516" y="1818.2609">1</text><text fill="#000000" font-family="sans-serif" font-size="13" lengthAdjust="spacing" textLength="20" x="1401.1094" y="1846.0627">1..*</text></g><!--MD5=[f1b5cab182924e6a35b47b54dbf864b5]
reverse link Instructions to framework--><g id="link_Instructions_framework"><path codeLine="157" d="M1620,1363.2 C1620,1379.53 1620,1395.82 1620,1409.83 " fill="none" id="Instructions-backto-framework" style="stroke:#181818;stroke-width:1.0;"/><polygon fill="none" points="1620,1350.13,1616,1356.13,1620,1362.13,1624,1356.13,1620,1350.13" style="stroke:#181818;stroke-width:1.0;"/><text fill="#000000" font-family="sans-serif" font-size="13" lengthAdjust="spacing" textLength="7" x="1612.6883" y="1371.238">1</text><text fill="#000000" font-family="sans-serif" font-size="13" lengthAdjust="spacing" textLength="5" x="1614.5859" y="1399.1095">*</text></g><!--MD5=[9edb9a131f737ea42bf6dd03d8b05cfc]
link Log4J to LogInstruction--><g id="link_Log4J_LogInstruction"><path codeLine="159" d="M872.77,1636.09 C995.95,1660.63 1150.61,1691.44 1264.4,1714.11 " fill="none" id="Log4J-to-LogInstruction" style="stroke:#181818;stroke-width:1.0;stroke-dasharray:7.0,7.0;"/><polygon fill="#181818" points="1269.45,1715.11,1261.3997,1709.4362,1264.5455,1714.1377,1259.844,1717.2834,1269.45,1715.11" style="stroke:#181818;stroke-width:1.0;"/></g><!--MD5=[0de1a61cc01263ba53f9b353fdc3e940]
link Log4J to Modification--><g id="link_Log4J_Modification"><path codeLine="160" d="M757.22,1636.04 C904.18,1703.56 1197.01,1838.12 1339.84,1903.75 " fill="none" id="Log4J-to-Modification" style="stroke:#181818;stroke-width:1.0;stroke-dasharray:7.0,7.0;"/><polygon fill="#181818" points="1344.44,1905.86,1337.949,1898.4528,1339.9015,1903.762,1334.5922,1905.7144,1344.44,1905.86" style="stroke:#181818;stroke-width:1.0;"/></g><!--MD5=[ad04f5934e014b4a3b4f1dd62ac96121]
link Log4P to LogInstruction--><g id="link_Log4P_LogInstruction"><path codeLine="162" d="M1807.12,1636.09 C1736.88,1656.05 1652.04,1680.15 1579.88,1700.65 " fill="none" id="Log4P-to-LogInstruction" style="stroke:#181818;stroke-width:1.0;stroke-dasharray:7.0,7.0;"/><polygon fill="#181818" points="1574.71,1702.12,1584.4626,1703.4936,1579.5176,1700.7464,1582.2648,1695.8014,1574.71,1702.12" style="stroke:#181818;stroke-width:1.0;"/></g><!--MD5=[2ea44640e932540b86485cfc84836fdd]
link Log4P to Modification--><g id="link_Log4P_Modification"><path codeLine="163" d="M1888.14,1636.04 C1792.92,1698.43 1610.36,1818.07 1504.16,1887.66 " fill="none" id="Log4P-to-Modification" style="stroke:#181818;stroke-width:1.0;stroke-dasharray:7.0,7.0;"/><polygon fill="#181818" points="1499.79,1890.53,1509.5101,1888.9428,1503.9721,1887.7895,1505.1254,1882.2515,1499.79,1890.53" style="stroke:#181818;stroke-width:1.0;"/></g><!--MD5=[2dc43dea71b16bcd1498a50526a2c00c]
@startuml class
package controller {
    class HomeController{
        - search_button_clicked()
        - validate_date_range()
        - update_from_date()
        - update_to_date()
        - new_repo_button_clicked()
        - update_repo_list()
        - update_branch_list()
        - delete_repo_button_clicked()
        - create_directory(directory_path : String)
    }
    class NewRepoController{
        -  ok_button_clicked()
        - cancel_button_clicked()
    }

    class TraceVisualizerController{
        - show_commit_changes(item : QTCore.QT.ItemDataRole)
    }
}

package model {

    package frameworks{
        interface framework{
            + get_logs(): List<LogInstruction>
            + add_logs(logs : List<LogInstruction>, instruction : String, newInstruction : String, type : String, date : DateTime, source_code_before : String, source_code : String, hash : String, filename : String)
        }
        class Log4J implements framework{
            + get_logs() : List<LogInstruction>
            + add_logs(logs : List<LogInstruction>, instruction : String, newInstruction : String, type : String, date : DateTime, source_code_before : String, source_code : String, hash : String, filename : String)
        }
        class Log4P implements framework{
            + get_logs() : List<LogInstruction>
            + add_logs(logs : List<LogInstruction>, instruction : String, newInstruction : String, type : String, date : DateTime, source_code_before : String, source_code : String, hash : String, filename : String)
        }
    }

    class DataModel{
        - repo : Stirng
        - branch : String
        - commits : List<Commit>
        - logs : List<LogInstruction>
    }

    class GlobalModel{
        - repos : Dictionnary<String, List<String>>
        + get_repo_branch(repo : String, branch : String)
        + add_repos_branch(repo : String, branch : String, instructions : Instructions)
        + remove_repo(repo : String)
        + remove_repo_branch(repo : String, branch : String)
    }
    class HomeModel{
        - added_log_instructions : List<Dictionnary<String, List<String>>>
        - deleted_log_instructions : List<Dictionnary<String, List<String>>>
        + get_repos(repo_path : String) : list<String>
        + git_pull(repo_path : String)
        + delete_repo(path : String)
        + get_branches(repo_path : String) : list<String>
    }
    class Instructions{
        - dates : List<DateTime>
        - frameworks : List<String>
        - file_types : List<String>
        - path : String
        - authors : List<String>
        + set_frameworks(frameworks : List<String>)
    }
    class LogInstruction{
        - instruction : String
        - date : DateTime
        + add_modification(modification : Modification)
    }
    class Modification{
        - commit : Commit
        - date : DateTime
        - type : String
        - before_code : String
        - after_code : String
        - hash : String
        - file_name : String
    }
    class NewRepoModel{
        + clone_repo(repo_url : String, repo_path : String)
    }
    class TraceVisualizerModel{
        + get_commit_changes(commits : List<modification>)
    }
}


package view {
    class CommitWindowView{
        - code_table : QTableWidget
    }

    class HomeView {
        - branches : QComboBox
        - repo_list : QComboBox
        - new_repo_button : QPushButton
        - delete_repo_button : QPushButton
        - searched_path : QLineEdit
        - searched_author : QLineEdit
        - slected_framework : QListWidget
        - from_date_label : QLabel
        - from_calendar : QCalendarWidget
        - to_date_label : QLabel
        - to_calendat : QCalendarWidget
        - search_button : QPushButton
        + setRepos(repos : List<String>)
        + setBranches(branches : List<String>)
    }

    class NewRepoView{
        - new_repo : QLineEdit
        - ok_button : QPushButton
        - delete_button : QPushButton
    }

    class TraceVisualizerView{
        - log_instructions_list : QListWidget
        - graphic : QGraphicsView
        + set_log_instructions(logInstructions : List<LogInstruction>)
        + set_graphic(graphic : QGraphicsView)
    }
}

HomeController "1" o- - "1" HomeView
HomeController "1" o- - "1" HomeModel
HomeController ..> TraceVisualizerView
HomeController ..> TraceVisualizerModel
HomeController ..> TraceVisualizerController
HomeController ..> NewRepoView
HomeController ..> NewRepoModel
HomeController ..> NewRepoController

NewRepoController "1" o- - "1" NewRepoView
NewRepoController "1" o- - "1" NewRepoModel
NewRepoController "1" o- - "1" HomeController

TraceVisualizerController "1" o- - "1" TraceVisualizerView
TraceVisualizerController "1" o- - "1" TraceVisualizerModel
TraceVisualizerController "1" o- - "1" HomeView
TraceVisualizerController ..> CommitWindowView

HomeModel ..> GlobalModel
HomeModel ..> Instructions

GlobalModel ..> DataModel
GlobalModel ..> Instructions

DataModel "1" o- - "1" Instructions

LogInstruction "1" o- - "1..*" Modification

Instructions "1" o- - "*" framework

Log4J ..> LogInstruction
Log4J ..> Modification

Log4P ..> LogInstruction
Log4P..> Modification
@enduml

PlantUML version 1.2022.7(Mon Aug 22 13:01:30 EDT 2022)
(GPL source distribution)
Java Runtime: Java(TM) SE Runtime Environment
JVM: Java HotSpot(TM) Client VM
Default Encoding: Cp1252
Language: en
Country: US
--></g></svg>