<?xml version="1.0" encoding="UTF-8" standalone="no"?><svg xmlns="http://www.w3.org/2000/svg" xmlns:xlink="http://www.w3.org/1999/xlink" contentStyleType="text/css" height="992px" preserveAspectRatio="none" style="width:3436px;height:992px;background:#FFFFFF;" version="1.1" viewBox="0 0 3436 992" width="3436px" zoomAndPan="magnify"><defs/><g><!--MD5=[10ea673caf457862023e152271927b45]
cluster controller--><g id="cluster_controller"><path d="M1408.5,6 L1478.5,6 A3.75,3.75 0 0 1 1481,8.5 L1488,29.6094 L2203.5,29.6094 A2.5,2.5 0 0 1 2206,32.1094 L2206,281.5 A2.5,2.5 0 0 1 2203.5,284 L1408.5,284 A2.5,2.5 0 0 1 1406,281.5 L1406,8.5 A2.5,2.5 0 0 1 1408.5,6 " fill="none" style="stroke:#000000;stroke-width:1.5;"/><line style="stroke:#000000;stroke-width:1.5;" x1="1406" x2="1488" y1="29.6094" y2="29.6094"/><text fill="#000000" font-family="sans-serif" font-size="14" font-weight="bold" lengthAdjust="spacing" textLength="69" x="1410" y="22.5332">controller</text></g><!--MD5=[5d4cd377749310b66bf14896f5cd8d9b]
cluster model--><g id="cluster_model"><path d="M8.5,308 L52.5,308 A3.75,3.75 0 0 1 55,310.5 L62,331.6094 L2350.5,331.6094 A2.5,2.5 0 0 1 2353,334.1094 L2353,982.5 A2.5,2.5 0 0 1 2350.5,985 L8.5,985 A2.5,2.5 0 0 1 6,982.5 L6,310.5 A2.5,2.5 0 0 1 8.5,308 " fill="none" style="stroke:#000000;stroke-width:1.5;"/><line style="stroke:#000000;stroke-width:1.5;" x1="6" x2="62" y1="331.6094" y2="331.6094"/><text fill="#000000" font-family="sans-serif" font-size="14" font-weight="bold" lengthAdjust="spacing" textLength="43" x="10" y="324.5332">model</text></g><!--MD5=[93aca6391243a7ec2c9e8eb350c17842]
cluster GraphBuilders--><g id="cluster_GraphBuilders"><path d="M1810.5,352 L1913.5,352 A3.75,3.75 0 0 1 1916,354.5 L1923,375.6094 L2326.5,375.6094 A2.5,2.5 0 0 1 2329,378.1094 L2329,689.5 A2.5,2.5 0 0 1 2326.5,692 L1810.5,692 A2.5,2.5 0 0 1 1808,689.5 L1808,354.5 A2.5,2.5 0 0 1 1810.5,352 " fill="none" style="stroke:#000000;stroke-width:1.5;"/><line style="stroke:#000000;stroke-width:1.5;" x1="1808" x2="1923" y1="375.6094" y2="375.6094"/><text fill="#000000" font-family="sans-serif" font-size="14" font-weight="bold" lengthAdjust="spacing" textLength="102" x="1812" y="368.5332">GraphBuilders</text></g><!--MD5=[69c1e447a2abbf73a81ee99126eb94a3]
cluster LogInstructionCollectors--><g id="cluster_LogInstructionCollectors"><path d="M1212.5,378 L1387.5,378 A3.75,3.75 0 0 1 1390,380.5 L1397,401.6094 L1781.5,401.6094 A2.5,2.5 0 0 1 1784,404.1094 L1784,958.5 A2.5,2.5 0 0 1 1781.5,961 L1212.5,961 A2.5,2.5 0 0 1 1210,958.5 L1210,380.5 A2.5,2.5 0 0 1 1212.5,378 " fill="none" style="stroke:#000000;stroke-width:1.5;"/><line style="stroke:#000000;stroke-width:1.5;" x1="1210" x2="1397" y1="401.6094" y2="401.6094"/><text fill="#000000" font-family="sans-serif" font-size="14" font-weight="bold" lengthAdjust="spacing" textLength="174" x="1214" y="394.5332">LogInstructionCollectors</text></g><!--MD5=[cdb75225ade8d073128a2cc57595953f]
cluster LogInstructionFileGenerators--><g id="cluster_LogInstructionFileGenerators"><path d="M826.5,378 L1035.5,378 A3.75,3.75 0 0 1 1038,380.5 L1045,401.6094 L1183.5,401.6094 A2.5,2.5 0 0 1 1186,404.1094 L1186,672 A2.5,2.5 0 0 1 1183.5,674.5 L826.5,674.5 A2.5,2.5 0 0 1 824,672 L824,380.5 A2.5,2.5 0 0 1 826.5,378 " fill="none" style="stroke:#000000;stroke-width:1.5;"/><line style="stroke:#000000;stroke-width:1.5;" x1="824" x2="1045" y1="401.6094" y2="401.6094"/><text fill="#000000" font-family="sans-serif" font-size="14" font-weight="bold" lengthAdjust="spacing" textLength="208" x="828" y="394.5332">LogInstructionFileGenerators</text></g><!--MD5=[86cbce8df1eb9d604fbbb2fa357940f8]
cluster view--><g id="cluster_view"><path d="M2379.5,369.5 L2413.5,369.5 A3.75,3.75 0 0 1 2416,372 L2423,393.1094 L3426.5,393.1094 A2.5,2.5 0 0 1 3429,395.6094 L3429,502 A2.5,2.5 0 0 1 3426.5,504.5 L2379.5,504.5 A2.5,2.5 0 0 1 2377,502 L2377,372 A2.5,2.5 0 0 1 2379.5,369.5 " fill="none" style="stroke:#000000;stroke-width:1.5;"/><line style="stroke:#000000;stroke-width:1.5;" x1="2377" x2="2423" y1="393.1094" y2="393.1094"/><text fill="#000000" font-family="sans-serif" font-size="14" font-weight="bold" lengthAdjust="spacing" textLength="33" x="2381" y="386.0332">view</text></g><!--MD5=[3f908ccd3a2056432adfb9e2b53696ab]
class HomeController--><g id="elem_HomeController"><rect codeLine="2" fill="#F1F1F1" height="48" id="HomeController" rx="2.5" ry="2.5" style="stroke:#181818;stroke-width:0.5;" width="130" x="1644" y="42"/><ellipse cx="1659" cy="58" fill="#ADD1B2" rx="11" ry="11" style="stroke:#181818;stroke-width:1.0;"/><path d="M1661.7656,53.875 Q1661.9219,53.6563 1662.1094,53.5469 Q1662.2969,53.4375 1662.5156,53.4375 Q1662.8906,53.4375 1663.125,53.6953 Q1663.3594,53.9531 1663.3594,54.5625 L1663.3594,56.0156 Q1663.3594,56.625 1663.125,56.8906 Q1662.8906,57.1563 1662.5156,57.1563 Q1662.1719,57.1563 1661.9688,56.9531 Q1661.7656,56.7656 1661.6563,56.25 Q1661.6094,55.8906 1661.4219,55.7031 Q1661.0938,55.3281 1660.4844,55.1094 Q1659.875,54.8906 1659.25,54.8906 Q1658.4844,54.8906 1657.8516,55.2188 Q1657.2188,55.5469 1656.7266,56.2969 Q1656.2344,57.0469 1656.2344,58.0781 L1656.2344,59.1719 Q1656.2344,60.4063 1657.125,61.2266 Q1658.0156,62.0469 1659.6094,62.0469 Q1660.5469,62.0469 1661.2031,61.7969 Q1661.5938,61.6406 1662.0156,61.2031 Q1662.2813,60.9375 1662.4297,60.8594 Q1662.5781,60.7813 1662.7813,60.7813 Q1663.1094,60.7813 1663.3672,61.0391 Q1663.625,61.2969 1663.625,61.6406 Q1663.625,61.9844 1663.2813,62.3906 Q1662.7813,62.9688 1661.9844,63.2969 Q1660.9063,63.75 1659.6094,63.75 Q1658.0938,63.75 1656.8906,63.125 Q1655.9063,62.625 1655.2188,61.5547 Q1654.5313,60.4844 1654.5313,59.2031 L1654.5313,58.0469 Q1654.5313,56.7188 1655.1484,55.5703 Q1655.7656,54.4219 1656.8594,53.8047 Q1657.9531,53.1875 1659.1875,53.1875 Q1659.9219,53.1875 1660.5703,53.3516 Q1661.2188,53.5156 1661.7656,53.875 Z " fill="#000000"/><text fill="#000000" font-family="sans-serif" font-size="14" lengthAdjust="spacing" textLength="98" x="1673" y="63.7285">HomeController</text><line style="stroke:#181818;stroke-width:0.5;" x1="1645" x2="1773" y1="74" y2="74"/><line style="stroke:#181818;stroke-width:0.5;" x1="1645" x2="1773" y1="82" y2="82"/></g><!--MD5=[624fda96084990f474dbb692f3ed956d]
class TraceVisualizerController--><g id="elem_TraceVisualizerController"><rect codeLine="3" fill="#F1F1F1" height="118.4375" id="TraceVisualizerController" rx="2.5" ry="2.5" style="stroke:#181818;stroke-width:0.5;" width="559" x="1630.5" y="150"/><ellipse cx="1826.25" cy="166" fill="#ADD1B2" rx="11" ry="11" style="stroke:#181818;stroke-width:1.0;"/><path d="M1829.0156,161.875 Q1829.1719,161.6563 1829.3594,161.5469 Q1829.5469,161.4375 1829.7656,161.4375 Q1830.1406,161.4375 1830.375,161.6953 Q1830.6094,161.9531 1830.6094,162.5625 L1830.6094,164.0156 Q1830.6094,164.625 1830.375,164.8906 Q1830.1406,165.1563 1829.7656,165.1563 Q1829.4219,165.1563 1829.2188,164.9531 Q1829.0156,164.7656 1828.9063,164.25 Q1828.8594,163.8906 1828.6719,163.7031 Q1828.3438,163.3281 1827.7344,163.1094 Q1827.125,162.8906 1826.5,162.8906 Q1825.7344,162.8906 1825.1016,163.2188 Q1824.4688,163.5469 1823.9766,164.2969 Q1823.4844,165.0469 1823.4844,166.0781 L1823.4844,167.1719 Q1823.4844,168.4063 1824.375,169.2266 Q1825.2656,170.0469 1826.8594,170.0469 Q1827.7969,170.0469 1828.4531,169.7969 Q1828.8438,169.6406 1829.2656,169.2031 Q1829.5313,168.9375 1829.6797,168.8594 Q1829.8281,168.7813 1830.0313,168.7813 Q1830.3594,168.7813 1830.6172,169.0391 Q1830.875,169.2969 1830.875,169.6406 Q1830.875,169.9844 1830.5313,170.3906 Q1830.0313,170.9688 1829.2344,171.2969 Q1828.1563,171.75 1826.8594,171.75 Q1825.3438,171.75 1824.1406,171.125 Q1823.1563,170.625 1822.4688,169.5547 Q1821.7813,168.4844 1821.7813,167.2031 L1821.7813,166.0469 Q1821.7813,164.7188 1822.3984,163.5703 Q1823.0156,162.4219 1824.1094,161.8047 Q1825.2031,161.1875 1826.4375,161.1875 Q1827.1719,161.1875 1827.8203,161.3516 Q1828.4688,161.5156 1829.0156,161.875 Z " fill="#000000"/><text fill="#000000" font-family="sans-serif" font-size="14" lengthAdjust="spacing" textLength="159" x="1846.75" y="171.7285">TraceVisualizerController</text><line style="stroke:#181818;stroke-width:0.5;" x1="1631.5" x2="2188.5" y1="182" y2="182"/><rect fill="none" height="6" style="stroke:#C82930;stroke-width:1.0;" width="6" x="1638.5" y="193.3047"/><text fill="#000000" font-family="sans-serif" font-size="14" lengthAdjust="spacing" textLength="329" x="1650.5" y="200.5332">strategy_collector : LogInstructionCollectorsStrategy</text><rect fill="none" height="6" style="stroke:#C82930;stroke-width:1.0;" width="6" x="1638.5" y="210.9141"/><text fill="#000000" font-family="sans-serif" font-size="14" lengthAdjust="spacing" textLength="396" x="1650.5" y="218.1426">strategy_generator_file : LogInstructionFileGeneratorsStrategy</text><line style="stroke:#181818;stroke-width:0.5;" x1="1631.5" x2="2188.5" y1="225.2188" y2="225.2188"/><rect fill="#F24D5C" height="6" style="stroke:#C82930;stroke-width:1.0;" width="6" x="1638.5" y="236.5234"/><text fill="#000000" font-family="sans-serif" font-size="14" lengthAdjust="spacing" textLength="466" x="1650.5" y="243.752">set_strategy_collector(strategy : String) : LogInstructionCollectorsStrategy</text><rect fill="#F24D5C" height="6" style="stroke:#C82930;stroke-width:1.0;" width="6" x="1638.5" y="254.1328"/><text fill="#000000" font-family="sans-serif" font-size="14" lengthAdjust="spacing" textLength="533" x="1650.5" y="261.3613">set_strategy_generator_file(strategy : String) : LogInstructionFileGeneratorsStrategy</text></g><!--MD5=[1f0ad5f0d1fa1a6c0560668d4d92649b]
class NewRepoController--><g id="elem_NewRepoController"><rect codeLine="10" fill="#F1F1F1" height="65.6094" id="NewRepoController" rx="2.5" ry="2.5" style="stroke:#181818;stroke-width:0.5;" width="173" x="1422.5" y="176"/><ellipse cx="1446.05" cy="192" fill="#ADD1B2" rx="11" ry="11" style="stroke:#181818;stroke-width:1.0;"/><path d="M1448.8156,187.875 Q1448.9719,187.6563 1449.1594,187.5469 Q1449.3469,187.4375 1449.5656,187.4375 Q1449.9406,187.4375 1450.175,187.6953 Q1450.4094,187.9531 1450.4094,188.5625 L1450.4094,190.0156 Q1450.4094,190.625 1450.175,190.8906 Q1449.9406,191.1563 1449.5656,191.1563 Q1449.2219,191.1563 1449.0188,190.9531 Q1448.8156,190.7656 1448.7063,190.25 Q1448.6594,189.8906 1448.4719,189.7031 Q1448.1438,189.3281 1447.5344,189.1094 Q1446.925,188.8906 1446.3,188.8906 Q1445.5344,188.8906 1444.9016,189.2188 Q1444.2688,189.5469 1443.7766,190.2969 Q1443.2844,191.0469 1443.2844,192.0781 L1443.2844,193.1719 Q1443.2844,194.4063 1444.175,195.2266 Q1445.0656,196.0469 1446.6594,196.0469 Q1447.5969,196.0469 1448.2531,195.7969 Q1448.6438,195.6406 1449.0656,195.2031 Q1449.3313,194.9375 1449.4797,194.8594 Q1449.6281,194.7813 1449.8313,194.7813 Q1450.1594,194.7813 1450.4172,195.0391 Q1450.675,195.2969 1450.675,195.6406 Q1450.675,195.9844 1450.3313,196.3906 Q1449.8313,196.9688 1449.0344,197.2969 Q1447.9563,197.75 1446.6594,197.75 Q1445.1438,197.75 1443.9406,197.125 Q1442.9563,196.625 1442.2688,195.5547 Q1441.5813,194.4844 1441.5813,193.2031 L1441.5813,192.0469 Q1441.5813,190.7188 1442.1984,189.5703 Q1442.8156,188.4219 1443.9094,187.8047 Q1445.0031,187.1875 1446.2375,187.1875 Q1446.9719,187.1875 1447.6203,187.3516 Q1448.2688,187.5156 1448.8156,187.875 Z " fill="#000000"/><text fill="#000000" font-family="sans-serif" font-size="14" lengthAdjust="spacing" textLength="122" x="1461.95" y="197.7285">NewRepoController</text><line style="stroke:#181818;stroke-width:0.5;" x1="1423.5" x2="1594.5" y1="208" y2="208"/><rect fill="none" height="6" style="stroke:#C82930;stroke-width:1.0;" width="6" x="1430.5" y="219.3047"/><text fill="#000000" font-family="sans-serif" font-size="14" lengthAdjust="spacing" textLength="147" x="1442.5" y="226.5332">home_view : HomeView</text><line style="stroke:#181818;stroke-width:0.5;" x1="1423.5" x2="1594.5" y1="233.6094" y2="233.6094"/></g><!--MD5=[2e427409284e4192b674167e2f40184d]
class LogInstructionDiffGenerator--><g id="elem_LogInstructionDiffGenerator"><rect codeLine="17" fill="#F1F1F1" height="65.6094" id="LogInstructionDiffGenerator" rx="2.5" ry="2.5" style="stroke:#181818;stroke-width:0.5;" width="433" x="372.5" y="414"/><ellipse cx="497.25" cy="430" fill="#ADD1B2" rx="11" ry="11" style="stroke:#181818;stroke-width:1.0;"/><path d="M500.0156,425.875 Q500.1719,425.6563 500.3594,425.5469 Q500.5469,425.4375 500.7656,425.4375 Q501.1406,425.4375 501.375,425.6953 Q501.6094,425.9531 501.6094,426.5625 L501.6094,428.0156 Q501.6094,428.625 501.375,428.8906 Q501.1406,429.1563 500.7656,429.1563 Q500.4219,429.1563 500.2188,428.9531 Q500.0156,428.7656 499.9063,428.25 Q499.8594,427.8906 499.6719,427.7031 Q499.3438,427.3281 498.7344,427.1094 Q498.125,426.8906 497.5,426.8906 Q496.7344,426.8906 496.1016,427.2188 Q495.4688,427.5469 494.9766,428.2969 Q494.4844,429.0469 494.4844,430.0781 L494.4844,431.1719 Q494.4844,432.4063 495.375,433.2266 Q496.2656,434.0469 497.8594,434.0469 Q498.7969,434.0469 499.4531,433.7969 Q499.8438,433.6406 500.2656,433.2031 Q500.5313,432.9375 500.6797,432.8594 Q500.8281,432.7813 501.0313,432.7813 Q501.3594,432.7813 501.6172,433.0391 Q501.875,433.2969 501.875,433.6406 Q501.875,433.9844 501.5313,434.3906 Q501.0313,434.9688 500.2344,435.2969 Q499.1563,435.75 497.8594,435.75 Q496.3438,435.75 495.1406,435.125 Q494.1563,434.625 493.4688,433.5547 Q492.7813,432.4844 492.7813,431.2031 L492.7813,430.0469 Q492.7813,428.7188 493.3984,427.5703 Q494.0156,426.4219 495.1094,425.8047 Q496.2031,425.1875 497.4375,425.1875 Q498.1719,425.1875 498.8203,425.3516 Q499.4688,425.5156 500.0156,425.875 Z " fill="#000000"/><text fill="#000000" font-family="sans-serif" font-size="14" lengthAdjust="spacing" textLength="175" x="517.75" y="435.7285">LogInstructionDiffGenerator</text><line style="stroke:#181818;stroke-width:0.5;" x1="373.5" x2="804.5" y1="446" y2="446"/><line style="stroke:#181818;stroke-width:0.5;" x1="373.5" x2="804.5" y1="454" y2="454"/><ellipse cx="383.5" cy="468.3047" fill="#84BE84" rx="3" ry="3" style="stroke:#038048;stroke-width:1.0;"/><text fill="#000000" font-family="sans-serif" font-size="14" lengthAdjust="spacing" textLength="407" x="392.5" y="472.5332">getCommitChanges(commits : List&lt;Commit&gt;) : List&lt;Modification&gt;</text></g><!--MD5=[32206ff2be32f597e6f8bddc11836e68]
class ReposManager--><g id="elem_ReposManager"><rect codeLine="20" fill="#F1F1F1" height="136.0469" id="ReposManager" rx="2.5" ry="2.5" style="stroke:#181818;stroke-width:0.5;" width="315" x="22.5" y="379"/><ellipse cx="127.25" cy="395" fill="#ADD1B2" rx="11" ry="11" style="stroke:#181818;stroke-width:1.0;"/><path d="M130.0156,390.875 Q130.1719,390.6563 130.3594,390.5469 Q130.5469,390.4375 130.7656,390.4375 Q131.1406,390.4375 131.375,390.6953 Q131.6094,390.9531 131.6094,391.5625 L131.6094,393.0156 Q131.6094,393.625 131.375,393.8906 Q131.1406,394.1563 130.7656,394.1563 Q130.4219,394.1563 130.2188,393.9531 Q130.0156,393.7656 129.9063,393.25 Q129.8594,392.8906 129.6719,392.7031 Q129.3438,392.3281 128.7344,392.1094 Q128.125,391.8906 127.5,391.8906 Q126.7344,391.8906 126.1016,392.2188 Q125.4688,392.5469 124.9766,393.2969 Q124.4844,394.0469 124.4844,395.0781 L124.4844,396.1719 Q124.4844,397.4063 125.375,398.2266 Q126.2656,399.0469 127.8594,399.0469 Q128.7969,399.0469 129.4531,398.7969 Q129.8438,398.6406 130.2656,398.2031 Q130.5313,397.9375 130.6797,397.8594 Q130.8281,397.7813 131.0313,397.7813 Q131.3594,397.7813 131.6172,398.0391 Q131.875,398.2969 131.875,398.6406 Q131.875,398.9844 131.5313,399.3906 Q131.0313,399.9688 130.2344,400.2969 Q129.1563,400.75 127.8594,400.75 Q126.3438,400.75 125.1406,400.125 Q124.1563,399.625 123.4688,398.5547 Q122.7813,397.4844 122.7813,396.2031 L122.7813,395.0469 Q122.7813,393.7188 123.3984,392.5703 Q124.0156,391.4219 125.1094,390.8047 Q126.2031,390.1875 127.4375,390.1875 Q128.1719,390.1875 128.8203,390.3516 Q129.4688,390.5156 130.0156,390.875 Z " fill="#000000"/><text fill="#000000" font-family="sans-serif" font-size="14" lengthAdjust="spacing" textLength="97" x="147.75" y="400.7285">ReposManager</text><line style="stroke:#181818;stroke-width:0.5;" x1="23.5" x2="336.5" y1="411" y2="411"/><line style="stroke:#181818;stroke-width:0.5;" x1="23.5" x2="336.5" y1="419" y2="419"/><ellipse cx="33.5" cy="433.3047" fill="#84BE84" rx="3" ry="3" style="stroke:#038048;stroke-width:1.0;"/><text fill="#000000" font-family="sans-serif" font-size="14" lengthAdjust="spacing" textLength="226" x="42.5" y="437.5332">get_repos(main_repo_path : String)</text><ellipse cx="33.5" cy="450.9141" fill="#84BE84" rx="3" ry="3" style="stroke:#038048;stroke-width:1.0;"/><text fill="#000000" font-family="sans-serif" font-size="14" lengthAdjust="spacing" textLength="161" x="42.5" y="455.1426">git_pull(repo_path:String)</text><ellipse cx="33.5" cy="468.5234" fill="#84BE84" rx="3" ry="3" style="stroke:#038048;stroke-width:1.0;"/><text fill="#000000" font-family="sans-serif" font-size="14" lengthAdjust="spacing" textLength="192" x="42.5" y="472.752">delete_repo(repo_path:String)</text><ellipse cx="33.5" cy="486.1328" fill="#84BE84" rx="3" ry="3" style="stroke:#038048;stroke-width:1.0;"/><text fill="#000000" font-family="sans-serif" font-size="14" lengthAdjust="spacing" textLength="204" x="42.5" y="490.3613">getBranches(repo_path : String)</text><ellipse cx="33.5" cy="503.7422" fill="#84BE84" rx="3" ry="3" style="stroke:#038048;stroke-width:1.0;"/><text fill="#000000" font-family="sans-serif" font-size="14" lengthAdjust="spacing" textLength="289" x="42.5" y="507.9707">clone_repo(repo_url:String, repo_path:String)</text></g><!--MD5=[57adcbfcd00175f9b7abe25398e7de0c]
class Director--><g id="elem_Director"><rect codeLine="28" fill="#F1F1F1" height="118.4375" id="Director" rx="2.5" ry="2.5" style="stroke:#181818;stroke-width:0.5;" width="266" x="2047" y="388"/><ellipse cx="2150.75" cy="404" fill="#ADD1B2" rx="11" ry="11" style="stroke:#181818;stroke-width:1.0;"/><path d="M2153.5156,399.875 Q2153.6719,399.6563 2153.8594,399.5469 Q2154.0469,399.4375 2154.2656,399.4375 Q2154.6406,399.4375 2154.875,399.6953 Q2155.1094,399.9531 2155.1094,400.5625 L2155.1094,402.0156 Q2155.1094,402.625 2154.875,402.8906 Q2154.6406,403.1563 2154.2656,403.1563 Q2153.9219,403.1563 2153.7188,402.9531 Q2153.5156,402.7656 2153.4063,402.25 Q2153.3594,401.8906 2153.1719,401.7031 Q2152.8438,401.3281 2152.2344,401.1094 Q2151.625,400.8906 2151,400.8906 Q2150.2344,400.8906 2149.6016,401.2188 Q2148.9688,401.5469 2148.4766,402.2969 Q2147.9844,403.0469 2147.9844,404.0781 L2147.9844,405.1719 Q2147.9844,406.4063 2148.875,407.2266 Q2149.7656,408.0469 2151.3594,408.0469 Q2152.2969,408.0469 2152.9531,407.7969 Q2153.3438,407.6406 2153.7656,407.2031 Q2154.0313,406.9375 2154.1797,406.8594 Q2154.3281,406.7813 2154.5313,406.7813 Q2154.8594,406.7813 2155.1172,407.0391 Q2155.375,407.2969 2155.375,407.6406 Q2155.375,407.9844 2155.0313,408.3906 Q2154.5313,408.9688 2153.7344,409.2969 Q2152.6563,409.75 2151.3594,409.75 Q2149.8438,409.75 2148.6406,409.125 Q2147.6563,408.625 2146.9688,407.5547 Q2146.2813,406.4844 2146.2813,405.2031 L2146.2813,404.0469 Q2146.2813,402.7188 2146.8984,401.5703 Q2147.5156,400.4219 2148.6094,399.8047 Q2149.7031,399.1875 2150.9375,399.1875 Q2151.6719,399.1875 2152.3203,399.3516 Q2152.9688,399.5156 2153.5156,399.875 Z " fill="#000000"/><text fill="#000000" font-family="sans-serif" font-size="14" lengthAdjust="spacing" textLength="50" x="2171.25" y="409.7285">Director</text><line style="stroke:#181818;stroke-width:0.5;" x1="2048" x2="2312" y1="420" y2="420"/><rect fill="none" height="6" style="stroke:#C82930;stroke-width:1.0;" width="6" x="2055" y="431.3047"/><text fill="#000000" font-family="sans-serif" font-size="14" lengthAdjust="spacing" textLength="143" x="2067" y="438.5332">builder  : GraphBuilder</text><line style="stroke:#181818;stroke-width:0.5;" x1="2048" x2="2312" y1="445.6094" y2="445.6094"/><ellipse cx="2058" cy="459.9141" fill="#84BE84" rx="3" ry="3" style="stroke:#038048;stroke-width:1.0;"/><text fill="#000000" font-family="sans-serif" font-size="14" lengthAdjust="spacing" textLength="199" x="2067" y="464.1426">Director(builder : GraphBuilder)</text><ellipse cx="2058" cy="477.5234" fill="#84BE84" rx="3" ry="3" style="stroke:#038048;stroke-width:1.0;"/><text fill="#000000" font-family="sans-serif" font-size="14" lengthAdjust="spacing" textLength="240" x="2067" y="481.752">changeBuilder(builder : GraphBuilder)</text><ellipse cx="2058" cy="495.1328" fill="#84BE84" rx="3" ry="3" style="stroke:#038048;stroke-width:1.0;"/><text fill="#000000" font-family="sans-serif" font-size="14" lengthAdjust="spacing" textLength="120" x="2067" y="499.3613">make(type : String)</text></g><!--MD5=[79192a478d62deba35bb89aba7222362]
class GraphBuilder--><g id="elem_GraphBuilder"><rect codeLine="34" fill="#F1F1F1" height="100.8281" id="GraphBuilder" rx="2.5" ry="2.5" style="stroke:#181818;stroke-width:0.5;" width="116" x="2065" y="575"/><ellipse cx="2080" cy="591" fill="#B4A7E5" rx="11" ry="11" style="stroke:#181818;stroke-width:1.0;"/><path d="M2080.9531,587.6406 L2080.9531,594.2969 L2082.6719,594.2969 Q2083.2813,594.2969 2083.5469,594.5313 Q2083.8125,594.7656 2083.8125,595.1563 Q2083.8125,595.5313 2083.5469,595.7656 Q2083.2813,596 2082.6719,596 L2077.5313,596 Q2076.9219,596 2076.6563,595.7656 Q2076.3906,595.5313 2076.3906,595.1406 Q2076.3906,594.7656 2076.6563,594.5313 Q2076.9219,594.2969 2077.5313,594.2969 L2079.25,594.2969 L2079.25,587.6406 L2077.5313,587.6406 Q2076.9219,587.6406 2076.6563,587.4063 Q2076.3906,587.1719 2076.3906,586.7813 Q2076.3906,586.4063 2076.6563,586.1719 Q2076.9219,585.9375 2077.5313,585.9375 L2082.6719,585.9375 Q2083.2813,585.9375 2083.5469,586.1719 Q2083.8125,586.4063 2083.8125,586.7813 Q2083.8125,587.1719 2083.5469,587.4063 Q2083.2813,587.6406 2082.6719,587.6406 L2080.9531,587.6406 Z " fill="#000000"/><text fill="#000000" font-family="sans-serif" font-size="14" font-style="italic" lengthAdjust="spacing" textLength="84" x="2094" y="596.7285">GraphBuilder</text><line style="stroke:#181818;stroke-width:0.5;" x1="2066" x2="2180" y1="607" y2="607"/><line style="stroke:#181818;stroke-width:0.5;" x1="2066" x2="2180" y1="615" y2="615"/><ellipse cx="2076" cy="629.3047" fill="#84BE84" rx="3" ry="3" style="stroke:#038048;stroke-width:1.0;"/><text fill="#000000" font-family="sans-serif" font-size="14" lengthAdjust="spacing" textLength="42" x="2085" y="633.5332">reset()</text><ellipse cx="2076" cy="646.9141" fill="#84BE84" rx="3" ry="3" style="stroke:#038048;stroke-width:1.0;"/><text fill="#000000" font-family="sans-serif" font-size="14" lengthAdjust="spacing" textLength="78" x="2085" y="651.1426">buildStepA()</text><ellipse cx="2076" cy="664.5234" fill="#84BE84" rx="3" ry="3" style="stroke:#038048;stroke-width:1.0;"/><text fill="#000000" font-family="sans-serif" font-size="14" lengthAdjust="spacing" textLength="78" x="2085" y="668.752">buildStepB()</text></g><!--MD5=[3fecb71b93e9d3dda2b1f5e1b493efda]
class LinearGraphBuilder--><g id="elem_LinearGraphBuilder"><rect codeLine="39" fill="#F1F1F1" height="118.4375" id="LinearGraphBuilder" rx="2.5" ry="2.5" style="stroke:#181818;stroke-width:0.5;" width="188" x="1824" y="388"/><ellipse cx="1853.4" cy="404" fill="#ADD1B2" rx="11" ry="11" style="stroke:#181818;stroke-width:1.0;"/><path d="M1856.1656,399.875 Q1856.3219,399.6563 1856.5094,399.5469 Q1856.6969,399.4375 1856.9156,399.4375 Q1857.2906,399.4375 1857.525,399.6953 Q1857.7594,399.9531 1857.7594,400.5625 L1857.7594,402.0156 Q1857.7594,402.625 1857.525,402.8906 Q1857.2906,403.1563 1856.9156,403.1563 Q1856.5719,403.1563 1856.3688,402.9531 Q1856.1656,402.7656 1856.0563,402.25 Q1856.0094,401.8906 1855.8219,401.7031 Q1855.4938,401.3281 1854.8844,401.1094 Q1854.275,400.8906 1853.65,400.8906 Q1852.8844,400.8906 1852.2516,401.2188 Q1851.6188,401.5469 1851.1266,402.2969 Q1850.6344,403.0469 1850.6344,404.0781 L1850.6344,405.1719 Q1850.6344,406.4063 1851.525,407.2266 Q1852.4156,408.0469 1854.0094,408.0469 Q1854.9469,408.0469 1855.6031,407.7969 Q1855.9938,407.6406 1856.4156,407.2031 Q1856.6813,406.9375 1856.8297,406.8594 Q1856.9781,406.7813 1857.1813,406.7813 Q1857.5094,406.7813 1857.7672,407.0391 Q1858.025,407.2969 1858.025,407.6406 Q1858.025,407.9844 1857.6813,408.3906 Q1857.1813,408.9688 1856.3844,409.2969 Q1855.3063,409.75 1854.0094,409.75 Q1852.4938,409.75 1851.2906,409.125 Q1850.3063,408.625 1849.6188,407.5547 Q1848.9313,406.4844 1848.9313,405.2031 L1848.9313,404.0469 Q1848.9313,402.7188 1849.5484,401.5703 Q1850.1656,400.4219 1851.2594,399.8047 Q1852.3531,399.1875 1853.5875,399.1875 Q1854.3219,399.1875 1854.9703,399.3516 Q1855.6188,399.5156 1856.1656,399.875 Z " fill="#000000"/><text fill="#000000" font-family="sans-serif" font-size="14" lengthAdjust="spacing" textLength="124" x="1870.6" y="409.7285">LinearGraphBuilder</text><line style="stroke:#181818;stroke-width:0.5;" x1="1825" x2="2011" y1="420" y2="420"/><line style="stroke:#181818;stroke-width:0.5;" x1="1825" x2="2011" y1="428" y2="428"/><ellipse cx="1835" cy="442.3047" fill="#84BE84" rx="3" ry="3" style="stroke:#038048;stroke-width:1.0;"/><text fill="#000000" font-family="sans-serif" font-size="14" lengthAdjust="spacing" textLength="42" x="1844" y="446.5332">reset()</text><ellipse cx="1835" cy="459.9141" fill="#84BE84" rx="3" ry="3" style="stroke:#038048;stroke-width:1.0;"/><text fill="#000000" font-family="sans-serif" font-size="14" lengthAdjust="spacing" textLength="78" x="1844" y="464.1426">buildStepA()</text><ellipse cx="1835" cy="477.5234" fill="#84BE84" rx="3" ry="3" style="stroke:#038048;stroke-width:1.0;"/><text fill="#000000" font-family="sans-serif" font-size="14" lengthAdjust="spacing" textLength="78" x="1844" y="481.752">buildStepB()</text><ellipse cx="1835" cy="495.1328" fill="#84BE84" rx="3" ry="3" style="stroke:#038048;stroke-width:1.0;"/><text fill="#000000" font-family="sans-serif" font-size="14" lengthAdjust="spacing" textLength="162" x="1844" y="499.3613">getResult() : LinearGraph</text></g><!--MD5=[6f9993856f7dfcfb32a3e858fdbd3c2d]
class LinearGraph--><g id="elem_LinearGraph"><rect codeLine="45" fill="#F1F1F1" height="48" id="LinearGraph" rx="2.5" ry="2.5" style="stroke:#181818;stroke-width:0.5;" width="112" x="1862" y="601.5"/><ellipse cx="1877" cy="617.5" fill="#ADD1B2" rx="11" ry="11" style="stroke:#181818;stroke-width:1.0;"/><path d="M1879.7656,613.375 Q1879.9219,613.1563 1880.1094,613.0469 Q1880.2969,612.9375 1880.5156,612.9375 Q1880.8906,612.9375 1881.125,613.1953 Q1881.3594,613.4531 1881.3594,614.0625 L1881.3594,615.5156 Q1881.3594,616.125 1881.125,616.3906 Q1880.8906,616.6563 1880.5156,616.6563 Q1880.1719,616.6563 1879.9688,616.4531 Q1879.7656,616.2656 1879.6563,615.75 Q1879.6094,615.3906 1879.4219,615.2031 Q1879.0938,614.8281 1878.4844,614.6094 Q1877.875,614.3906 1877.25,614.3906 Q1876.4844,614.3906 1875.8516,614.7188 Q1875.2188,615.0469 1874.7266,615.7969 Q1874.2344,616.5469 1874.2344,617.5781 L1874.2344,618.6719 Q1874.2344,619.9063 1875.125,620.7266 Q1876.0156,621.5469 1877.6094,621.5469 Q1878.5469,621.5469 1879.2031,621.2969 Q1879.5938,621.1406 1880.0156,620.7031 Q1880.2813,620.4375 1880.4297,620.3594 Q1880.5781,620.2813 1880.7813,620.2813 Q1881.1094,620.2813 1881.3672,620.5391 Q1881.625,620.7969 1881.625,621.1406 Q1881.625,621.4844 1881.2813,621.8906 Q1880.7813,622.4688 1879.9844,622.7969 Q1878.9063,623.25 1877.6094,623.25 Q1876.0938,623.25 1874.8906,622.625 Q1873.9063,622.125 1873.2188,621.0547 Q1872.5313,619.9844 1872.5313,618.7031 L1872.5313,617.5469 Q1872.5313,616.2188 1873.1484,615.0703 Q1873.7656,613.9219 1874.8594,613.3047 Q1875.9531,612.6875 1877.1875,612.6875 Q1877.9219,612.6875 1878.5703,612.8516 Q1879.2188,613.0156 1879.7656,613.375 Z " fill="#000000"/><text fill="#000000" font-family="sans-serif" font-size="14" lengthAdjust="spacing" textLength="80" x="1891" y="623.2285">LinearGraph</text><line style="stroke:#181818;stroke-width:0.5;" x1="1863" x2="1973" y1="633.5" y2="633.5"/><line style="stroke:#181818;stroke-width:0.5;" x1="1863" x2="1973" y1="641.5" y2="641.5"/></g><!--MD5=[eb1b21c623a6d695731a5485efcb9819]
class LogInstructionCollector--><g id="elem_LogInstructionCollector"><rect codeLine="48" fill="#F1F1F1" height="65.6094" id="LogInstructionCollector" rx="2.5" ry="2.5" style="stroke:#181818;stroke-width:0.5;" width="253" x="1514.5" y="414"/><ellipse cx="1563.75" cy="430" fill="#B4A7E5" rx="11" ry="11" style="stroke:#181818;stroke-width:1.0;"/><path d="M1564.7031,426.6406 L1564.7031,433.2969 L1566.4219,433.2969 Q1567.0313,433.2969 1567.2969,433.5313 Q1567.5625,433.7656 1567.5625,434.1563 Q1567.5625,434.5313 1567.2969,434.7656 Q1567.0313,435 1566.4219,435 L1561.2813,435 Q1560.6719,435 1560.4063,434.7656 Q1560.1406,434.5313 1560.1406,434.1406 Q1560.1406,433.7656 1560.4063,433.5313 Q1560.6719,433.2969 1561.2813,433.2969 L1563,433.2969 L1563,426.6406 L1561.2813,426.6406 Q1560.6719,426.6406 1560.4063,426.4063 Q1560.1406,426.1719 1560.1406,425.7813 Q1560.1406,425.4063 1560.4063,425.1719 Q1560.6719,424.9375 1561.2813,424.9375 L1566.4219,424.9375 Q1567.0313,424.9375 1567.2969,425.1719 Q1567.5625,425.4063 1567.5625,425.7813 Q1567.5625,426.1719 1567.2969,426.4063 Q1567.0313,426.6406 1566.4219,426.6406 L1564.7031,426.6406 Z " fill="#000000"/><text fill="#000000" font-family="sans-serif" font-size="14" font-style="italic" lengthAdjust="spacing" textLength="146" x="1584.25" y="435.7285">LogInstructionCollector</text><line style="stroke:#181818;stroke-width:0.5;" x1="1515.5" x2="1766.5" y1="446" y2="446"/><line style="stroke:#181818;stroke-width:0.5;" x1="1515.5" x2="1766.5" y1="454" y2="454"/><ellipse cx="1525.5" cy="468.3047" fill="#84BE84" rx="3" ry="3" style="stroke:#038048;stroke-width:1.0;"/><text fill="#000000" font-family="sans-serif" font-size="14" lengthAdjust="spacing" textLength="227" x="1534.5" y="472.5332">getLogInstructions():LogInstruction[]</text></g><!--MD5=[e8f52cef377e304b977822c8772acb84]
class Log4JCollector--><g id="elem_Log4JCollector"><rect codeLine="51" fill="#F1F1F1" height="65.6094" id="Log4JCollector" rx="2.5" ry="2.5" style="stroke:#181818;stroke-width:0.5;" width="253" x="1226.5" y="592.5"/><ellipse cx="1301.75" cy="608.5" fill="#ADD1B2" rx="11" ry="11" style="stroke:#181818;stroke-width:1.0;"/><path d="M1304.5156,604.375 Q1304.6719,604.1563 1304.8594,604.0469 Q1305.0469,603.9375 1305.2656,603.9375 Q1305.6406,603.9375 1305.875,604.1953 Q1306.1094,604.4531 1306.1094,605.0625 L1306.1094,606.5156 Q1306.1094,607.125 1305.875,607.3906 Q1305.6406,607.6563 1305.2656,607.6563 Q1304.9219,607.6563 1304.7188,607.4531 Q1304.5156,607.2656 1304.4063,606.75 Q1304.3594,606.3906 1304.1719,606.2031 Q1303.8438,605.8281 1303.2344,605.6094 Q1302.625,605.3906 1302,605.3906 Q1301.2344,605.3906 1300.6016,605.7188 Q1299.9688,606.0469 1299.4766,606.7969 Q1298.9844,607.5469 1298.9844,608.5781 L1298.9844,609.6719 Q1298.9844,610.9063 1299.875,611.7266 Q1300.7656,612.5469 1302.3594,612.5469 Q1303.2969,612.5469 1303.9531,612.2969 Q1304.3438,612.1406 1304.7656,611.7031 Q1305.0313,611.4375 1305.1797,611.3594 Q1305.3281,611.2813 1305.5313,611.2813 Q1305.8594,611.2813 1306.1172,611.5391 Q1306.375,611.7969 1306.375,612.1406 Q1306.375,612.4844 1306.0313,612.8906 Q1305.5313,613.4688 1304.7344,613.7969 Q1303.6563,614.25 1302.3594,614.25 Q1300.8438,614.25 1299.6406,613.625 Q1298.6563,613.125 1297.9688,612.0547 Q1297.2813,610.9844 1297.2813,609.7031 L1297.2813,608.5469 Q1297.2813,607.2188 1297.8984,606.0703 Q1298.5156,604.9219 1299.6094,604.3047 Q1300.7031,603.6875 1301.9375,603.6875 Q1302.6719,603.6875 1303.3203,603.8516 Q1303.9688,604.0156 1304.5156,604.375 Z " fill="#000000"/><text fill="#000000" font-family="sans-serif" font-size="14" lengthAdjust="spacing" textLength="94" x="1322.25" y="614.2285">Log4JCollector</text><line style="stroke:#181818;stroke-width:0.5;" x1="1227.5" x2="1478.5" y1="624.5" y2="624.5"/><line style="stroke:#181818;stroke-width:0.5;" x1="1227.5" x2="1478.5" y1="632.5" y2="632.5"/><ellipse cx="1237.5" cy="646.8047" fill="#84BE84" rx="3" ry="3" style="stroke:#038048;stroke-width:1.0;"/><text fill="#000000" font-family="sans-serif" font-size="14" lengthAdjust="spacing" textLength="227" x="1246.5" y="651.0332">getLogInstructions():LogInstruction[]</text></g><!--MD5=[e495d209213e4713227ad5c144ffc56b]
class Log4PCollector--><g id="elem_Log4PCollector"><rect codeLine="54" fill="#F1F1F1" height="65.6094" id="Log4PCollector" rx="2.5" ry="2.5" style="stroke:#181818;stroke-width:0.5;" width="253" x="1514.5" y="592.5"/><ellipse cx="1588.25" cy="608.5" fill="#ADD1B2" rx="11" ry="11" style="stroke:#181818;stroke-width:1.0;"/><path d="M1591.0156,604.375 Q1591.1719,604.1563 1591.3594,604.0469 Q1591.5469,603.9375 1591.7656,603.9375 Q1592.1406,603.9375 1592.375,604.1953 Q1592.6094,604.4531 1592.6094,605.0625 L1592.6094,606.5156 Q1592.6094,607.125 1592.375,607.3906 Q1592.1406,607.6563 1591.7656,607.6563 Q1591.4219,607.6563 1591.2188,607.4531 Q1591.0156,607.2656 1590.9063,606.75 Q1590.8594,606.3906 1590.6719,606.2031 Q1590.3438,605.8281 1589.7344,605.6094 Q1589.125,605.3906 1588.5,605.3906 Q1587.7344,605.3906 1587.1016,605.7188 Q1586.4688,606.0469 1585.9766,606.7969 Q1585.4844,607.5469 1585.4844,608.5781 L1585.4844,609.6719 Q1585.4844,610.9063 1586.375,611.7266 Q1587.2656,612.5469 1588.8594,612.5469 Q1589.7969,612.5469 1590.4531,612.2969 Q1590.8438,612.1406 1591.2656,611.7031 Q1591.5313,611.4375 1591.6797,611.3594 Q1591.8281,611.2813 1592.0313,611.2813 Q1592.3594,611.2813 1592.6172,611.5391 Q1592.875,611.7969 1592.875,612.1406 Q1592.875,612.4844 1592.5313,612.8906 Q1592.0313,613.4688 1591.2344,613.7969 Q1590.1563,614.25 1588.8594,614.25 Q1587.3438,614.25 1586.1406,613.625 Q1585.1563,613.125 1584.4688,612.0547 Q1583.7813,610.9844 1583.7813,609.7031 L1583.7813,608.5469 Q1583.7813,607.2188 1584.3984,606.0703 Q1585.0156,604.9219 1586.1094,604.3047 Q1587.2031,603.6875 1588.4375,603.6875 Q1589.1719,603.6875 1589.8203,603.8516 Q1590.4688,604.0156 1591.0156,604.375 Z " fill="#000000"/><text fill="#000000" font-family="sans-serif" font-size="14" lengthAdjust="spacing" textLength="97" x="1608.75" y="614.2285">Log4PCollector</text><line style="stroke:#181818;stroke-width:0.5;" x1="1515.5" x2="1766.5" y1="624.5" y2="624.5"/><line style="stroke:#181818;stroke-width:0.5;" x1="1515.5" x2="1766.5" y1="632.5" y2="632.5"/><ellipse cx="1525.5" cy="646.8047" fill="#84BE84" rx="3" ry="3" style="stroke:#038048;stroke-width:1.0;"/><text fill="#000000" font-family="sans-serif" font-size="14" lengthAdjust="spacing" textLength="227" x="1534.5" y="651.0332">getLogInstructions():LogInstruction[]</text></g><!--MD5=[618ac1cf5bc8a3d04f724c7f019864e3]
class LogInstruction--><g id="elem_LogInstruction"><rect codeLine="58" fill="#F1F1F1" height="65.6094" id="LogInstruction" rx="2.5" ry="2.5" style="stroke:#181818;stroke-width:0.5;" width="133" x="1430.5" y="736"/><ellipse cx="1450.9" cy="752" fill="#ADD1B2" rx="11" ry="11" style="stroke:#181818;stroke-width:1.0;"/><path d="M1453.6656,747.875 Q1453.8219,747.6563 1454.0094,747.5469 Q1454.1969,747.4375 1454.4156,747.4375 Q1454.7906,747.4375 1455.025,747.6953 Q1455.2594,747.9531 1455.2594,748.5625 L1455.2594,750.0156 Q1455.2594,750.625 1455.025,750.8906 Q1454.7906,751.1563 1454.4156,751.1563 Q1454.0719,751.1563 1453.8688,750.9531 Q1453.6656,750.7656 1453.5563,750.25 Q1453.5094,749.8906 1453.3219,749.7031 Q1452.9938,749.3281 1452.3844,749.1094 Q1451.775,748.8906 1451.15,748.8906 Q1450.3844,748.8906 1449.7516,749.2188 Q1449.1188,749.5469 1448.6266,750.2969 Q1448.1344,751.0469 1448.1344,752.0781 L1448.1344,753.1719 Q1448.1344,754.4063 1449.025,755.2266 Q1449.9156,756.0469 1451.5094,756.0469 Q1452.4469,756.0469 1453.1031,755.7969 Q1453.4938,755.6406 1453.9156,755.2031 Q1454.1813,754.9375 1454.3297,754.8594 Q1454.4781,754.7813 1454.6813,754.7813 Q1455.0094,754.7813 1455.2672,755.0391 Q1455.525,755.2969 1455.525,755.6406 Q1455.525,755.9844 1455.1813,756.3906 Q1454.6813,756.9688 1453.8844,757.2969 Q1452.8063,757.75 1451.5094,757.75 Q1449.9938,757.75 1448.7906,757.125 Q1447.8063,756.625 1447.1188,755.5547 Q1446.4313,754.4844 1446.4313,753.2031 L1446.4313,752.0469 Q1446.4313,750.7188 1447.0484,749.5703 Q1447.6656,748.4219 1448.7594,747.8047 Q1449.8531,747.1875 1451.0875,747.1875 Q1451.8219,747.1875 1452.4703,747.3516 Q1453.1188,747.5156 1453.6656,747.875 Z " fill="#000000"/><text fill="#000000" font-family="sans-serif" font-size="14" lengthAdjust="spacing" textLength="89" x="1466.1" y="757.7285">LogInstruction</text><line style="stroke:#181818;stroke-width:0.5;" x1="1431.5" x2="1562.5" y1="768" y2="768"/><rect fill="none" height="6" style="stroke:#C82930;stroke-width:1.0;" width="6" x="1438.5" y="779.3047"/><text fill="#000000" font-family="sans-serif" font-size="14" lengthAdjust="spacing" textLength="107" x="1450.5" y="786.5332">intruction : String</text><line style="stroke:#181818;stroke-width:0.5;" x1="1431.5" x2="1562.5" y1="793.6094" y2="793.6094"/></g><!--MD5=[392569bdf4cc06d7d4c14230b81d2d7d]
class Modification--><g id="elem_Modification"><rect codeLine="61" fill="#F1F1F1" height="83.2188" id="Modification" rx="2.5" ry="2.5" style="stroke:#181818;stroke-width:0.5;" width="129" x="1432.5" y="862"/><ellipse cx="1457.4" cy="878" fill="#ADD1B2" rx="11" ry="11" style="stroke:#181818;stroke-width:1.0;"/><path d="M1460.1656,873.875 Q1460.3219,873.6563 1460.5094,873.5469 Q1460.6969,873.4375 1460.9156,873.4375 Q1461.2906,873.4375 1461.525,873.6953 Q1461.7594,873.9531 1461.7594,874.5625 L1461.7594,876.0156 Q1461.7594,876.625 1461.525,876.8906 Q1461.2906,877.1563 1460.9156,877.1563 Q1460.5719,877.1563 1460.3688,876.9531 Q1460.1656,876.7656 1460.0563,876.25 Q1460.0094,875.8906 1459.8219,875.7031 Q1459.4938,875.3281 1458.8844,875.1094 Q1458.275,874.8906 1457.65,874.8906 Q1456.8844,874.8906 1456.2516,875.2188 Q1455.6188,875.5469 1455.1266,876.2969 Q1454.6344,877.0469 1454.6344,878.0781 L1454.6344,879.1719 Q1454.6344,880.4063 1455.525,881.2266 Q1456.4156,882.0469 1458.0094,882.0469 Q1458.9469,882.0469 1459.6031,881.7969 Q1459.9938,881.6406 1460.4156,881.2031 Q1460.6813,880.9375 1460.8297,880.8594 Q1460.9781,880.7813 1461.1813,880.7813 Q1461.5094,880.7813 1461.7672,881.0391 Q1462.025,881.2969 1462.025,881.6406 Q1462.025,881.9844 1461.6813,882.3906 Q1461.1813,882.9688 1460.3844,883.2969 Q1459.3063,883.75 1458.0094,883.75 Q1456.4938,883.75 1455.2906,883.125 Q1454.3063,882.625 1453.6188,881.5547 Q1452.9313,880.4844 1452.9313,879.2031 L1452.9313,878.0469 Q1452.9313,876.7188 1453.5484,875.5703 Q1454.1656,874.4219 1455.2594,873.8047 Q1456.3531,873.1875 1457.5875,873.1875 Q1458.3219,873.1875 1458.9703,873.3516 Q1459.6188,873.5156 1460.1656,873.875 Z " fill="#000000"/><text fill="#000000" font-family="sans-serif" font-size="14" lengthAdjust="spacing" textLength="75" x="1473.6" y="883.7285">Modification</text><line style="stroke:#181818;stroke-width:0.5;" x1="1433.5" x2="1560.5" y1="894" y2="894"/><rect fill="none" height="6" style="stroke:#C82930;stroke-width:1.0;" width="6" x="1440.5" y="905.3047"/><text fill="#000000" font-family="sans-serif" font-size="14" lengthAdjust="spacing" textLength="76" x="1452.5" y="912.5332">type : String</text><rect fill="none" height="6" style="stroke:#C82930;stroke-width:1.0;" width="6" x="1440.5" y="922.9141"/><text fill="#000000" font-family="sans-serif" font-size="14" lengthAdjust="spacing" textLength="103" x="1452.5" y="930.1426">commit : Commit</text><line style="stroke:#181818;stroke-width:0.5;" x1="1433.5" x2="1560.5" y1="937.2188" y2="937.2188"/></g><!--MD5=[756a5eb3d986321fecb12198addf98f6]
class LogInstructionFileGenerator--><g id="elem_LogInstructionFileGenerator"><rect codeLine="68" fill="#F1F1F1" height="65.6094" id="LogInstructionFileGenerator" rx="2.5" ry="2.5" style="stroke:#181818;stroke-width:0.5;" width="329" x="840.5" y="414"/><ellipse cx="911.75" cy="430" fill="#B4A7E5" rx="11" ry="11" style="stroke:#181818;stroke-width:1.0;"/><path d="M912.7031,426.6406 L912.7031,433.2969 L914.4219,433.2969 Q915.0313,433.2969 915.2969,433.5313 Q915.5625,433.7656 915.5625,434.1563 Q915.5625,434.5313 915.2969,434.7656 Q915.0313,435 914.4219,435 L909.2813,435 Q908.6719,435 908.4063,434.7656 Q908.1406,434.5313 908.1406,434.1406 Q908.1406,433.7656 908.4063,433.5313 Q908.6719,433.2969 909.2813,433.2969 L911,433.2969 L911,426.6406 L909.2813,426.6406 Q908.6719,426.6406 908.4063,426.4063 Q908.1406,426.1719 908.1406,425.7813 Q908.1406,425.4063 908.4063,425.1719 Q908.6719,424.9375 909.2813,424.9375 L914.4219,424.9375 Q915.0313,424.9375 915.2969,425.1719 Q915.5625,425.4063 915.5625,425.7813 Q915.5625,426.1719 915.2969,426.4063 Q915.0313,426.6406 914.4219,426.6406 L912.7031,426.6406 Z " fill="#000000"/><text fill="#000000" font-family="sans-serif" font-size="14" font-style="italic" lengthAdjust="spacing" textLength="178" x="932.25" y="435.7285">LogInstructionFileGenerator</text><line style="stroke:#181818;stroke-width:0.5;" x1="841.5" x2="1168.5" y1="446" y2="446"/><line style="stroke:#181818;stroke-width:0.5;" x1="841.5" x2="1168.5" y1="454" y2="454"/><ellipse cx="851.5" cy="468.3047" fill="#84BE84" rx="3" ry="3" style="stroke:#038048;stroke-width:1.0;"/><text fill="#000000" font-family="sans-serif" font-size="14" lengthAdjust="spacing" textLength="303" x="860.5" y="472.5332">createFile(logInstructions : List&lt;LogInstruction&gt;)</text></g><!--MD5=[5af79b0b2155ee57da9d7e0e1ff6f2fd]
class CsvFileGenerator--><g id="elem_CsvFileGenerator"><rect codeLine="72" fill="#F1F1F1" height="65.6094" id="CsvFileGenerator" rx="2.5" ry="2.5" style="stroke:#181818;stroke-width:0.5;" width="329" x="840.5" y="592.5"/><ellipse cx="944.75" cy="608.5" fill="#ADD1B2" rx="11" ry="11" style="stroke:#181818;stroke-width:1.0;"/><path d="M947.5156,604.375 Q947.6719,604.1563 947.8594,604.0469 Q948.0469,603.9375 948.2656,603.9375 Q948.6406,603.9375 948.875,604.1953 Q949.1094,604.4531 949.1094,605.0625 L949.1094,606.5156 Q949.1094,607.125 948.875,607.3906 Q948.6406,607.6563 948.2656,607.6563 Q947.9219,607.6563 947.7188,607.4531 Q947.5156,607.2656 947.4063,606.75 Q947.3594,606.3906 947.1719,606.2031 Q946.8438,605.8281 946.2344,605.6094 Q945.625,605.3906 945,605.3906 Q944.2344,605.3906 943.6016,605.7188 Q942.9688,606.0469 942.4766,606.7969 Q941.9844,607.5469 941.9844,608.5781 L941.9844,609.6719 Q941.9844,610.9063 942.875,611.7266 Q943.7656,612.5469 945.3594,612.5469 Q946.2969,612.5469 946.9531,612.2969 Q947.3438,612.1406 947.7656,611.7031 Q948.0313,611.4375 948.1797,611.3594 Q948.3281,611.2813 948.5313,611.2813 Q948.8594,611.2813 949.1172,611.5391 Q949.375,611.7969 949.375,612.1406 Q949.375,612.4844 949.0313,612.8906 Q948.5313,613.4688 947.7344,613.7969 Q946.6563,614.25 945.3594,614.25 Q943.8438,614.25 942.6406,613.625 Q941.6563,613.125 940.9688,612.0547 Q940.2813,610.9844 940.2813,609.7031 L940.2813,608.5469 Q940.2813,607.2188 940.8984,606.0703 Q941.5156,604.9219 942.6094,604.3047 Q943.7031,603.6875 944.9375,603.6875 Q945.6719,603.6875 946.3203,603.8516 Q946.9688,604.0156 947.5156,604.375 Z " fill="#000000"/><text fill="#000000" font-family="sans-serif" font-size="14" lengthAdjust="spacing" textLength="112" x="965.25" y="614.2285">CsvFileGenerator</text><line style="stroke:#181818;stroke-width:0.5;" x1="841.5" x2="1168.5" y1="624.5" y2="624.5"/><line style="stroke:#181818;stroke-width:0.5;" x1="841.5" x2="1168.5" y1="632.5" y2="632.5"/><ellipse cx="851.5" cy="646.8047" fill="#84BE84" rx="3" ry="3" style="stroke:#038048;stroke-width:1.0;"/><text fill="#000000" font-family="sans-serif" font-size="14" lengthAdjust="spacing" textLength="303" x="860.5" y="651.0332">createFile(logInstructions : List&lt;LogInstruction&gt;)</text></g><!--MD5=[9a5c7ef6f1b55b5416e49b291d6cd453]
class CommitWindowView--><g id="elem_CommitWindowView"><rect codeLine="79" fill="#F1F1F1" height="48" id="CommitWindowView" rx="2.5" ry="2.5" style="stroke:#181818;stroke-width:0.5;" width="157" x="2965.5" y="423"/><ellipse cx="2980.5" cy="439" fill="#ADD1B2" rx="11" ry="11" style="stroke:#181818;stroke-width:1.0;"/><path d="M2983.2656,434.875 Q2983.4219,434.6563 2983.6094,434.5469 Q2983.7969,434.4375 2984.0156,434.4375 Q2984.3906,434.4375 2984.625,434.6953 Q2984.8594,434.9531 2984.8594,435.5625 L2984.8594,437.0156 Q2984.8594,437.625 2984.625,437.8906 Q2984.3906,438.1563 2984.0156,438.1563 Q2983.6719,438.1563 2983.4688,437.9531 Q2983.2656,437.7656 2983.1563,437.25 Q2983.1094,436.8906 2982.9219,436.7031 Q2982.5938,436.3281 2981.9844,436.1094 Q2981.375,435.8906 2980.75,435.8906 Q2979.9844,435.8906 2979.3516,436.2188 Q2978.7188,436.5469 2978.2266,437.2969 Q2977.7344,438.0469 2977.7344,439.0781 L2977.7344,440.1719 Q2977.7344,441.4063 2978.625,442.2266 Q2979.5156,443.0469 2981.1094,443.0469 Q2982.0469,443.0469 2982.7031,442.7969 Q2983.0938,442.6406 2983.5156,442.2031 Q2983.7813,441.9375 2983.9297,441.8594 Q2984.0781,441.7813 2984.2813,441.7813 Q2984.6094,441.7813 2984.8672,442.0391 Q2985.125,442.2969 2985.125,442.6406 Q2985.125,442.9844 2984.7813,443.3906 Q2984.2813,443.9688 2983.4844,444.2969 Q2982.4063,444.75 2981.1094,444.75 Q2979.5938,444.75 2978.3906,444.125 Q2977.4063,443.625 2976.7188,442.5547 Q2976.0313,441.4844 2976.0313,440.2031 L2976.0313,439.0469 Q2976.0313,437.7188 2976.6484,436.5703 Q2977.2656,435.4219 2978.3594,434.8047 Q2979.4531,434.1875 2980.6875,434.1875 Q2981.4219,434.1875 2982.0703,434.3516 Q2982.7188,434.5156 2983.2656,434.875 Z " fill="#000000"/><text fill="#000000" font-family="sans-serif" font-size="14" lengthAdjust="spacing" textLength="125" x="2994.5" y="444.7285">CommitWindowView</text><line style="stroke:#181818;stroke-width:0.5;" x1="2966.5" x2="3121.5" y1="455" y2="455"/><line style="stroke:#181818;stroke-width:0.5;" x1="2966.5" x2="3121.5" y1="463" y2="463"/></g><!--MD5=[638d2833c1deeea8266eb58e4e049321]
class HomeView--><g id="elem_HomeView"><rect codeLine="80" fill="#F1F1F1" height="83.2188" id="HomeView" rx="2.5" ry="2.5" style="stroke:#181818;stroke-width:0.5;" width="255" x="3157.5" y="405.5"/><ellipse cx="3248.25" cy="421.5" fill="#ADD1B2" rx="11" ry="11" style="stroke:#181818;stroke-width:1.0;"/><path d="M3251.0156,417.375 Q3251.1719,417.1563 3251.3594,417.0469 Q3251.5469,416.9375 3251.7656,416.9375 Q3252.1406,416.9375 3252.375,417.1953 Q3252.6094,417.4531 3252.6094,418.0625 L3252.6094,419.5156 Q3252.6094,420.125 3252.375,420.3906 Q3252.1406,420.6563 3251.7656,420.6563 Q3251.4219,420.6563 3251.2188,420.4531 Q3251.0156,420.2656 3250.9063,419.75 Q3250.8594,419.3906 3250.6719,419.2031 Q3250.3438,418.8281 3249.7344,418.6094 Q3249.125,418.3906 3248.5,418.3906 Q3247.7344,418.3906 3247.1016,418.7188 Q3246.4688,419.0469 3245.9766,419.7969 Q3245.4844,420.5469 3245.4844,421.5781 L3245.4844,422.6719 Q3245.4844,423.9063 3246.375,424.7266 Q3247.2656,425.5469 3248.8594,425.5469 Q3249.7969,425.5469 3250.4531,425.2969 Q3250.8438,425.1406 3251.2656,424.7031 Q3251.5313,424.4375 3251.6797,424.3594 Q3251.8281,424.2813 3252.0313,424.2813 Q3252.3594,424.2813 3252.6172,424.5391 Q3252.875,424.7969 3252.875,425.1406 Q3252.875,425.4844 3252.5313,425.8906 Q3252.0313,426.4688 3251.2344,426.7969 Q3250.1563,427.25 3248.8594,427.25 Q3247.3438,427.25 3246.1406,426.625 Q3245.1563,426.125 3244.4688,425.0547 Q3243.7813,423.9844 3243.7813,422.7031 L3243.7813,421.5469 Q3243.7813,420.2188 3244.3984,419.0703 Q3245.0156,417.9219 3246.1094,417.3047 Q3247.2031,416.6875 3248.4375,416.6875 Q3249.1719,416.6875 3249.8203,416.8516 Q3250.4688,417.0156 3251.0156,417.375 Z " fill="#000000"/><text fill="#000000" font-family="sans-serif" font-size="14" lengthAdjust="spacing" textLength="65" x="3268.75" y="427.2285">HomeView</text><line style="stroke:#181818;stroke-width:0.5;" x1="3158.5" x2="3411.5" y1="437.5" y2="437.5"/><line style="stroke:#181818;stroke-width:0.5;" x1="3158.5" x2="3411.5" y1="445.5" y2="445.5"/><text fill="#000000" font-family="sans-serif" font-size="14" lengthAdjust="spacing" textLength="190" x="3163.5" y="464.0332">setRepos(repos : List&lt;Repo&gt;)</text><text fill="#000000" font-family="sans-serif" font-size="14" lengthAdjust="spacing" textLength="243" x="3163.5" y="481.6426">setBranches(branches : List&lt;Branch&gt;)</text></g><!--MD5=[8283b49bf57b64d6403c6871ced2d88e]
class NewRepoView--><g id="elem_NewRepoView"><rect codeLine="84" fill="#F1F1F1" height="48" id="NewRepoView" rx="2.5" ry="2.5" style="stroke:#181818;stroke-width:0.5;" width="121" x="2393.5" y="423"/><ellipse cx="2408.5" cy="439" fill="#ADD1B2" rx="11" ry="11" style="stroke:#181818;stroke-width:1.0;"/><path d="M2411.2656,434.875 Q2411.4219,434.6563 2411.6094,434.5469 Q2411.7969,434.4375 2412.0156,434.4375 Q2412.3906,434.4375 2412.625,434.6953 Q2412.8594,434.9531 2412.8594,435.5625 L2412.8594,437.0156 Q2412.8594,437.625 2412.625,437.8906 Q2412.3906,438.1563 2412.0156,438.1563 Q2411.6719,438.1563 2411.4688,437.9531 Q2411.2656,437.7656 2411.1563,437.25 Q2411.1094,436.8906 2410.9219,436.7031 Q2410.5938,436.3281 2409.9844,436.1094 Q2409.375,435.8906 2408.75,435.8906 Q2407.9844,435.8906 2407.3516,436.2188 Q2406.7188,436.5469 2406.2266,437.2969 Q2405.7344,438.0469 2405.7344,439.0781 L2405.7344,440.1719 Q2405.7344,441.4063 2406.625,442.2266 Q2407.5156,443.0469 2409.1094,443.0469 Q2410.0469,443.0469 2410.7031,442.7969 Q2411.0938,442.6406 2411.5156,442.2031 Q2411.7813,441.9375 2411.9297,441.8594 Q2412.0781,441.7813 2412.2813,441.7813 Q2412.6094,441.7813 2412.8672,442.0391 Q2413.125,442.2969 2413.125,442.6406 Q2413.125,442.9844 2412.7813,443.3906 Q2412.2813,443.9688 2411.4844,444.2969 Q2410.4063,444.75 2409.1094,444.75 Q2407.5938,444.75 2406.3906,444.125 Q2405.4063,443.625 2404.7188,442.5547 Q2404.0313,441.4844 2404.0313,440.2031 L2404.0313,439.0469 Q2404.0313,437.7188 2404.6484,436.5703 Q2405.2656,435.4219 2406.3594,434.8047 Q2407.4531,434.1875 2408.6875,434.1875 Q2409.4219,434.1875 2410.0703,434.3516 Q2410.7188,434.5156 2411.2656,434.875 Z " fill="#000000"/><text fill="#000000" font-family="sans-serif" font-size="14" lengthAdjust="spacing" textLength="89" x="2422.5" y="444.7285">NewRepoView</text><line style="stroke:#181818;stroke-width:0.5;" x1="2394.5" x2="2513.5" y1="455" y2="455"/><line style="stroke:#181818;stroke-width:0.5;" x1="2394.5" x2="2513.5" y1="463" y2="463"/></g><!--MD5=[388245a4d28dd375e067b2e75943a2e5]
class TraceVisualizerView--><g id="elem_TraceVisualizerView"><rect codeLine="85" fill="#F1F1F1" height="83.2188" id="TraceVisualizerView" rx="2.5" ry="2.5" style="stroke:#181818;stroke-width:0.5;" width="381" x="2549.5" y="405.5"/><ellipse cx="2672.75" cy="421.5" fill="#ADD1B2" rx="11" ry="11" style="stroke:#181818;stroke-width:1.0;"/><path d="M2675.5156,417.375 Q2675.6719,417.1563 2675.8594,417.0469 Q2676.0469,416.9375 2676.2656,416.9375 Q2676.6406,416.9375 2676.875,417.1953 Q2677.1094,417.4531 2677.1094,418.0625 L2677.1094,419.5156 Q2677.1094,420.125 2676.875,420.3906 Q2676.6406,420.6563 2676.2656,420.6563 Q2675.9219,420.6563 2675.7188,420.4531 Q2675.5156,420.2656 2675.4063,419.75 Q2675.3594,419.3906 2675.1719,419.2031 Q2674.8438,418.8281 2674.2344,418.6094 Q2673.625,418.3906 2673,418.3906 Q2672.2344,418.3906 2671.6016,418.7188 Q2670.9688,419.0469 2670.4766,419.7969 Q2669.9844,420.5469 2669.9844,421.5781 L2669.9844,422.6719 Q2669.9844,423.9063 2670.875,424.7266 Q2671.7656,425.5469 2673.3594,425.5469 Q2674.2969,425.5469 2674.9531,425.2969 Q2675.3438,425.1406 2675.7656,424.7031 Q2676.0313,424.4375 2676.1797,424.3594 Q2676.3281,424.2813 2676.5313,424.2813 Q2676.8594,424.2813 2677.1172,424.5391 Q2677.375,424.7969 2677.375,425.1406 Q2677.375,425.4844 2677.0313,425.8906 Q2676.5313,426.4688 2675.7344,426.7969 Q2674.6563,427.25 2673.3594,427.25 Q2671.8438,427.25 2670.6406,426.625 Q2669.6563,426.125 2668.9688,425.0547 Q2668.2813,423.9844 2668.2813,422.7031 L2668.2813,421.5469 Q2668.2813,420.2188 2668.8984,419.0703 Q2669.5156,417.9219 2670.6094,417.3047 Q2671.7031,416.6875 2672.9375,416.6875 Q2673.6719,416.6875 2674.3203,416.8516 Q2674.9688,417.0156 2675.5156,417.375 Z " fill="#000000"/><text fill="#000000" font-family="sans-serif" font-size="14" lengthAdjust="spacing" textLength="126" x="2693.25" y="427.2285">TraceVisualizerView</text><line style="stroke:#181818;stroke-width:0.5;" x1="2550.5" x2="2929.5" y1="437.5" y2="437.5"/><line style="stroke:#181818;stroke-width:0.5;" x1="2550.5" x2="2929.5" y1="445.5" y2="445.5"/><ellipse cx="2560.5" cy="459.8047" fill="#84BE84" rx="3" ry="3" style="stroke:#038048;stroke-width:1.0;"/><text fill="#000000" font-family="sans-serif" font-size="14" lengthAdjust="spacing" textLength="355" x="2569.5" y="464.0332">setLogInstructions(logInstructions : List&lt;LogInstruction&gt;)</text><ellipse cx="2560.5" cy="477.4141" fill="#84BE84" rx="3" ry="3" style="stroke:#038048;stroke-width:1.0;"/><text fill="#000000" font-family="sans-serif" font-size="14" lengthAdjust="spacing" textLength="223" x="2569.5" y="481.6426">set_graphic(graphic : LinearGraph)</text></g><!--MD5=[ee9086356092330d68c29a2d6fa1cb5f]
reverse link LogInstructionFileGenerator to CsvFileGenerator--><g id="link_LogInstructionFileGenerator_CsvFileGenerator"><path d="M1005,500.67 C1005,530.47 1005,566.76 1005,592.33 " fill="none" id="LogInstructionFileGenerator-backto-CsvFileGenerator" style="stroke:#181818;stroke-width:1.0;stroke-dasharray:7.0,7.0;"/><polygon fill="none" points="998,500.37,1005,480.37,1012,500.37,998,500.37" style="stroke:#181818;stroke-width:1.0;"/></g><!--MD5=[f6b2a2985ef9700565fd6caf5495fc7e]
reverse link HomeController to HomeView--><g id="link_HomeController_HomeView"><path codeLine="91" d="M1787.44,73.37 C2050.6,95.72 2898.96,176 3140,300 C3188.13,324.76 3230.07,371.34 3256.3,405.25 " fill="none" id="HomeController-backto-HomeView" style="stroke:#181818;stroke-width:1.0;"/><polygon fill="none" points="1774.25,72.26,1779.895,76.747,1786.2081,73.262,1780.563,68.775,1774.25,72.26" style="stroke:#181818;stroke-width:1.0;"/><text fill="#000000" font-family="sans-serif" font-size="13" lengthAdjust="spacing" textLength="7" x="1782.1992" y="69.5743">1</text><text fill="#000000" font-family="sans-serif" font-size="13" lengthAdjust="spacing" textLength="7" x="3243.9669" y="394.5163">1</text></g><!--MD5=[1b265ae96e7a3d29957e8e548b564e3e]
link HomeController to TraceVisualizerController--><g id="link_HomeController_TraceVisualizerController"><path codeLine="92" d="M1742.19,90.28 C1764.3,105.79 1794.44,126.94 1823.09,147.03 " fill="none" id="HomeController-to-TraceVisualizerController" style="stroke:#181818;stroke-width:1.0;stroke-dasharray:7.0,7.0;"/><polygon fill="#181818" points="1827.3,149.99,1822.2227,141.5507,1823.2045,147.1217,1817.6335,148.1035,1827.3,149.99" style="stroke:#181818;stroke-width:1.0;"/></g><!--MD5=[1850f9dbcba1d646be9a807cf0961ae7]
link HomeController to ReposManager--><g id="link_HomeController_ReposManager"><path codeLine="93" d="M1643.79,66.48 C1442.09,67.27 814.31,87.76 355,300 C315.64,318.19 277.91,347.55 247.63,375.2 " fill="none" id="HomeController-to-ReposManager" style="stroke:#181818;stroke-width:1.0;stroke-dasharray:7.0,7.0;"/><polygon fill="#181818" points="243.6,378.91,252.9279,375.7492,247.2757,375.5204,247.5045,369.8682,243.6,378.91" style="stroke:#181818;stroke-width:1.0;"/></g><!--MD5=[83501fea4de216da77353b26b5134ec3]
link HomeController to NewRepoController--><g id="link_HomeController_NewRepoController"><path codeLine="94" d="M1675.97,90.28 C1644.1,112.76 1595.41,147.08 1558.83,172.87 " fill="none" id="HomeController-to-NewRepoController" style="stroke:#181818;stroke-width:1.0;stroke-dasharray:7.0,7.0;"/><polygon fill="#181818" points="1554.43,175.97,1564.0889,174.0451,1558.514,173.0855,1559.4737,167.5106,1554.43,175.97" style="stroke:#181818;stroke-width:1.0;"/></g><!--MD5=[772c04445e493f915fab86436f0cefa4]
reverse link TraceVisualizerController to TraceVisualizerView--><g id="link_TraceVisualizerController_TraceVisualizerView"><path codeLine="96" d="M2202.6,224 C2309.13,236.38 2428.7,259 2532,300 C2594.13,324.66 2655.57,371.26 2695.37,405.2 " fill="none" id="TraceVisualizerController-backto-TraceVisualizerView" style="stroke:#181818;stroke-width:1.0;"/><polygon fill="none" points="2189.67,222.54,2195.1837,227.1875,2201.5943,223.8854,2196.0806,219.2379,2189.67,222.54" style="stroke:#181818;stroke-width:1.0;"/><text fill="#000000" font-family="sans-serif" font-size="13" lengthAdjust="spacing" textLength="7" x="2197.1917" y="220.1811">1</text><text fill="#000000" font-family="sans-serif" font-size="13" lengthAdjust="spacing" textLength="7" x="2680.6993" y="394.7688">1</text></g><!--MD5=[e68c28f5acde5f5b85d7ef1c7731eb34]
link TraceVisualizerController to LogInstructionDiffGenerator--><g id="link_TraceVisualizerController_LogInstructionDiffGenerator"><path codeLine="97" d="M1728.58,268.08 C1690.76,277.92 1650.87,286.67 1613,292 C1569.59,298.11 866.09,287.76 824,300 C749.01,321.81 674.48,374.81 630.08,410.58 " fill="none" id="TraceVisualizerController-to-LogInstructionDiffGenerator" style="stroke:#181818;stroke-width:1.0;stroke-dasharray:7.0,7.0;"/><polygon fill="#181818" points="626.14,413.77,635.6474,411.1991,630.0206,410.617,630.6027,404.9902,626.14,413.77" style="stroke:#181818;stroke-width:1.0;"/></g><!--MD5=[b43c276c0ddcdbf3c1a3288b44957655]
reverse link TraceVisualizerController to LogInstructionCollector--><g id="link_TraceVisualizerController_LogInstructionCollector"><path codeLine="98" d="M1833.81,276.84 C1782.63,321.75 1717.47,378.91 1677.52,413.96 " fill="none" id="TraceVisualizerController-backto-LogInstructionCollector" style="stroke:#181818;stroke-width:1.0;"/><polygon fill="none" points="1843.85,268.03,1836.7017,268.9796,1834.8289,275.9433,1841.9772,274.9937,1843.85,268.03" style="stroke:#181818;stroke-width:1.0;"/><text fill="#000000" font-family="sans-serif" font-size="13" lengthAdjust="spacing" textLength="7" x="1827.9261" y="290.1078">1</text><text fill="#000000" font-family="sans-serif" font-size="13" lengthAdjust="spacing" textLength="7" x="1677.3304" y="403.0672">1</text></g><!--MD5=[03623ffc9a15e1445120d577fc7ce57c]
reverse link TraceVisualizerController to LogInstructionFileGenerator--><g id="link_TraceVisualizerController_LogInstructionFileGenerator"><path codeLine="99" d="M1714.9,271.28 C1681.22,279.72 1646.33,287.15 1613,292 C1568.68,298.45 1252.52,285.94 1210,300 C1140.51,322.98 1074.2,378.39 1036.65,413.96 " fill="none" id="TraceVisualizerController-backto-LogInstructionFileGenerator" style="stroke:#181818;stroke-width:1.0;"/><polygon fill="none" points="1727.74,268,1720.9374,265.6072,1716.1124,270.9662,1722.9149,273.359,1727.74,268" style="stroke:#181818;stroke-width:1.0;"/><text fill="#000000" font-family="sans-serif" font-size="13" lengthAdjust="spacing" textLength="7" x="1696.9395" y="290.074">1</text><text fill="#000000" font-family="sans-serif" font-size="13" lengthAdjust="spacing" textLength="7" x="1035.4559" y="403.0672">1</text></g><!--MD5=[3d7dcd2f70fe96e4b3b41bcb161043dc]
link TraceVisualizerController to Director--><g id="link_TraceVisualizerController_Director"><path codeLine="100" d="M1990.52,268.15 C2003.94,278.47 2017.53,289.33 2030,300 C2060.79,326.34 2093.21,357.43 2120,384.14 " fill="none" id="TraceVisualizerController-to-Director" style="stroke:#181818;stroke-width:1.0;stroke-dasharray:7.0,7.0;"/><polygon fill="#181818" points="2123.58,387.71,2120.0445,378.5176,2120.0445,384.1745,2114.3876,384.1745,2123.58,387.71" style="stroke:#181818;stroke-width:1.0;"/></g><!--MD5=[78178374d1a48256754fa452951a30c6]
reverse link TraceVisualizerController to CommitWindowView--><g id="link_TraceVisualizerController_CommitWindowView"><path codeLine="101" d="M2202.89,234.63 C2508.44,260.44 2943.97,297.6 2948,300 C2995.16,328.13 3023.62,389.47 3036.25,422.99 " fill="none" id="TraceVisualizerController-backto-CommitWindowView" style="stroke:#181818;stroke-width:1.0;"/><polygon fill="none" points="2189.8,233.53,2195.445,238.017,2201.7581,234.532,2196.113,230.045,2189.8,233.53" style="stroke:#181818;stroke-width:1.0;"/><text fill="#000000" font-family="sans-serif" font-size="13" lengthAdjust="spacing" textLength="7" x="2197.3252" y="231.4631">1</text><text fill="#000000" font-family="sans-serif" font-size="13" lengthAdjust="spacing" textLength="7" x="3026.3672" y="412.3276">1</text></g><!--MD5=[de68e3143d17eb92a8cbd547bac1ac33]
link NewRepoController to ReposManager--><g id="link_NewRepoController_ReposManager"><path codeLine="103" d="M1422.39,220.48 C1269.82,238.48 943.03,274.99 666,292 C631.5,294.12 387.34,287.81 355,300 C313.02,315.83 273.89,346.28 243.33,375.29 " fill="none" id="NewRepoController-to-ReposManager" style="stroke:#181818;stroke-width:1.0;stroke-dasharray:7.0,7.0;"/><polygon fill="#181818" points="239.65,378.82,248.9121,375.4712,243.2564,375.3567,243.3709,369.701,239.65,378.82" style="stroke:#181818;stroke-width:1.0;"/></g><!--MD5=[b313d68615eb4c68550be3f408ea276d]
reverse link NewRepoController to NewRepoView--><g id="link_NewRepoController_NewRepoView"><path codeLine="104" d="M1548.62,251.37 C1566.59,267.25 1589.15,283.58 1613,292 C1650.51,305.24 2292.96,283.17 2329,300 C2384.02,325.7 2423.99,388.65 2442.5,422.9 " fill="none" id="NewRepoController-backto-NewRepoView" style="stroke:#181818;stroke-width:1.0;"/><polygon fill="none" points="1538.86,242.39,1540.5696,249.3955,1547.6938,250.5118,1545.9842,243.5063,1538.86,242.39" style="stroke:#181818;stroke-width:1.0;"/><text fill="#000000" font-family="sans-serif" font-size="13" lengthAdjust="spacing" textLength="7" x="1536.3906" y="263.0628">1</text><text fill="#000000" font-family="sans-serif" font-size="13" lengthAdjust="spacing" textLength="7" x="2431.6563" y="412.2145">1</text></g><!--MD5=[d9531bf4c0924c7b841235d841836e0c]
reverse link LogInstructionCollector to Log4JCollector--><g id="link_LogInstructionCollector_Log4JCollector"><path codeLine="106" d="M1571.24,490.75 C1520.23,522.02 1452.1,563.77 1405.61,592.26 " fill="none" id="LogInstructionCollector-backto-Log4JCollector" style="stroke:#181818;stroke-width:1.0;stroke-dasharray:7.0,7.0;"/><polygon fill="none" points="1567.8,484.65,1588.51,480.17,1575.12,496.59,1567.8,484.65" style="stroke:#181818;stroke-width:1.0;"/></g><!--MD5=[c31df28cb2bf3073cd109ae9d17b7d09]
reverse link LogInstructionCollector to Log4PCollector--><g id="link_LogInstructionCollector_Log4PCollector"><path codeLine="107" d="M1641,500.67 C1641,530.47 1641,566.76 1641,592.33 " fill="none" id="LogInstructionCollector-backto-Log4PCollector" style="stroke:#181818;stroke-width:1.0;stroke-dasharray:7.0,7.0;"/><polygon fill="none" points="1634,500.37,1641,480.37,1648,500.37,1634,500.37" style="stroke:#181818;stroke-width:1.0;"/></g><!--MD5=[5eafe718b242a5d25b945415ff88ba20]
link Log4JCollector to LogInstruction--><g id="link_Log4JCollector_LogInstruction"><path codeLine="108" d="M1385.68,658.61 C1407.89,680.44 1437.3,709.34 1460.32,731.96 " fill="none" id="Log4JCollector-to-LogInstruction" style="stroke:#181818;stroke-width:1.0;stroke-dasharray:7.0,7.0;"/><polygon fill="#181818" points="1463.96,735.53,1460.3688,726.3592,1460.4031,732.016,1454.7464,732.0502,1463.96,735.53" style="stroke:#181818;stroke-width:1.0;"/></g><!--MD5=[b8f6bfbccd290507d7aabcb308038070]
link Log4PCollector to LogInstruction--><g id="link_Log4PCollector_LogInstruction"><path codeLine="109" d="M1608.32,658.61 C1586.11,680.44 1556.7,709.34 1533.68,731.96 " fill="none" id="Log4PCollector-to-LogInstruction" style="stroke:#181818;stroke-width:1.0;stroke-dasharray:7.0,7.0;"/><polygon fill="#181818" points="1530.04,735.53,1539.2536,732.0502,1533.5969,732.016,1533.6312,726.3592,1530.04,735.53" style="stroke:#181818;stroke-width:1.0;"/></g><!--MD5=[d4afc868c56245ffb7ef75ee9ec3b053]
reverse link LogInstruction to Modification--><g id="link_LogInstruction_Modification"><path codeLine="110" d="M1497,815.33 C1497,830.37 1497,847.01 1497,861.68 " fill="none" id="LogInstruction-backto-Modification" style="stroke:#181818;stroke-width:1.0;"/><polygon fill="none" points="1497,802.07,1493,808.07,1497,814.07,1501,808.07,1497,802.07" style="stroke:#181818;stroke-width:1.0;"/><text fill="#000000" font-family="sans-serif" font-size="13" lengthAdjust="spacing" textLength="7" x="1489.3547" y="823.2058">1</text><text fill="#000000" font-family="sans-serif" font-size="13" lengthAdjust="spacing" textLength="5" x="1491.6016" y="851.2456">*</text></g><!--MD5=[7299d0ca142c7c24d98e896fa27e685a]
reverse link Director to GraphBuilder--><g id="link_Director_GraphBuilder"><path codeLine="112" d="M2157.15,518.75 C2151.08,537.55 2144.65,557.45 2139.03,574.85 " fill="none" id="Director-backto-GraphBuilder" style="stroke:#181818;stroke-width:1.0;"/><polygon fill="none" points="2161.18,506.28,2155.5281,510.7584,2157.4883,517.698,2163.1401,513.2196,2161.18,506.28" style="stroke:#181818;stroke-width:1.0;"/><text fill="#000000" font-family="sans-serif" font-size="13" lengthAdjust="spacing" textLength="7" x="2151.4598" y="527.9696">1</text><text fill="#000000" font-family="sans-serif" font-size="13" lengthAdjust="spacing" textLength="7" x="2133.792" y="564.1343">1</text></g><!--MD5=[c912761218b11168bb1ebd2a9335857b]
link LinearGraphBuilder to GraphBuilder--><g id="link_LinearGraphBuilder_GraphBuilder"><path codeLine="113" d="M1985.41,506.04 C2006.06,523.82 2028.88,543.46 2049.89,561.55 " fill="none" id="LinearGraphBuilder-to-GraphBuilder" style="stroke:#181818;stroke-width:1.0;stroke-dasharray:7.0,7.0;"/><polygon fill="none" points="2054.59,556.36,2065.18,574.72,2045.45,566.97,2054.59,556.36" style="stroke:#181818;stroke-width:1.0;"/></g><!--MD5=[8e77f667e62c8d0d21426ffdcdc77ac0]
link LinearGraphBuilder to LinearGraph--><g id="link_LinearGraphBuilder_LinearGraph"><path codeLine="114" d="M1918,506.28 C1918,536.34 1918,571.66 1918,595.82 " fill="none" id="LinearGraphBuilder-to-LinearGraph" style="stroke:#181818;stroke-width:1.0;stroke-dasharray:7.0,7.0;"/><polygon fill="#181818" points="1918,601.1,1922,592.1,1918,596.1,1914,592.1,1918,601.1" style="stroke:#181818;stroke-width:1.0;"/></g><!--MD5=[3424503866ce59495fc86d961517fb7b]
@startuml completeClassDiagram
package controller {
    class HomeController
    class TraceVisualizerController{
        - strategy_collector : LogInstructionCollectorsStrategy
        - strategy_generator_file : LogInstructionFileGeneratorsStrategy
        - set_strategy_collector(strategy : String) : LogInstructionCollectorsStrategy
        - set_strategy_generator_file(strategy : String) : LogInstructionFileGeneratorsStrategy
    }

    class NewRepoController{
        - home_view : HomeView
    }
}

package model {

    class LogInstructionDiffGenerator{
        + getCommitChanges(commits : List<Commit>) : List<Modification>
    }
    class ReposManager{
        + get_repos(main_repo_path : String)
        + git_pull(repo_path:String)
        + delete_repo(repo_path:String)
        + getBranches(repo_path : String)
        + clone_repo(repo_url:String, repo_path:String)
    }
    package GraphBuilders{
        class Director {
            - builder  : GraphBuilder
            + Director(builder : GraphBuilder)
            + changeBuilder(builder : GraphBuilder)
            + make(type : String)
        }
        interface GraphBuilder{
            + reset()
            + buildStepA()
            + buildStepB()
        }
        class LinearGraphBuilder{
            + reset()
            + buildStepA()
            + buildStepB()
            + getResult() : LinearGraph
        }
        class LinearGraph
    }
    package LogInstructionCollectors{
        interface LogInstructionCollector{
            + getLogInstructions():LogInstruction[]
        }
        class Log4JCollector{
            + getLogInstructions():LogInstruction[]
        }
        class Log4PCollector{
            + getLogInstructions():LogInstruction[]
        }

        class LogInstruction{
            - intruction : String
        }
        class Modification{
            - type : String
            - commit : Commit
        }
    }

    package LogInstructionFileGenerators{
        interface LogInstructionFileGenerator{
            + createFile(logInstructions : List<LogInstruction>)
        }

        class CsvFileGenerator implements LogInstructionFileGenerator{
            + createFile(logInstructions : List<LogInstruction>)
        }
    }
}

package view {
    class CommitWindowView
    class HomeView {
        setRepos(repos : List<Repo>)
        setBranches(branches : List<Branch>)
    }
    class NewRepoView
    class TraceVisualizerView{
        + setLogInstructions(logInstructions : List<LogInstruction>)
        + set_graphic(graphic : LinearGraph)
    }
}

HomeController "1" o- - "1" HomeView
HomeController ..> TraceVisualizerController
HomeController ..> ReposManager
HomeController ..> NewRepoController

TraceVisualizerController "1" o- - "1" TraceVisualizerView
TraceVisualizerController ..> LogInstructionDiffGenerator
TraceVisualizerController "1" o- - "1" LogInstructionCollector
TraceVisualizerController "1" o- - "1" LogInstructionFileGenerator
TraceVisualizerController ..> Director
TraceVisualizerController "1" o- - "1" CommitWindowView

NewRepoController ..> ReposManager
NewRepoController "1" o- - "1" NewRepoView

Log4JCollector .up.|> LogInstructionCollector
Log4PCollector .up.|> LogInstructionCollector
Log4JCollector ..> LogInstruction
Log4PCollector ..> LogInstruction
LogInstruction "1" o- - "*"Modification

Director "1" o- - "1" GraphBuilder
LinearGraphBuilder ..|> GraphBuilder
LinearGraphBuilder ..> LinearGraph

@enduml

PlantUML version 1.2022.7(Mon Aug 22 13:01:30 EDT 2022)
(GPL source distribution)
Java Runtime: Java(TM) SE Runtime Environment
JVM: Java HotSpot(TM) Client VM
Default Encoding: Cp1252
Language: en
Country: US
--></g></svg>