<?xml version="1.0" encoding="UTF-8" standalone="no"?><svg xmlns="http://www.w3.org/2000/svg" xmlns:xlink="http://www.w3.org/1999/xlink" contentStyleType="text/css" height="344px" preserveAspectRatio="none" style="width:534px;height:344px;background:#FFFFFF;" version="1.1" viewBox="0 0 534 344" width="534px" zoomAndPan="magnify"><defs/><g><!--MD5=[93aca6391243a7ec2c9e8eb350c17842]
cluster GraphBuilders--><g id="cluster_GraphBuilders"><path d="M8.5,6 L111.5,6 A3.75,3.75 0 0 1 114,8.5 L121,29.6094 L524.5,29.6094 A2.5,2.5 0 0 1 527,32.1094 L527,334.5 A2.5,2.5 0 0 1 524.5,337 L8.5,337 A2.5,2.5 0 0 1 6,334.5 L6,8.5 A2.5,2.5 0 0 1 8.5,6 " fill="none" style="stroke:#000000;stroke-width:1.5;"/><line style="stroke:#000000;stroke-width:1.5;" x1="6" x2="121" y1="29.6094" y2="29.6094"/><text fill="#000000" font-family="sans-serif" font-size="14" font-weight="bold" lengthAdjust="spacing" textLength="102" x="10" y="22.5332">GraphBuilders</text></g><!--MD5=[57adcbfcd00175f9b7abe25398e7de0c]
class Director--><g id="elem_Director"><rect codeLine="3" fill="#F1F1F1" height="118.4375" id="Director" rx="2.5" ry="2.5" style="stroke:#181818;stroke-width:0.5;" width="266" x="245" y="42"/><ellipse cx="348.75" cy="58" fill="#ADD1B2" rx="11" ry="11" style="stroke:#181818;stroke-width:1.0;"/><path d="M351.5156,53.875 Q351.6719,53.6563 351.8594,53.5469 Q352.0469,53.4375 352.2656,53.4375 Q352.6406,53.4375 352.875,53.6953 Q353.1094,53.9531 353.1094,54.5625 L353.1094,56.0156 Q353.1094,56.625 352.875,56.8906 Q352.6406,57.1563 352.2656,57.1563 Q351.9219,57.1563 351.7188,56.9531 Q351.5156,56.7656 351.4063,56.25 Q351.3594,55.8906 351.1719,55.7031 Q350.8438,55.3281 350.2344,55.1094 Q349.625,54.8906 349,54.8906 Q348.2344,54.8906 347.6016,55.2188 Q346.9688,55.5469 346.4766,56.2969 Q345.9844,57.0469 345.9844,58.0781 L345.9844,59.1719 Q345.9844,60.4063 346.875,61.2266 Q347.7656,62.0469 349.3594,62.0469 Q350.2969,62.0469 350.9531,61.7969 Q351.3438,61.6406 351.7656,61.2031 Q352.0313,60.9375 352.1797,60.8594 Q352.3281,60.7813 352.5313,60.7813 Q352.8594,60.7813 353.1172,61.0391 Q353.375,61.2969 353.375,61.6406 Q353.375,61.9844 353.0313,62.3906 Q352.5313,62.9688 351.7344,63.2969 Q350.6563,63.75 349.3594,63.75 Q347.8438,63.75 346.6406,63.125 Q345.6563,62.625 344.9688,61.5547 Q344.2813,60.4844 344.2813,59.2031 L344.2813,58.0469 Q344.2813,56.7188 344.8984,55.5703 Q345.5156,54.4219 346.6094,53.8047 Q347.7031,53.1875 348.9375,53.1875 Q349.6719,53.1875 350.3203,53.3516 Q350.9688,53.5156 351.5156,53.875 Z " fill="#000000"/><text fill="#000000" font-family="sans-serif" font-size="14" lengthAdjust="spacing" textLength="50" x="369.25" y="63.7285">Director</text><line style="stroke:#181818;stroke-width:0.5;" x1="246" x2="510" y1="74" y2="74"/><rect fill="none" height="6" style="stroke:#C82930;stroke-width:1.0;" width="6" x="253" y="85.3047"/><text fill="#000000" font-family="sans-serif" font-size="14" lengthAdjust="spacing" textLength="143" x="265" y="92.5332">builder  : GraphBuilder</text><line style="stroke:#181818;stroke-width:0.5;" x1="246" x2="510" y1="99.6094" y2="99.6094"/><ellipse cx="256" cy="113.9141" fill="#84BE84" rx="3" ry="3" style="stroke:#038048;stroke-width:1.0;"/><text fill="#000000" font-family="sans-serif" font-size="14" lengthAdjust="spacing" textLength="199" x="265" y="118.1426">Director(builder : GraphBuilder)</text><ellipse cx="256" cy="131.5234" fill="#84BE84" rx="3" ry="3" style="stroke:#038048;stroke-width:1.0;"/><text fill="#000000" font-family="sans-serif" font-size="14" lengthAdjust="spacing" textLength="240" x="265" y="135.752">changeBuilder(builder : GraphBuilder)</text><ellipse cx="256" cy="149.1328" fill="#84BE84" rx="3" ry="3" style="stroke:#038048;stroke-width:1.0;"/><text fill="#000000" font-family="sans-serif" font-size="14" lengthAdjust="spacing" textLength="120" x="265" y="153.3613">make(type : String)</text></g><!--MD5=[79192a478d62deba35bb89aba7222362]
class GraphBuilder--><g id="elem_GraphBuilder"><rect codeLine="9" fill="#F1F1F1" height="100.8281" id="GraphBuilder" rx="2.5" ry="2.5" style="stroke:#181818;stroke-width:0.5;" width="116" x="263" y="220"/><ellipse cx="278" cy="236" fill="#B4A7E5" rx="11" ry="11" style="stroke:#181818;stroke-width:1.0;"/><path d="M278.9531,232.6406 L278.9531,239.2969 L280.6719,239.2969 Q281.2813,239.2969 281.5469,239.5313 Q281.8125,239.7656 281.8125,240.1563 Q281.8125,240.5313 281.5469,240.7656 Q281.2813,241 280.6719,241 L275.5313,241 Q274.9219,241 274.6563,240.7656 Q274.3906,240.5313 274.3906,240.1406 Q274.3906,239.7656 274.6563,239.5313 Q274.9219,239.2969 275.5313,239.2969 L277.25,239.2969 L277.25,232.6406 L275.5313,232.6406 Q274.9219,232.6406 274.6563,232.4063 Q274.3906,232.1719 274.3906,231.7813 Q274.3906,231.4063 274.6563,231.1719 Q274.9219,230.9375 275.5313,230.9375 L280.6719,230.9375 Q281.2813,230.9375 281.5469,231.1719 Q281.8125,231.4063 281.8125,231.7813 Q281.8125,232.1719 281.5469,232.4063 Q281.2813,232.6406 280.6719,232.6406 L278.9531,232.6406 Z " fill="#000000"/><text fill="#000000" font-family="sans-serif" font-size="14" font-style="italic" lengthAdjust="spacing" textLength="84" x="292" y="241.7285">GraphBuilder</text><line style="stroke:#181818;stroke-width:0.5;" x1="264" x2="378" y1="252" y2="252"/><line style="stroke:#181818;stroke-width:0.5;" x1="264" x2="378" y1="260" y2="260"/><ellipse cx="274" cy="274.3047" fill="#84BE84" rx="3" ry="3" style="stroke:#038048;stroke-width:1.0;"/><text fill="#000000" font-family="sans-serif" font-size="14" lengthAdjust="spacing" textLength="42" x="283" y="278.5332">reset()</text><ellipse cx="274" cy="291.9141" fill="#84BE84" rx="3" ry="3" style="stroke:#038048;stroke-width:1.0;"/><text fill="#000000" font-family="sans-serif" font-size="14" lengthAdjust="spacing" textLength="78" x="283" y="296.1426">buildStepA()</text><ellipse cx="274" cy="309.5234" fill="#84BE84" rx="3" ry="3" style="stroke:#038048;stroke-width:1.0;"/><text fill="#000000" font-family="sans-serif" font-size="14" lengthAdjust="spacing" textLength="78" x="283" y="313.752">buildStepB()</text></g><!--MD5=[3fecb71b93e9d3dda2b1f5e1b493efda]
class LinearGraphBuilder--><g id="elem_LinearGraphBuilder"><rect codeLine="14" fill="#F1F1F1" height="118.4375" id="LinearGraphBuilder" rx="2.5" ry="2.5" style="stroke:#181818;stroke-width:0.5;" width="188" x="22" y="42"/><ellipse cx="51.4" cy="58" fill="#ADD1B2" rx="11" ry="11" style="stroke:#181818;stroke-width:1.0;"/><path d="M54.1656,53.875 Q54.3219,53.6563 54.5094,53.5469 Q54.6969,53.4375 54.9156,53.4375 Q55.2906,53.4375 55.525,53.6953 Q55.7594,53.9531 55.7594,54.5625 L55.7594,56.0156 Q55.7594,56.625 55.525,56.8906 Q55.2906,57.1563 54.9156,57.1563 Q54.5719,57.1563 54.3688,56.9531 Q54.1656,56.7656 54.0563,56.25 Q54.0094,55.8906 53.8219,55.7031 Q53.4938,55.3281 52.8844,55.1094 Q52.275,54.8906 51.65,54.8906 Q50.8844,54.8906 50.2516,55.2188 Q49.6188,55.5469 49.1266,56.2969 Q48.6344,57.0469 48.6344,58.0781 L48.6344,59.1719 Q48.6344,60.4063 49.525,61.2266 Q50.4156,62.0469 52.0094,62.0469 Q52.9469,62.0469 53.6031,61.7969 Q53.9938,61.6406 54.4156,61.2031 Q54.6813,60.9375 54.8297,60.8594 Q54.9781,60.7813 55.1813,60.7813 Q55.5094,60.7813 55.7672,61.0391 Q56.025,61.2969 56.025,61.6406 Q56.025,61.9844 55.6813,62.3906 Q55.1813,62.9688 54.3844,63.2969 Q53.3063,63.75 52.0094,63.75 Q50.4938,63.75 49.2906,63.125 Q48.3063,62.625 47.6188,61.5547 Q46.9313,60.4844 46.9313,59.2031 L46.9313,58.0469 Q46.9313,56.7188 47.5484,55.5703 Q48.1656,54.4219 49.2594,53.8047 Q50.3531,53.1875 51.5875,53.1875 Q52.3219,53.1875 52.9703,53.3516 Q53.6188,53.5156 54.1656,53.875 Z " fill="#000000"/><text fill="#000000" font-family="sans-serif" font-size="14" lengthAdjust="spacing" textLength="124" x="68.6" y="63.7285">LinearGraphBuilder</text><line style="stroke:#181818;stroke-width:0.5;" x1="23" x2="209" y1="74" y2="74"/><line style="stroke:#181818;stroke-width:0.5;" x1="23" x2="209" y1="82" y2="82"/><ellipse cx="33" cy="96.3047" fill="#84BE84" rx="3" ry="3" style="stroke:#038048;stroke-width:1.0;"/><text fill="#000000" font-family="sans-serif" font-size="14" lengthAdjust="spacing" textLength="42" x="42" y="100.5332">reset()</text><ellipse cx="33" cy="113.9141" fill="#84BE84" rx="3" ry="3" style="stroke:#038048;stroke-width:1.0;"/><text fill="#000000" font-family="sans-serif" font-size="14" lengthAdjust="spacing" textLength="78" x="42" y="118.1426">buildStepA()</text><ellipse cx="33" cy="131.5234" fill="#84BE84" rx="3" ry="3" style="stroke:#038048;stroke-width:1.0;"/><text fill="#000000" font-family="sans-serif" font-size="14" lengthAdjust="spacing" textLength="78" x="42" y="135.752">buildStepB()</text><ellipse cx="33" cy="149.1328" fill="#84BE84" rx="3" ry="3" style="stroke:#038048;stroke-width:1.0;"/><text fill="#000000" font-family="sans-serif" font-size="14" lengthAdjust="spacing" textLength="162" x="42" y="153.3613">getResult() : LinearGraph</text></g><!--MD5=[6f9993856f7dfcfb32a3e858fdbd3c2d]
class LinearGraph--><g id="elem_LinearGraph"><rect codeLine="20" fill="#F1F1F1" height="48" id="LinearGraph" rx="2.5" ry="2.5" style="stroke:#181818;stroke-width:0.5;" width="112" x="60" y="246.5"/><ellipse cx="75" cy="262.5" fill="#ADD1B2" rx="11" ry="11" style="stroke:#181818;stroke-width:1.0;"/><path d="M77.7656,258.375 Q77.9219,258.1563 78.1094,258.0469 Q78.2969,257.9375 78.5156,257.9375 Q78.8906,257.9375 79.125,258.1953 Q79.3594,258.4531 79.3594,259.0625 L79.3594,260.5156 Q79.3594,261.125 79.125,261.3906 Q78.8906,261.6563 78.5156,261.6563 Q78.1719,261.6563 77.9688,261.4531 Q77.7656,261.2656 77.6563,260.75 Q77.6094,260.3906 77.4219,260.2031 Q77.0938,259.8281 76.4844,259.6094 Q75.875,259.3906 75.25,259.3906 Q74.4844,259.3906 73.8516,259.7188 Q73.2188,260.0469 72.7266,260.7969 Q72.2344,261.5469 72.2344,262.5781 L72.2344,263.6719 Q72.2344,264.9063 73.125,265.7266 Q74.0156,266.5469 75.6094,266.5469 Q76.5469,266.5469 77.2031,266.2969 Q77.5938,266.1406 78.0156,265.7031 Q78.2813,265.4375 78.4297,265.3594 Q78.5781,265.2813 78.7813,265.2813 Q79.1094,265.2813 79.3672,265.5391 Q79.625,265.7969 79.625,266.1406 Q79.625,266.4844 79.2813,266.8906 Q78.7813,267.4688 77.9844,267.7969 Q76.9063,268.25 75.6094,268.25 Q74.0938,268.25 72.8906,267.625 Q71.9063,267.125 71.2188,266.0547 Q70.5313,264.9844 70.5313,263.7031 L70.5313,262.5469 Q70.5313,261.2188 71.1484,260.0703 Q71.7656,258.9219 72.8594,258.3047 Q73.9531,257.6875 75.1875,257.6875 Q75.9219,257.6875 76.5703,257.8516 Q77.2188,258.0156 77.7656,258.375 Z " fill="#000000"/><text fill="#000000" font-family="sans-serif" font-size="14" lengthAdjust="spacing" textLength="80" x="89" y="268.2285">LinearGraph</text><line style="stroke:#181818;stroke-width:0.5;" x1="61" x2="171" y1="278.5" y2="278.5"/><line style="stroke:#181818;stroke-width:0.5;" x1="61" x2="171" y1="286.5" y2="286.5"/></g><!--MD5=[ac07df7ba789d2124ed95a5a34e5b216]
link Director to GraphBuilder--><g id="link_Director_GraphBuilder"><path codeLine="23" d="M358.22,160.11 C352.17,177.91 345.53,197.41 339.56,214.95 " fill="none" id="Director-to-GraphBuilder" style="stroke:#181818;stroke-width:1.0;"/><polygon fill="#181818" points="337.9,219.84,344.5866,212.6088,339.511,215.1067,337.0132,210.0311,337.9,219.84" style="stroke:#181818;stroke-width:1.0;"/></g><!--MD5=[c912761218b11168bb1ebd2a9335857b]
link LinearGraphBuilder to GraphBuilder--><g id="link_LinearGraphBuilder_GraphBuilder"><path codeLine="24" d="M187.12,160.11 C206.55,175.99 227.65,193.23 247.22,209.22 " fill="none" id="LinearGraphBuilder-to-GraphBuilder" style="stroke:#181818;stroke-width:1.0;stroke-dasharray:7.0,7.0;"/><polygon fill="none" points="251.83,203.94,262.89,222.02,242.97,214.78,251.83,203.94" style="stroke:#181818;stroke-width:1.0;"/></g><!--MD5=[8e77f667e62c8d0d21426ffdcdc77ac0]
link LinearGraphBuilder to LinearGraph--><g id="link_LinearGraphBuilder_LinearGraph"><path codeLine="25" d="M116,160.11 C116,187.58 116,219.12 116,241.25 " fill="none" id="LinearGraphBuilder-to-LinearGraph" style="stroke:#181818;stroke-width:1.0;"/><polygon fill="#181818" points="116,246.39,120,237.39,116,241.39,112,237.39,116,246.39" style="stroke:#181818;stroke-width:1.0;"/></g><!--MD5=[aa51f2f6409532441e3555c44f1a31fc]
@startuml GraphBuilders

    package GraphBuilders{
        class Director {
            - builder  : GraphBuilder
            + Director(builder : GraphBuilder)
            + changeBuilder(builder : GraphBuilder)
            + make(type : String)
        }
        interface GraphBuilder{
            + reset()
            + buildStepA()
            + buildStepB()
        }
        class LinearGraphBuilder{
            + reset()
            + buildStepA()
            + buildStepB()
            + getResult() : LinearGraph
        }
        class LinearGraph
    }

Director - -> GraphBuilder
LinearGraphBuilder ..|> GraphBuilder
LinearGraphBuilder - -> LinearGraph
@enduml

PlantUML version 1.2022.7(Mon Aug 22 13:01:30 EDT 2022)
(GPL source distribution)
Java Runtime: Java(TM) SE Runtime Environment
JVM: Java HotSpot(TM) Client VM
Default Encoding: Cp1252
Language: en
Country: US
--></g></svg>