<?xml version="1.0" encoding="UTF-8" standalone="no"?><svg xmlns="http://www.w3.org/2000/svg" xmlns:xlink="http://www.w3.org/1999/xlink" contentStyleType="text/css" height="258px" preserveAspectRatio="none" style="width:1034px;height:258px;background:#FFFFFF;" version="1.1" viewBox="0 0 1034 258" width="1034px" zoomAndPan="magnify"><defs/><g><!--MD5=[3f908ccd3a2056432adfb9e2b53696ab]
class HomeController--><g id="elem_HomeController"><rect codeLine="1" fill="#F1F1F1" height="48" id="HomeController" rx="2.5" ry="2.5" style="stroke:#181818;stroke-width:0.5;" width="130" x="533.5" y="7"/><ellipse cx="548.5" cy="23" fill="#ADD1B2" rx="11" ry="11" style="stroke:#181818;stroke-width:1.0;"/><path d="M551.2656,18.875 Q551.4219,18.6563 551.6094,18.5469 Q551.7969,18.4375 552.0156,18.4375 Q552.3906,18.4375 552.625,18.6953 Q552.8594,18.9531 552.8594,19.5625 L552.8594,21.0156 Q552.8594,21.625 552.625,21.8906 Q552.3906,22.1563 552.0156,22.1563 Q551.6719,22.1563 551.4688,21.9531 Q551.2656,21.7656 551.1563,21.25 Q551.1094,20.8906 550.9219,20.7031 Q550.5938,20.3281 549.9844,20.1094 Q549.375,19.8906 548.75,19.8906 Q547.9844,19.8906 547.3516,20.2188 Q546.7188,20.5469 546.2266,21.2969 Q545.7344,22.0469 545.7344,23.0781 L545.7344,24.1719 Q545.7344,25.4063 546.625,26.2266 Q547.5156,27.0469 549.1094,27.0469 Q550.0469,27.0469 550.7031,26.7969 Q551.0938,26.6406 551.5156,26.2031 Q551.7813,25.9375 551.9297,25.8594 Q552.0781,25.7813 552.2813,25.7813 Q552.6094,25.7813 552.8672,26.0391 Q553.125,26.2969 553.125,26.6406 Q553.125,26.9844 552.7813,27.3906 Q552.2813,27.9688 551.4844,28.2969 Q550.4063,28.75 549.1094,28.75 Q547.5938,28.75 546.3906,28.125 Q545.4063,27.625 544.7188,26.5547 Q544.0313,25.4844 544.0313,24.2031 L544.0313,23.0469 Q544.0313,21.7188 544.6484,20.5703 Q545.2656,19.4219 546.3594,18.8047 Q547.4531,18.1875 548.6875,18.1875 Q549.4219,18.1875 550.0703,18.3516 Q550.7188,18.5156 551.2656,18.875 Z " fill="#000000"/><text fill="#000000" font-family="sans-serif" font-size="14" lengthAdjust="spacing" textLength="98" x="562.5" y="28.7285">HomeController</text><line style="stroke:#181818;stroke-width:0.5;" x1="534.5" x2="662.5" y1="39" y2="39"/><line style="stroke:#181818;stroke-width:0.5;" x1="534.5" x2="662.5" y1="47" y2="47"/></g><!--MD5=[638d2833c1deeea8266eb58e4e049321]
class HomeView--><g id="elem_HomeView"><rect codeLine="3" fill="#F1F1F1" height="83.2188" id="HomeView" rx="2.5" ry="2.5" style="stroke:#181818;stroke-width:0.5;" width="255" x="7" y="141.5"/><ellipse cx="97.75" cy="157.5" fill="#ADD1B2" rx="11" ry="11" style="stroke:#181818;stroke-width:1.0;"/><path d="M100.5156,153.375 Q100.6719,153.1563 100.8594,153.0469 Q101.0469,152.9375 101.2656,152.9375 Q101.6406,152.9375 101.875,153.1953 Q102.1094,153.4531 102.1094,154.0625 L102.1094,155.5156 Q102.1094,156.125 101.875,156.3906 Q101.6406,156.6563 101.2656,156.6563 Q100.9219,156.6563 100.7188,156.4531 Q100.5156,156.2656 100.4063,155.75 Q100.3594,155.3906 100.1719,155.2031 Q99.8438,154.8281 99.2344,154.6094 Q98.625,154.3906 98,154.3906 Q97.2344,154.3906 96.6016,154.7188 Q95.9688,155.0469 95.4766,155.7969 Q94.9844,156.5469 94.9844,157.5781 L94.9844,158.6719 Q94.9844,159.9063 95.875,160.7266 Q96.7656,161.5469 98.3594,161.5469 Q99.2969,161.5469 99.9531,161.2969 Q100.3438,161.1406 100.7656,160.7031 Q101.0313,160.4375 101.1797,160.3594 Q101.3281,160.2813 101.5313,160.2813 Q101.8594,160.2813 102.1172,160.5391 Q102.375,160.7969 102.375,161.1406 Q102.375,161.4844 102.0313,161.8906 Q101.5313,162.4688 100.7344,162.7969 Q99.6563,163.25 98.3594,163.25 Q96.8438,163.25 95.6406,162.625 Q94.6563,162.125 93.9688,161.0547 Q93.2813,159.9844 93.2813,158.7031 L93.2813,157.5469 Q93.2813,156.2188 93.8984,155.0703 Q94.5156,153.9219 95.6094,153.3047 Q96.7031,152.6875 97.9375,152.6875 Q98.6719,152.6875 99.3203,152.8516 Q99.9688,153.0156 100.5156,153.375 Z " fill="#000000"/><text fill="#000000" font-family="sans-serif" font-size="14" lengthAdjust="spacing" textLength="65" x="118.25" y="163.2285">HomeView</text><line style="stroke:#181818;stroke-width:0.5;" x1="8" x2="261" y1="173.5" y2="173.5"/><line style="stroke:#181818;stroke-width:0.5;" x1="8" x2="261" y1="181.5" y2="181.5"/><text fill="#000000" font-family="sans-serif" font-size="14" lengthAdjust="spacing" textLength="190" x="13" y="200.0332">setRepos(repos : List&lt;Repo&gt;)</text><text fill="#000000" font-family="sans-serif" font-size="14" lengthAdjust="spacing" textLength="243" x="13" y="217.6426">setBranches(branches : List&lt;Branch&gt;)</text></g><!--MD5=[32206ff2be32f597e6f8bddc11836e68]
class ReposManager--><g id="elem_ReposManager"><rect codeLine="8" fill="#F1F1F1" height="136.0469" id="ReposManager" rx="2.5" ry="2.5" style="stroke:#181818;stroke-width:0.5;" width="315" x="297" y="115"/><ellipse cx="401.75" cy="131" fill="#ADD1B2" rx="11" ry="11" style="stroke:#181818;stroke-width:1.0;"/><path d="M404.5156,126.875 Q404.6719,126.6563 404.8594,126.5469 Q405.0469,126.4375 405.2656,126.4375 Q405.6406,126.4375 405.875,126.6953 Q406.1094,126.9531 406.1094,127.5625 L406.1094,129.0156 Q406.1094,129.625 405.875,129.8906 Q405.6406,130.1563 405.2656,130.1563 Q404.9219,130.1563 404.7188,129.9531 Q404.5156,129.7656 404.4063,129.25 Q404.3594,128.8906 404.1719,128.7031 Q403.8438,128.3281 403.2344,128.1094 Q402.625,127.8906 402,127.8906 Q401.2344,127.8906 400.6016,128.2188 Q399.9688,128.5469 399.4766,129.2969 Q398.9844,130.0469 398.9844,131.0781 L398.9844,132.1719 Q398.9844,133.4063 399.875,134.2266 Q400.7656,135.0469 402.3594,135.0469 Q403.2969,135.0469 403.9531,134.7969 Q404.3438,134.6406 404.7656,134.2031 Q405.0313,133.9375 405.1797,133.8594 Q405.3281,133.7813 405.5313,133.7813 Q405.8594,133.7813 406.1172,134.0391 Q406.375,134.2969 406.375,134.6406 Q406.375,134.9844 406.0313,135.3906 Q405.5313,135.9688 404.7344,136.2969 Q403.6563,136.75 402.3594,136.75 Q400.8438,136.75 399.6406,136.125 Q398.6563,135.625 397.9688,134.5547 Q397.2813,133.4844 397.2813,132.2031 L397.2813,131.0469 Q397.2813,129.7188 397.8984,128.5703 Q398.5156,127.4219 399.6094,126.8047 Q400.7031,126.1875 401.9375,126.1875 Q402.6719,126.1875 403.3203,126.3516 Q403.9688,126.5156 404.5156,126.875 Z " fill="#000000"/><text fill="#000000" font-family="sans-serif" font-size="14" lengthAdjust="spacing" textLength="97" x="422.25" y="136.7285">ReposManager</text><line style="stroke:#181818;stroke-width:0.5;" x1="298" x2="611" y1="147" y2="147"/><line style="stroke:#181818;stroke-width:0.5;" x1="298" x2="611" y1="155" y2="155"/><ellipse cx="308" cy="169.3047" fill="#84BE84" rx="3" ry="3" style="stroke:#038048;stroke-width:1.0;"/><text fill="#000000" font-family="sans-serif" font-size="14" lengthAdjust="spacing" textLength="226" x="317" y="173.5332">get_repos(main_repo_path : String)</text><ellipse cx="308" cy="186.9141" fill="#84BE84" rx="3" ry="3" style="stroke:#038048;stroke-width:1.0;"/><text fill="#000000" font-family="sans-serif" font-size="14" lengthAdjust="spacing" textLength="161" x="317" y="191.1426">git_pull(repo_path:String)</text><ellipse cx="308" cy="204.5234" fill="#84BE84" rx="3" ry="3" style="stroke:#038048;stroke-width:1.0;"/><text fill="#000000" font-family="sans-serif" font-size="14" lengthAdjust="spacing" textLength="192" x="317" y="208.752">delete_repo(repo_path:String)</text><ellipse cx="308" cy="222.1328" fill="#84BE84" rx="3" ry="3" style="stroke:#038048;stroke-width:1.0;"/><text fill="#000000" font-family="sans-serif" font-size="14" lengthAdjust="spacing" textLength="204" x="317" y="226.3613">getBranches(repo_path : String)</text><ellipse cx="308" cy="239.7422" fill="#84BE84" rx="3" ry="3" style="stroke:#038048;stroke-width:1.0;"/><text fill="#000000" font-family="sans-serif" font-size="14" lengthAdjust="spacing" textLength="289" x="317" y="243.9707">clone_repo(repo_url:String, repo_path:String)</text></g><!--MD5=[624fda96084990f474dbb692f3ed956d]
class TraceVisualizerController--><g id="elem_TraceVisualizerController"><rect fill="#F1F1F1" height="48" id="TraceVisualizerController" rx="2.5" ry="2.5" style="stroke:#181818;stroke-width:0.5;" width="191" x="647" y="159"/><ellipse cx="662" cy="175" fill="#ADD1B2" rx="11" ry="11" style="stroke:#181818;stroke-width:1.0;"/><path d="M664.7656,170.875 Q664.9219,170.6563 665.1094,170.5469 Q665.2969,170.4375 665.5156,170.4375 Q665.8906,170.4375 666.125,170.6953 Q666.3594,170.9531 666.3594,171.5625 L666.3594,173.0156 Q666.3594,173.625 666.125,173.8906 Q665.8906,174.1563 665.5156,174.1563 Q665.1719,174.1563 664.9688,173.9531 Q664.7656,173.7656 664.6563,173.25 Q664.6094,172.8906 664.4219,172.7031 Q664.0938,172.3281 663.4844,172.1094 Q662.875,171.8906 662.25,171.8906 Q661.4844,171.8906 660.8516,172.2188 Q660.2188,172.5469 659.7266,173.2969 Q659.2344,174.0469 659.2344,175.0781 L659.2344,176.1719 Q659.2344,177.4063 660.125,178.2266 Q661.0156,179.0469 662.6094,179.0469 Q663.5469,179.0469 664.2031,178.7969 Q664.5938,178.6406 665.0156,178.2031 Q665.2813,177.9375 665.4297,177.8594 Q665.5781,177.7813 665.7813,177.7813 Q666.1094,177.7813 666.3672,178.0391 Q666.625,178.2969 666.625,178.6406 Q666.625,178.9844 666.2813,179.3906 Q665.7813,179.9688 664.9844,180.2969 Q663.9063,180.75 662.6094,180.75 Q661.0938,180.75 659.8906,180.125 Q658.9063,179.625 658.2188,178.5547 Q657.5313,177.4844 657.5313,176.2031 L657.5313,175.0469 Q657.5313,173.7188 658.1484,172.5703 Q658.7656,171.4219 659.8594,170.8047 Q660.9531,170.1875 662.1875,170.1875 Q662.9219,170.1875 663.5703,170.3516 Q664.2188,170.5156 664.7656,170.875 Z " fill="#000000"/><text fill="#000000" font-family="sans-serif" font-size="14" lengthAdjust="spacing" textLength="159" x="676" y="180.7285">TraceVisualizerController</text><line style="stroke:#181818;stroke-width:0.5;" x1="648" x2="837" y1="191" y2="191"/><line style="stroke:#181818;stroke-width:0.5;" x1="648" x2="837" y1="199" y2="199"/></g><!--MD5=[1f0ad5f0d1fa1a6c0560668d4d92649b]
class NewRepoController--><g id="elem_NewRepoController"><rect fill="#F1F1F1" height="48" id="NewRepoController" rx="2.5" ry="2.5" style="stroke:#181818;stroke-width:0.5;" width="154" x="873.5" y="159"/><ellipse cx="888.5" cy="175" fill="#ADD1B2" rx="11" ry="11" style="stroke:#181818;stroke-width:1.0;"/><path d="M891.2656,170.875 Q891.4219,170.6563 891.6094,170.5469 Q891.7969,170.4375 892.0156,170.4375 Q892.3906,170.4375 892.625,170.6953 Q892.8594,170.9531 892.8594,171.5625 L892.8594,173.0156 Q892.8594,173.625 892.625,173.8906 Q892.3906,174.1563 892.0156,174.1563 Q891.6719,174.1563 891.4688,173.9531 Q891.2656,173.7656 891.1563,173.25 Q891.1094,172.8906 890.9219,172.7031 Q890.5938,172.3281 889.9844,172.1094 Q889.375,171.8906 888.75,171.8906 Q887.9844,171.8906 887.3516,172.2188 Q886.7188,172.5469 886.2266,173.2969 Q885.7344,174.0469 885.7344,175.0781 L885.7344,176.1719 Q885.7344,177.4063 886.625,178.2266 Q887.5156,179.0469 889.1094,179.0469 Q890.0469,179.0469 890.7031,178.7969 Q891.0938,178.6406 891.5156,178.2031 Q891.7813,177.9375 891.9297,177.8594 Q892.0781,177.7813 892.2813,177.7813 Q892.6094,177.7813 892.8672,178.0391 Q893.125,178.2969 893.125,178.6406 Q893.125,178.9844 892.7813,179.3906 Q892.2813,179.9688 891.4844,180.2969 Q890.4063,180.75 889.1094,180.75 Q887.5938,180.75 886.3906,180.125 Q885.4063,179.625 884.7188,178.5547 Q884.0313,177.4844 884.0313,176.2031 L884.0313,175.0469 Q884.0313,173.7188 884.6484,172.5703 Q885.2656,171.4219 886.3594,170.8047 Q887.4531,170.1875 888.6875,170.1875 Q889.4219,170.1875 890.0703,170.3516 Q890.7188,170.5156 891.2656,170.875 Z " fill="#000000"/><text fill="#000000" font-family="sans-serif" font-size="14" lengthAdjust="spacing" textLength="122" x="902.5" y="180.7285">NewRepoController</text><line style="stroke:#181818;stroke-width:0.5;" x1="874.5" x2="1026.5" y1="191" y2="191"/><line style="stroke:#181818;stroke-width:0.5;" x1="874.5" x2="1026.5" y1="199" y2="199"/></g><!--MD5=[f6b2a2985ef9700565fd6caf5495fc7e]
reverse link HomeController to HomeView--><g id="link_HomeController_HomeView"><path codeLine="16" d="M520.26,48.26 C454.95,62.8 359.9,86.23 279.5,115 C258.35,122.57 236.07,132.06 215.49,141.49 " fill="none" id="HomeController-backto-HomeView" style="stroke:#181818;stroke-width:1.0;"/><polygon fill="none" points="533.32,45.38,526.5995,42.7656,521.6014,47.9636,528.3219,50.578,533.32,45.38" style="stroke:#181818;stroke-width:1.0;"/><text fill="#000000" font-family="sans-serif" font-size="13" lengthAdjust="spacing" textLength="7" x="518.3789" y="43.6331">1</text><text fill="#000000" font-family="sans-serif" font-size="13" lengthAdjust="spacing" textLength="7" x="221.3243" y="130.796">1</text></g><!--MD5=[1b265ae96e7a3d29957e8e548b564e3e]
link HomeController to TraceVisualizerController--><g id="link_HomeController_TraceVisualizerController"><path codeLine="17" d="M620.68,55.11 C646.51,82.01 689.1,126.37 716.46,154.88 " fill="none" id="HomeController-to-TraceVisualizerController" style="stroke:#181818;stroke-width:1.0;stroke-dasharray:7.0,7.0;"/><polygon fill="#181818" points="720.05,158.62,716.7012,149.3579,716.5867,155.0136,710.931,154.8991,720.05,158.62" style="stroke:#181818;stroke-width:1.0;"/></g><!--MD5=[1850f9dbcba1d646be9a807cf0961ae7]
link HomeController to ReposManager--><g id="link_HomeController_ReposManager"><path codeLine="18" d="M576.32,55.11 C561.83,70.19 542.08,90.78 522.69,110.97 " fill="none" id="HomeController-to-ReposManager" style="stroke:#181818;stroke-width:1.0;stroke-dasharray:7.0,7.0;"/><polygon fill="#181818" points="519.07,114.74,528.1816,111.0011,522.5261,111.1268,522.4004,105.4713,519.07,114.74" style="stroke:#181818;stroke-width:1.0;"/></g><!--MD5=[83501fea4de216da77353b26b5134ec3]
link HomeController to NewRepoController--><g id="link_HomeController_NewRepoController"><path codeLine="19" d="M663.71,47.22 C716.97,61.01 793.32,83.93 855.5,115 C877.64,126.06 900.36,141.89 918.03,155.39 " fill="none" id="HomeController-to-NewRepoController" style="stroke:#181818;stroke-width:1.0;stroke-dasharray:7.0,7.0;"/><polygon fill="#181818" points="922.41,158.77,917.7333,150.1023,918.4533,155.7132,912.8424,156.4331,922.41,158.77" style="stroke:#181818;stroke-width:1.0;"/></g><!--MD5=[4d36ac4e3397c9c9989ad2db2761e765]
@startuml HomeController
    class HomeController

    class HomeView {
        setRepos(repos : List<Repo>)
        setBranches(branches : List<Branch>)
    }

    class ReposManager{
        + get_repos(main_repo_path : String)
        + git_pull(repo_path:String)
        + delete_repo(repo_path:String)
        + getBranches(repo_path : String)
        + clone_repo(repo_url:String, repo_path:String)
    }

    HomeController "1" o- - "1" HomeView
    HomeController ..> TraceVisualizerController
    HomeController ..> ReposManager
    HomeController ..> NewRepoController

@enduml

PlantUML version 1.2022.7(Mon Aug 22 13:01:30 EDT 2022)
(GPL source distribution)
Java Runtime: Java(TM) SE Runtime Environment
JVM: Java HotSpot(TM) Client VM
Default Encoding: Cp1252
Language: en
Country: US
--></g></svg>