<?xml version="1.0" encoding="UTF-8" standalone="no"?><svg xmlns="http://www.w3.org/2000/svg" xmlns:xlink="http://www.w3.org/1999/xlink" contentStyleType="text/css" height="526px" preserveAspectRatio="none" style="width:371px;height:526px;background:#FFFFFF;" version="1.1" viewBox="0 0 371 526" width="371px" zoomAndPan="magnify"><defs/><g><!--MD5=[69c1e447a2abbf73a81ee99126eb94a3]
cluster LogInstructionCollectors--><g id="cluster_LogInstructionCollectors"><path d="M8.5,6 L183.5,6 A3.75,3.75 0 0 1 186,8.5 L193,29.6094 L361.5,29.6094 A2.5,2.5 0 0 1 364,32.1094 L364,516.5 A2.5,2.5 0 0 1 361.5,519 L8.5,519 A2.5,2.5 0 0 1 6,516.5 L6,8.5 A2.5,2.5 0 0 1 8.5,6 " fill="none" style="stroke:#000000;stroke-width:1.5;"/><line style="stroke:#000000;stroke-width:1.5;" x1="6" x2="193" y1="29.6094" y2="29.6094"/><text fill="#000000" font-family="sans-serif" font-size="14" font-weight="bold" lengthAdjust="spacing" textLength="174" x="10" y="22.5332">LogInstructionCollectors</text></g><!--MD5=[eb1b21c623a6d695731a5485efcb9819]
class LogInstructionCollector--><g id="elem_LogInstructionCollector"><rect codeLine="2" fill="#F1F1F1" height="65.6094" id="LogInstructionCollector" rx="2.5" ry="2.5" style="stroke:#181818;stroke-width:0.5;" width="178" x="96" y="42"/><ellipse cx="111" cy="58" fill="#B4A7E5" rx="11" ry="11" style="stroke:#181818;stroke-width:1.0;"/><path d="M111.9531,54.6406 L111.9531,61.2969 L113.6719,61.2969 Q114.2813,61.2969 114.5469,61.5313 Q114.8125,61.7656 114.8125,62.1563 Q114.8125,62.5313 114.5469,62.7656 Q114.2813,63 113.6719,63 L108.5313,63 Q107.9219,63 107.6563,62.7656 Q107.3906,62.5313 107.3906,62.1406 Q107.3906,61.7656 107.6563,61.5313 Q107.9219,61.2969 108.5313,61.2969 L110.25,61.2969 L110.25,54.6406 L108.5313,54.6406 Q107.9219,54.6406 107.6563,54.4063 Q107.3906,54.1719 107.3906,53.7813 Q107.3906,53.4063 107.6563,53.1719 Q107.9219,52.9375 108.5313,52.9375 L113.6719,52.9375 Q114.2813,52.9375 114.5469,53.1719 Q114.8125,53.4063 114.8125,53.7813 Q114.8125,54.1719 114.5469,54.4063 Q114.2813,54.6406 113.6719,54.6406 L111.9531,54.6406 Z " fill="#000000"/><text fill="#000000" font-family="sans-serif" font-size="14" font-style="italic" lengthAdjust="spacing" textLength="146" x="125" y="63.7285">LogInstructionCollector</text><line style="stroke:#181818;stroke-width:0.5;" x1="97" x2="273" y1="74" y2="74"/><line style="stroke:#181818;stroke-width:0.5;" x1="97" x2="273" y1="82" y2="82"/><ellipse cx="107" cy="96.3047" fill="#84BE84" rx="3" ry="3" style="stroke:#038048;stroke-width:1.0;"/><text fill="#000000" font-family="sans-serif" font-size="14" lengthAdjust="spacing" textLength="119" x="116" y="100.5332">getLogInstruction()</text></g><!--MD5=[e8f52cef377e304b977822c8772acb84]
class Log4JCollector--><g id="elem_Log4JCollector"><rect codeLine="6" fill="#F1F1F1" height="65.6094" id="Log4JCollector" rx="2.5" ry="2.5" style="stroke:#181818;stroke-width:0.5;" width="145" x="22.5" y="168"/><ellipse cx="46.05" cy="184" fill="#ADD1B2" rx="11" ry="11" style="stroke:#181818;stroke-width:1.0;"/><path d="M48.8156,179.875 Q48.9719,179.6563 49.1594,179.5469 Q49.3469,179.4375 49.5656,179.4375 Q49.9406,179.4375 50.175,179.6953 Q50.4094,179.9531 50.4094,180.5625 L50.4094,182.0156 Q50.4094,182.625 50.175,182.8906 Q49.9406,183.1563 49.5656,183.1563 Q49.2219,183.1563 49.0188,182.9531 Q48.8156,182.7656 48.7063,182.25 Q48.6594,181.8906 48.4719,181.7031 Q48.1438,181.3281 47.5344,181.1094 Q46.925,180.8906 46.3,180.8906 Q45.5344,180.8906 44.9016,181.2188 Q44.2688,181.5469 43.7766,182.2969 Q43.2844,183.0469 43.2844,184.0781 L43.2844,185.1719 Q43.2844,186.4063 44.175,187.2266 Q45.0656,188.0469 46.6594,188.0469 Q47.5969,188.0469 48.2531,187.7969 Q48.6438,187.6406 49.0656,187.2031 Q49.3313,186.9375 49.4797,186.8594 Q49.6281,186.7813 49.8313,186.7813 Q50.1594,186.7813 50.4172,187.0391 Q50.675,187.2969 50.675,187.6406 Q50.675,187.9844 50.3313,188.3906 Q49.8313,188.9688 49.0344,189.2969 Q47.9563,189.75 46.6594,189.75 Q45.1438,189.75 43.9406,189.125 Q42.9563,188.625 42.2688,187.5547 Q41.5813,186.4844 41.5813,185.2031 L41.5813,184.0469 Q41.5813,182.7188 42.1984,181.5703 Q42.8156,180.4219 43.9094,179.8047 Q45.0031,179.1875 46.2375,179.1875 Q46.9719,179.1875 47.6203,179.3516 Q48.2688,179.5156 48.8156,179.875 Z " fill="#000000"/><text fill="#000000" font-family="sans-serif" font-size="14" lengthAdjust="spacing" textLength="94" x="61.95" y="189.7285">Log4JCollector</text><line style="stroke:#181818;stroke-width:0.5;" x1="23.5" x2="166.5" y1="200" y2="200"/><line style="stroke:#181818;stroke-width:0.5;" x1="23.5" x2="166.5" y1="208" y2="208"/><ellipse cx="33.5" cy="222.3047" fill="#84BE84" rx="3" ry="3" style="stroke:#038048;stroke-width:1.0;"/><text fill="#000000" font-family="sans-serif" font-size="14" lengthAdjust="spacing" textLength="119" x="42.5" y="226.5332">getLogInstruction()</text></g><!--MD5=[e495d209213e4713227ad5c144ffc56b]
class Log4PCollector--><g id="elem_Log4PCollector"><rect codeLine="10" fill="#F1F1F1" height="65.6094" id="Log4PCollector" rx="2.5" ry="2.5" style="stroke:#181818;stroke-width:0.5;" width="145" x="202.5" y="168"/><ellipse cx="224.7" cy="184" fill="#ADD1B2" rx="11" ry="11" style="stroke:#181818;stroke-width:1.0;"/><path d="M227.4656,179.875 Q227.6219,179.6563 227.8094,179.5469 Q227.9969,179.4375 228.2156,179.4375 Q228.5906,179.4375 228.825,179.6953 Q229.0594,179.9531 229.0594,180.5625 L229.0594,182.0156 Q229.0594,182.625 228.825,182.8906 Q228.5906,183.1563 228.2156,183.1563 Q227.8719,183.1563 227.6688,182.9531 Q227.4656,182.7656 227.3563,182.25 Q227.3094,181.8906 227.1219,181.7031 Q226.7938,181.3281 226.1844,181.1094 Q225.575,180.8906 224.95,180.8906 Q224.1844,180.8906 223.5516,181.2188 Q222.9188,181.5469 222.4266,182.2969 Q221.9344,183.0469 221.9344,184.0781 L221.9344,185.1719 Q221.9344,186.4063 222.825,187.2266 Q223.7156,188.0469 225.3094,188.0469 Q226.2469,188.0469 226.9031,187.7969 Q227.2938,187.6406 227.7156,187.2031 Q227.9813,186.9375 228.1297,186.8594 Q228.2781,186.7813 228.4813,186.7813 Q228.8094,186.7813 229.0672,187.0391 Q229.325,187.2969 229.325,187.6406 Q229.325,187.9844 228.9813,188.3906 Q228.4813,188.9688 227.6844,189.2969 Q226.6063,189.75 225.3094,189.75 Q223.7938,189.75 222.5906,189.125 Q221.6063,188.625 220.9188,187.5547 Q220.2313,186.4844 220.2313,185.2031 L220.2313,184.0469 Q220.2313,182.7188 220.8484,181.5703 Q221.4656,180.4219 222.5594,179.8047 Q223.6531,179.1875 224.8875,179.1875 Q225.6219,179.1875 226.2703,179.3516 Q226.9188,179.5156 227.4656,179.875 Z " fill="#000000"/><text fill="#000000" font-family="sans-serif" font-size="14" lengthAdjust="spacing" textLength="97" x="240.3" y="189.7285">Log4PCollector</text><line style="stroke:#181818;stroke-width:0.5;" x1="203.5" x2="346.5" y1="200" y2="200"/><line style="stroke:#181818;stroke-width:0.5;" x1="203.5" x2="346.5" y1="208" y2="208"/><ellipse cx="213.5" cy="222.3047" fill="#84BE84" rx="3" ry="3" style="stroke:#038048;stroke-width:1.0;"/><text fill="#000000" font-family="sans-serif" font-size="14" lengthAdjust="spacing" textLength="119" x="222.5" y="226.5332">getLogInstruction()</text></g><!--MD5=[618ac1cf5bc8a3d04f724c7f019864e3]
class LogInstruction--><g id="elem_LogInstruction"><rect codeLine="13" fill="#F1F1F1" height="65.6094" id="LogInstruction" rx="2.5" ry="2.5" style="stroke:#181818;stroke-width:0.5;" width="140" x="115" y="294"/><ellipse cx="138.55" cy="310" fill="#ADD1B2" rx="11" ry="11" style="stroke:#181818;stroke-width:1.0;"/><path d="M141.3156,305.875 Q141.4719,305.6563 141.6594,305.5469 Q141.8469,305.4375 142.0656,305.4375 Q142.4406,305.4375 142.675,305.6953 Q142.9094,305.9531 142.9094,306.5625 L142.9094,308.0156 Q142.9094,308.625 142.675,308.8906 Q142.4406,309.1563 142.0656,309.1563 Q141.7219,309.1563 141.5188,308.9531 Q141.3156,308.7656 141.2063,308.25 Q141.1594,307.8906 140.9719,307.7031 Q140.6438,307.3281 140.0344,307.1094 Q139.425,306.8906 138.8,306.8906 Q138.0344,306.8906 137.4016,307.2188 Q136.7688,307.5469 136.2766,308.2969 Q135.7844,309.0469 135.7844,310.0781 L135.7844,311.1719 Q135.7844,312.4063 136.675,313.2266 Q137.5656,314.0469 139.1594,314.0469 Q140.0969,314.0469 140.7531,313.7969 Q141.1438,313.6406 141.5656,313.2031 Q141.8313,312.9375 141.9797,312.8594 Q142.1281,312.7813 142.3313,312.7813 Q142.6594,312.7813 142.9172,313.0391 Q143.175,313.2969 143.175,313.6406 Q143.175,313.9844 142.8313,314.3906 Q142.3313,314.9688 141.5344,315.2969 Q140.4563,315.75 139.1594,315.75 Q137.6438,315.75 136.4406,315.125 Q135.4563,314.625 134.7688,313.5547 Q134.0813,312.4844 134.0813,311.2031 L134.0813,310.0469 Q134.0813,308.7188 134.6984,307.5703 Q135.3156,306.4219 136.4094,305.8047 Q137.5031,305.1875 138.7375,305.1875 Q139.4719,305.1875 140.1203,305.3516 Q140.7688,305.5156 141.3156,305.875 Z " fill="#000000"/><text fill="#000000" font-family="sans-serif" font-size="14" lengthAdjust="spacing" textLength="89" x="154.45" y="315.7285">LogInstruction</text><line style="stroke:#181818;stroke-width:0.5;" x1="116" x2="254" y1="326" y2="326"/><rect fill="none" height="6" style="stroke:#C82930;stroke-width:1.0;" width="6" x="123" y="337.3047"/><text fill="#000000" font-family="sans-serif" font-size="14" lengthAdjust="spacing" textLength="114" x="135" y="344.5332">instruction : String</text><line style="stroke:#181818;stroke-width:0.5;" x1="116" x2="254" y1="351.6094" y2="351.6094"/></g><!--MD5=[392569bdf4cc06d7d4c14230b81d2d7d]
class Modification--><g id="elem_Modification"><rect codeLine="16" fill="#F1F1F1" height="83.2188" id="Modification" rx="2.5" ry="2.5" style="stroke:#181818;stroke-width:0.5;" width="129" x="120.5" y="420"/><ellipse cx="145.4" cy="436" fill="#ADD1B2" rx="11" ry="11" style="stroke:#181818;stroke-width:1.0;"/><path d="M148.1656,431.875 Q148.3219,431.6563 148.5094,431.5469 Q148.6969,431.4375 148.9156,431.4375 Q149.2906,431.4375 149.525,431.6953 Q149.7594,431.9531 149.7594,432.5625 L149.7594,434.0156 Q149.7594,434.625 149.525,434.8906 Q149.2906,435.1563 148.9156,435.1563 Q148.5719,435.1563 148.3688,434.9531 Q148.1656,434.7656 148.0563,434.25 Q148.0094,433.8906 147.8219,433.7031 Q147.4938,433.3281 146.8844,433.1094 Q146.275,432.8906 145.65,432.8906 Q144.8844,432.8906 144.2516,433.2188 Q143.6188,433.5469 143.1266,434.2969 Q142.6344,435.0469 142.6344,436.0781 L142.6344,437.1719 Q142.6344,438.4063 143.525,439.2266 Q144.4156,440.0469 146.0094,440.0469 Q146.9469,440.0469 147.6031,439.7969 Q147.9938,439.6406 148.4156,439.2031 Q148.6813,438.9375 148.8297,438.8594 Q148.9781,438.7813 149.1813,438.7813 Q149.5094,438.7813 149.7672,439.0391 Q150.025,439.2969 150.025,439.6406 Q150.025,439.9844 149.6813,440.3906 Q149.1813,440.9688 148.3844,441.2969 Q147.3063,441.75 146.0094,441.75 Q144.4938,441.75 143.2906,441.125 Q142.3063,440.625 141.6188,439.5547 Q140.9313,438.4844 140.9313,437.2031 L140.9313,436.0469 Q140.9313,434.7188 141.5484,433.5703 Q142.1656,432.4219 143.2594,431.8047 Q144.3531,431.1875 145.5875,431.1875 Q146.3219,431.1875 146.9703,431.3516 Q147.6188,431.5156 148.1656,431.875 Z " fill="#000000"/><text fill="#000000" font-family="sans-serif" font-size="14" lengthAdjust="spacing" textLength="75" x="161.6" y="441.7285">Modification</text><line style="stroke:#181818;stroke-width:0.5;" x1="121.5" x2="248.5" y1="452" y2="452"/><rect fill="none" height="6" style="stroke:#C82930;stroke-width:1.0;" width="6" x="128.5" y="463.3047"/><text fill="#000000" font-family="sans-serif" font-size="14" lengthAdjust="spacing" textLength="76" x="140.5" y="470.5332">type : String</text><rect fill="none" height="6" style="stroke:#C82930;stroke-width:1.0;" width="6" x="128.5" y="480.9141"/><text fill="#000000" font-family="sans-serif" font-size="14" lengthAdjust="spacing" textLength="103" x="140.5" y="488.1426">commit : Commit</text><line style="stroke:#181818;stroke-width:0.5;" x1="121.5" x2="248.5" y1="495.2188" y2="495.2188"/></g><!--MD5=[d9531bf4c0924c7b841235d841836e0c]
reverse link LogInstructionCollector to Log4JCollector--><g id="link_LogInstructionCollector_Log4JCollector"><path d="M149.7,124.64 C139.15,139.16 127.86,154.72 118.29,167.91 " fill="none" id="LogInstructionCollector-backto-Log4JCollector" style="stroke:#181818;stroke-width:1.0;stroke-dasharray:7.0,7.0;"/><polygon fill="none" points="144.18,120.33,161.59,108.26,155.51,128.55,144.18,120.33" style="stroke:#181818;stroke-width:1.0;"/></g><!--MD5=[c31df28cb2bf3073cd109ae9d17b7d09]
reverse link LogInstructionCollector to Log4PCollector--><g id="link_LogInstructionCollector_Log4PCollector"><path d="M220.3,124.64 C230.85,139.16 242.14,154.72 251.71,167.91 " fill="none" id="LogInstructionCollector-backto-Log4PCollector" style="stroke:#181818;stroke-width:1.0;stroke-dasharray:7.0,7.0;"/><polygon fill="none" points="214.49,128.55,208.41,108.26,225.82,120.33,214.49,128.55" style="stroke:#181818;stroke-width:1.0;"/></g><!--MD5=[5eafe718b242a5d25b945415ff88ba20]
link Log4JCollector to LogInstruction--><g id="link_Log4JCollector_LogInstruction"><path codeLine="22" d="M118.41,234.26 C130.7,251.19 145.81,272.01 158.53,289.53 " fill="none" id="Log4JCollector-to-LogInstruction" style="stroke:#181818;stroke-width:1.0;stroke-dasharray:7.0,7.0;"/><polygon fill="#181818" points="161.71,293.91,159.6474,284.2796,158.7674,289.8676,153.1794,288.9876,161.71,293.91" style="stroke:#181818;stroke-width:1.0;"/></g><!--MD5=[b8f6bfbccd290507d7aabcb308038070]
link Log4PCollector to LogInstruction--><g id="link_Log4PCollector_LogInstruction"><path codeLine="23" d="M251.59,234.26 C239.3,251.19 224.19,272.01 211.47,289.53 " fill="none" id="Log4PCollector-to-LogInstruction" style="stroke:#181818;stroke-width:1.0;stroke-dasharray:7.0,7.0;"/><polygon fill="#181818" points="208.29,293.91,216.8206,288.9876,211.2326,289.8676,210.3526,284.2796,208.29,293.91" style="stroke:#181818;stroke-width:1.0;"/></g><!--MD5=[d4afc868c56245ffb7ef75ee9ec3b053]
reverse link LogInstruction to Modification--><g id="link_LogInstruction_Modification"><path codeLine="24" d="M185,373.33 C185,388.37 185,405.01 185,419.68 " fill="none" id="LogInstruction-backto-Modification" style="stroke:#181818;stroke-width:1.0;"/><polygon fill="none" points="185,360.07,181,366.07,185,372.07,189,366.07,185,360.07" style="stroke:#181818;stroke-width:1.0;"/><text fill="#000000" font-family="sans-serif" font-size="13" lengthAdjust="spacing" textLength="7" x="177.3547" y="381.2058">1</text><text fill="#000000" font-family="sans-serif" font-size="13" lengthAdjust="spacing" textLength="5" x="179.6016" y="409.2456">*</text></g><!--MD5=[73e64fd173815e36c53f881190e7794c]
@startuml LogInstructionCollectorsStrategy
    package LogInstructionCollectors{
        interface LogInstructionCollector{
            + getLogInstruction()
        }

        class Log4JCollector implements LogInstructionCollector{
            + getLogInstruction()
        }

        class Log4PCollector implements LogInstructionCollector{
            + getLogInstruction()
        }
        class LogInstruction{
            - instruction : String
        }
        class Modification {
            - type : String
            - commit : Commit
        }
    }

    Log4JCollector ..> LogInstruction
    Log4PCollector ..> LogInstruction
    LogInstruction "1" o- - "*"Modification
@enduml

PlantUML version 1.2022.7(Mon Aug 22 13:01:30 EDT 2022)
(GPL source distribution)
Java Runtime: Java(TM) SE Runtime Environment
JVM: Java HotSpot(TM) Client VM
Default Encoding: Cp1252
Language: en
Country: US
--></g></svg>