<?xml version="1.0" encoding="UTF-8" standalone="no"?><svg xmlns="http://www.w3.org/2000/svg" xmlns:xlink="http://www.w3.org/1999/xlink" contentStyleType="text/css" height="257px" preserveAspectRatio="none" style="width:375px;height:257px;background:#FFFFFF;" version="1.1" viewBox="0 0 375 257" width="375px" zoomAndPan="magnify"><defs/><g><!--MD5=[cdb75225ade8d073128a2cc57595953f]
cluster LogInstructionFileGenerators--><g id="cluster_LogInstructionFileGenerators"><path d="M8.5,6 L217.5,6 A3.75,3.75 0 0 1 220,8.5 L227,29.6094 L365.5,29.6094 A2.5,2.5 0 0 1 368,32.1094 L368,247.5 A2.5,2.5 0 0 1 365.5,250 L8.5,250 A2.5,2.5 0 0 1 6,247.5 L6,8.5 A2.5,2.5 0 0 1 8.5,6 " fill="none" style="stroke:#000000;stroke-width:1.5;"/><line style="stroke:#000000;stroke-width:1.5;" x1="6" x2="227" y1="29.6094" y2="29.6094"/><text fill="#000000" font-family="sans-serif" font-size="14" font-weight="bold" lengthAdjust="spacing" textLength="208" x="10" y="22.5332">LogInstructionFileGenerators</text></g><!--MD5=[756a5eb3d986321fecb12198addf98f6]
class LogInstructionFileGenerator--><g id="elem_LogInstructionFileGenerator"><rect codeLine="2" fill="#F1F1F1" height="65.6094" id="LogInstructionFileGenerator" rx="2.5" ry="2.5" style="stroke:#181818;stroke-width:0.5;" width="329" x="22.5" y="42"/><ellipse cx="93.75" cy="58" fill="#B4A7E5" rx="11" ry="11" style="stroke:#181818;stroke-width:1.0;"/><path d="M94.7031,54.6406 L94.7031,61.2969 L96.4219,61.2969 Q97.0313,61.2969 97.2969,61.5313 Q97.5625,61.7656 97.5625,62.1563 Q97.5625,62.5313 97.2969,62.7656 Q97.0313,63 96.4219,63 L91.2813,63 Q90.6719,63 90.4063,62.7656 Q90.1406,62.5313 90.1406,62.1406 Q90.1406,61.7656 90.4063,61.5313 Q90.6719,61.2969 91.2813,61.2969 L93,61.2969 L93,54.6406 L91.2813,54.6406 Q90.6719,54.6406 90.4063,54.4063 Q90.1406,54.1719 90.1406,53.7813 Q90.1406,53.4063 90.4063,53.1719 Q90.6719,52.9375 91.2813,52.9375 L96.4219,52.9375 Q97.0313,52.9375 97.2969,53.1719 Q97.5625,53.4063 97.5625,53.7813 Q97.5625,54.1719 97.2969,54.4063 Q97.0313,54.6406 96.4219,54.6406 L94.7031,54.6406 Z " fill="#000000"/><text fill="#000000" font-family="sans-serif" font-size="14" font-style="italic" lengthAdjust="spacing" textLength="178" x="114.25" y="63.7285">LogInstructionFileGenerator</text><line style="stroke:#181818;stroke-width:0.5;" x1="23.5" x2="350.5" y1="74" y2="74"/><line style="stroke:#181818;stroke-width:0.5;" x1="23.5" x2="350.5" y1="82" y2="82"/><ellipse cx="33.5" cy="96.3047" fill="#84BE84" rx="3" ry="3" style="stroke:#038048;stroke-width:1.0;"/><text fill="#000000" font-family="sans-serif" font-size="14" lengthAdjust="spacing" textLength="303" x="42.5" y="100.5332">createFile(logInstructions : List&lt;LogInstruction&gt;)</text></g><!--MD5=[5af79b0b2155ee57da9d7e0e1ff6f2fd]
class CsvFileGenerator--><g id="elem_CsvFileGenerator"><rect codeLine="6" fill="#F1F1F1" height="65.6094" id="CsvFileGenerator" rx="2.5" ry="2.5" style="stroke:#181818;stroke-width:0.5;" width="329" x="22.5" y="168"/><ellipse cx="126.75" cy="184" fill="#ADD1B2" rx="11" ry="11" style="stroke:#181818;stroke-width:1.0;"/><path d="M129.5156,179.875 Q129.6719,179.6563 129.8594,179.5469 Q130.0469,179.4375 130.2656,179.4375 Q130.6406,179.4375 130.875,179.6953 Q131.1094,179.9531 131.1094,180.5625 L131.1094,182.0156 Q131.1094,182.625 130.875,182.8906 Q130.6406,183.1563 130.2656,183.1563 Q129.9219,183.1563 129.7188,182.9531 Q129.5156,182.7656 129.4063,182.25 Q129.3594,181.8906 129.1719,181.7031 Q128.8438,181.3281 128.2344,181.1094 Q127.625,180.8906 127,180.8906 Q126.2344,180.8906 125.6016,181.2188 Q124.9688,181.5469 124.4766,182.2969 Q123.9844,183.0469 123.9844,184.0781 L123.9844,185.1719 Q123.9844,186.4063 124.875,187.2266 Q125.7656,188.0469 127.3594,188.0469 Q128.2969,188.0469 128.9531,187.7969 Q129.3438,187.6406 129.7656,187.2031 Q130.0313,186.9375 130.1797,186.8594 Q130.3281,186.7813 130.5313,186.7813 Q130.8594,186.7813 131.1172,187.0391 Q131.375,187.2969 131.375,187.6406 Q131.375,187.9844 131.0313,188.3906 Q130.5313,188.9688 129.7344,189.2969 Q128.6563,189.75 127.3594,189.75 Q125.8438,189.75 124.6406,189.125 Q123.6563,188.625 122.9688,187.5547 Q122.2813,186.4844 122.2813,185.2031 L122.2813,184.0469 Q122.2813,182.7188 122.8984,181.5703 Q123.5156,180.4219 124.6094,179.8047 Q125.7031,179.1875 126.9375,179.1875 Q127.6719,179.1875 128.3203,179.3516 Q128.9688,179.5156 129.5156,179.875 Z " fill="#000000"/><text fill="#000000" font-family="sans-serif" font-size="14" lengthAdjust="spacing" textLength="112" x="147.25" y="189.7285">CsvFileGenerator</text><line style="stroke:#181818;stroke-width:0.5;" x1="23.5" x2="350.5" y1="200" y2="200"/><line style="stroke:#181818;stroke-width:0.5;" x1="23.5" x2="350.5" y1="208" y2="208"/><ellipse cx="33.5" cy="222.3047" fill="#84BE84" rx="3" ry="3" style="stroke:#038048;stroke-width:1.0;"/><text fill="#000000" font-family="sans-serif" font-size="14" lengthAdjust="spacing" textLength="303" x="42.5" y="226.5332">createFile(logInstructions : List&lt;LogInstruction&gt;)</text></g><!--MD5=[ee9086356092330d68c29a2d6fa1cb5f]
reverse link LogInstructionFileGenerator to CsvFileGenerator--><g id="link_LogInstructionFileGenerator_CsvFileGenerator"><path d="M187,128.45 C187,141.85 187,155.87 187,167.91 " fill="none" id="LogInstructionFileGenerator-backto-CsvFileGenerator" style="stroke:#181818;stroke-width:1.0;stroke-dasharray:7.0,7.0;"/><polygon fill="none" points="180,128.26,187,108.26,194,128.26,180,128.26" style="stroke:#181818;stroke-width:1.0;"/></g><!--MD5=[a04107b6990ef8e80c1a9c7cb62bf509]
@startuml LogInstructionFileGeneratorsStrategy
    package LogInstructionFileGenerators{
        interface LogInstructionFileGenerator{
            + createFile(logInstructions : List<LogInstruction>)
        }

        class CsvFileGenerator implements LogInstructionFileGenerator{
            + createFile(logInstructions : List<LogInstruction>)
        }
    }
@enduml

PlantUML version 1.2022.7(Mon Aug 22 13:01:30 EDT 2022)
(GPL source distribution)
Java Runtime: Java(TM) SE Runtime Environment
JVM: Java HotSpot(TM) Client VM
Default Encoding: Cp1252
Language: en
Country: US
--></g></svg>