<?xml version="1.0" encoding="UTF-8" standalone="no"?><svg xmlns="http://www.w3.org/2000/svg" xmlns:xlink="http://www.w3.org/1999/xlink" contentStyleType="text/css" height="276px" preserveAspectRatio="none" style="width:485px;height:276px;background:#FFFFFF;" version="1.1" viewBox="0 0 485 276" width="485px" zoomAndPan="magnify"><defs/><g><!--MD5=[1f0ad5f0d1fa1a6c0560668d4d92649b]
class NewRepoController--><g id="elem_NewRepoController"><rect codeLine="1" fill="#F1F1F1" height="65.6094" id="NewRepoController" rx="2.5" ry="2.5" style="stroke:#181818;stroke-width:0.5;" width="173" x="204" y="7"/><ellipse cx="227.55" cy="23" fill="#ADD1B2" rx="11" ry="11" style="stroke:#181818;stroke-width:1.0;"/><path d="M230.3156,18.875 Q230.4719,18.6563 230.6594,18.5469 Q230.8469,18.4375 231.0656,18.4375 Q231.4406,18.4375 231.675,18.6953 Q231.9094,18.9531 231.9094,19.5625 L231.9094,21.0156 Q231.9094,21.625 231.675,21.8906 Q231.4406,22.1563 231.0656,22.1563 Q230.7219,22.1563 230.5188,21.9531 Q230.3156,21.7656 230.2063,21.25 Q230.1594,20.8906 229.9719,20.7031 Q229.6438,20.3281 229.0344,20.1094 Q228.425,19.8906 227.8,19.8906 Q227.0344,19.8906 226.4016,20.2188 Q225.7688,20.5469 225.2766,21.2969 Q224.7844,22.0469 224.7844,23.0781 L224.7844,24.1719 Q224.7844,25.4063 225.675,26.2266 Q226.5656,27.0469 228.1594,27.0469 Q229.0969,27.0469 229.7531,26.7969 Q230.1438,26.6406 230.5656,26.2031 Q230.8313,25.9375 230.9797,25.8594 Q231.1281,25.7813 231.3313,25.7813 Q231.6594,25.7813 231.9172,26.0391 Q232.175,26.2969 232.175,26.6406 Q232.175,26.9844 231.8313,27.3906 Q231.3313,27.9688 230.5344,28.2969 Q229.4563,28.75 228.1594,28.75 Q226.6438,28.75 225.4406,28.125 Q224.4563,27.625 223.7688,26.5547 Q223.0813,25.4844 223.0813,24.2031 L223.0813,23.0469 Q223.0813,21.7188 223.6984,20.5703 Q224.3156,19.4219 225.4094,18.8047 Q226.5031,18.1875 227.7375,18.1875 Q228.4719,18.1875 229.1203,18.3516 Q229.7688,18.5156 230.3156,18.875 Z " fill="#000000"/><text fill="#000000" font-family="sans-serif" font-size="14" lengthAdjust="spacing" textLength="122" x="243.45" y="28.7285">NewRepoController</text><line style="stroke:#181818;stroke-width:0.5;" x1="205" x2="376" y1="39" y2="39"/><rect fill="none" height="6" style="stroke:#C82930;stroke-width:1.0;" width="6" x="212" y="50.3047"/><text fill="#000000" font-family="sans-serif" font-size="14" lengthAdjust="spacing" textLength="147" x="224" y="57.5332">home_view : HomeView</text><line style="stroke:#181818;stroke-width:0.5;" x1="205" x2="376" y1="64.6094" y2="64.6094"/></g><!--MD5=[32206ff2be32f597e6f8bddc11836e68]
class ReposManager--><g id="elem_ReposManager"><rect codeLine="5" fill="#F1F1F1" height="136.0469" id="ReposManager" rx="2.5" ry="2.5" style="stroke:#181818;stroke-width:0.5;" width="315" x="7" y="133"/><ellipse cx="111.75" cy="149" fill="#ADD1B2" rx="11" ry="11" style="stroke:#181818;stroke-width:1.0;"/><path d="M114.5156,144.875 Q114.6719,144.6563 114.8594,144.5469 Q115.0469,144.4375 115.2656,144.4375 Q115.6406,144.4375 115.875,144.6953 Q116.1094,144.9531 116.1094,145.5625 L116.1094,147.0156 Q116.1094,147.625 115.875,147.8906 Q115.6406,148.1563 115.2656,148.1563 Q114.9219,148.1563 114.7188,147.9531 Q114.5156,147.7656 114.4063,147.25 Q114.3594,146.8906 114.1719,146.7031 Q113.8438,146.3281 113.2344,146.1094 Q112.625,145.8906 112,145.8906 Q111.2344,145.8906 110.6016,146.2188 Q109.9688,146.5469 109.4766,147.2969 Q108.9844,148.0469 108.9844,149.0781 L108.9844,150.1719 Q108.9844,151.4063 109.875,152.2266 Q110.7656,153.0469 112.3594,153.0469 Q113.2969,153.0469 113.9531,152.7969 Q114.3438,152.6406 114.7656,152.2031 Q115.0313,151.9375 115.1797,151.8594 Q115.3281,151.7813 115.5313,151.7813 Q115.8594,151.7813 116.1172,152.0391 Q116.375,152.2969 116.375,152.6406 Q116.375,152.9844 116.0313,153.3906 Q115.5313,153.9688 114.7344,154.2969 Q113.6563,154.75 112.3594,154.75 Q110.8438,154.75 109.6406,154.125 Q108.6563,153.625 107.9688,152.5547 Q107.2813,151.4844 107.2813,150.2031 L107.2813,149.0469 Q107.2813,147.7188 107.8984,146.5703 Q108.5156,145.4219 109.6094,144.8047 Q110.7031,144.1875 111.9375,144.1875 Q112.6719,144.1875 113.3203,144.3516 Q113.9688,144.5156 114.5156,144.875 Z " fill="#000000"/><text fill="#000000" font-family="sans-serif" font-size="14" lengthAdjust="spacing" textLength="97" x="132.25" y="154.7285">ReposManager</text><line style="stroke:#181818;stroke-width:0.5;" x1="8" x2="321" y1="165" y2="165"/><line style="stroke:#181818;stroke-width:0.5;" x1="8" x2="321" y1="173" y2="173"/><ellipse cx="18" cy="187.3047" fill="#84BE84" rx="3" ry="3" style="stroke:#038048;stroke-width:1.0;"/><text fill="#000000" font-family="sans-serif" font-size="14" lengthAdjust="spacing" textLength="226" x="27" y="191.5332">get_repos(main_repo_path : String)</text><ellipse cx="18" cy="204.9141" fill="#84BE84" rx="3" ry="3" style="stroke:#038048;stroke-width:1.0;"/><text fill="#000000" font-family="sans-serif" font-size="14" lengthAdjust="spacing" textLength="161" x="27" y="209.1426">git_pull(repo_path:String)</text><ellipse cx="18" cy="222.5234" fill="#84BE84" rx="3" ry="3" style="stroke:#038048;stroke-width:1.0;"/><text fill="#000000" font-family="sans-serif" font-size="14" lengthAdjust="spacing" textLength="192" x="27" y="226.752">delete_repo(repo_path:String)</text><ellipse cx="18" cy="240.1328" fill="#84BE84" rx="3" ry="3" style="stroke:#038048;stroke-width:1.0;"/><text fill="#000000" font-family="sans-serif" font-size="14" lengthAdjust="spacing" textLength="204" x="27" y="244.3613">getBranches(repo_path : String)</text><ellipse cx="18" cy="257.7422" fill="#84BE84" rx="3" ry="3" style="stroke:#038048;stroke-width:1.0;"/><text fill="#000000" font-family="sans-serif" font-size="14" lengthAdjust="spacing" textLength="289" x="27" y="261.9707">clone_repo(repo_url:String, repo_path:String)</text></g><!--MD5=[8283b49bf57b64d6403c6871ced2d88e]
class NewRepoView--><g id="elem_NewRepoView"><rect fill="#F1F1F1" height="48" id="NewRepoView" rx="2.5" ry="2.5" style="stroke:#181818;stroke-width:0.5;" width="121" x="357" y="177"/><ellipse cx="372" cy="193" fill="#ADD1B2" rx="11" ry="11" style="stroke:#181818;stroke-width:1.0;"/><path d="M374.7656,188.875 Q374.9219,188.6563 375.1094,188.5469 Q375.2969,188.4375 375.5156,188.4375 Q375.8906,188.4375 376.125,188.6953 Q376.3594,188.9531 376.3594,189.5625 L376.3594,191.0156 Q376.3594,191.625 376.125,191.8906 Q375.8906,192.1563 375.5156,192.1563 Q375.1719,192.1563 374.9688,191.9531 Q374.7656,191.7656 374.6563,191.25 Q374.6094,190.8906 374.4219,190.7031 Q374.0938,190.3281 373.4844,190.1094 Q372.875,189.8906 372.25,189.8906 Q371.4844,189.8906 370.8516,190.2188 Q370.2188,190.5469 369.7266,191.2969 Q369.2344,192.0469 369.2344,193.0781 L369.2344,194.1719 Q369.2344,195.4063 370.125,196.2266 Q371.0156,197.0469 372.6094,197.0469 Q373.5469,197.0469 374.2031,196.7969 Q374.5938,196.6406 375.0156,196.2031 Q375.2813,195.9375 375.4297,195.8594 Q375.5781,195.7813 375.7813,195.7813 Q376.1094,195.7813 376.3672,196.0391 Q376.625,196.2969 376.625,196.6406 Q376.625,196.9844 376.2813,197.3906 Q375.7813,197.9688 374.9844,198.2969 Q373.9063,198.75 372.6094,198.75 Q371.0938,198.75 369.8906,198.125 Q368.9063,197.625 368.2188,196.5547 Q367.5313,195.4844 367.5313,194.2031 L367.5313,193.0469 Q367.5313,191.7188 368.1484,190.5703 Q368.7656,189.4219 369.8594,188.8047 Q370.9531,188.1875 372.1875,188.1875 Q372.9219,188.1875 373.5703,188.3516 Q374.2188,188.5156 374.7656,188.875 Z " fill="#000000"/><text fill="#000000" font-family="sans-serif" font-size="14" lengthAdjust="spacing" textLength="89" x="386" y="198.7285">NewRepoView</text><line style="stroke:#181818;stroke-width:0.5;" x1="358" x2="477" y1="209" y2="209"/><line style="stroke:#181818;stroke-width:0.5;" x1="358" x2="477" y1="217" y2="217"/></g><!--MD5=[de68e3143d17eb92a8cbd547bac1ac33]
link NewRepoController to ReposManager--><g id="link_NewRepoController_ReposManager"><path codeLine="12" d="M265,73.18 C252.37,89.12 236.57,109.06 221.26,128.37 " fill="none" id="NewRepoController-to-ReposManager" style="stroke:#181818;stroke-width:1.0;stroke-dasharray:7.0,7.0;"/><polygon fill="#181818" points="217.8,132.74,226.5336,128.1876,220.913,128.8273,220.2733,123.2067,217.8,132.74" style="stroke:#181818;stroke-width:1.0;"/><text fill="#000000" font-family="sans-serif" font-size="13" lengthAdjust="spacing" textLength="7" x="252.8344" y="94.0764">1</text><text fill="#000000" font-family="sans-serif" font-size="13" lengthAdjust="spacing" textLength="7" x="216.2469" y="121.9108">1</text></g><!--MD5=[b313d68615eb4c68550be3f408ea276d]
reverse link NewRepoController to NewRepoView--><g id="link_NewRepoController_NewRepoView"><path codeLine="13" d="M324.31,83.34 C348.19,113.23 379.3,152.18 398.84,176.64 " fill="none" id="NewRepoController-backto-NewRepoView" style="stroke:#181818;stroke-width:1.0;"/><polygon fill="none" points="316.2,73.18,316.8198,80.3644,323.6899,82.5556,323.0701,75.3711,316.2,73.18" style="stroke:#181818;stroke-width:1.0;"/><text fill="#000000" font-family="sans-serif" font-size="13" lengthAdjust="spacing" textLength="7" x="313.1544" y="94.0764">1</text><text fill="#000000" font-family="sans-serif" font-size="13" lengthAdjust="spacing" textLength="7" x="386.4385" y="166.2902">1</text></g><!--MD5=[b6b3f7a8309c5048e68b1cc3256a5d89]
@startuml NewRepoController 
    class NewRepoController{
        - home_view : HomeView

    }
        class ReposManager{
        + get_repos(main_repo_path : String)
        + git_pull(repo_path:String)
        + delete_repo(repo_path:String)
        + getBranches(repo_path : String)
        + clone_repo(repo_url:String, repo_path:String)
    }
    NewRepoController "1" ..> "1" ReposManager
    NewRepoController "1" o- - "1" NewRepoView

@enduml

PlantUML version 1.2022.7(Mon Aug 22 13:01:30 EDT 2022)
(GPL source distribution)
Java Runtime: Java(TM) SE Runtime Environment
JVM: Java HotSpot(TM) Client VM
Default Encoding: Cp1252
Language: en
Country: US
--></g></svg>