<?xml version="1.0" encoding="UTF-8" standalone="no"?><svg xmlns="http://www.w3.org/2000/svg" xmlns:xlink="http://www.w3.org/1999/xlink" contentStyleType="text/css" height="289px" preserveAspectRatio="none" style="width:2586px;height:289px;background:#FFFFFF;" version="1.1" viewBox="0 0 2586 289" width="2586px" zoomAndPan="magnify"><defs/><g><!--MD5=[10ea673caf457862023e152271927b45]
cluster controller--><g id="cluster_controller"><path d="M8.5,50 L78.5,50 A3.75,3.75 0 0 1 81,52.5 L88,73.6094 L392.5,73.6094 A2.5,2.5 0 0 1 395,76.1094 L395,255.5 A2.5,2.5 0 0 1 392.5,258 L8.5,258 A2.5,2.5 0 0 1 6,255.5 L6,52.5 A2.5,2.5 0 0 1 8.5,50 " fill="none" style="stroke:#000000;stroke-width:1.5;"/><line style="stroke:#000000;stroke-width:1.5;" x1="6" x2="88" y1="73.6094" y2="73.6094"/><text fill="#000000" font-family="sans-serif" font-size="14" font-weight="bold" lengthAdjust="spacing" textLength="69" x="10" y="66.5332">controller</text></g><!--MD5=[5d4cd377749310b66bf14896f5cd8d9b]
cluster model--><g id="cluster_model"><path d="M421.5,6 L465.5,6 A3.75,3.75 0 0 1 468,8.5 L475,29.6094 L2187.5,29.6094 A2.5,2.5 0 0 1 2190,32.1094 L2190,279.5 A2.5,2.5 0 0 1 2187.5,282 L421.5,282 A2.5,2.5 0 0 1 419,279.5 L419,8.5 A2.5,2.5 0 0 1 421.5,6 " fill="none" style="stroke:#000000;stroke-width:1.5;"/><line style="stroke:#000000;stroke-width:1.5;" x1="419" x2="475" y1="29.6094" y2="29.6094"/><text fill="#000000" font-family="sans-serif" font-size="14" font-weight="bold" lengthAdjust="spacing" textLength="43" x="423" y="22.5332">model</text></g><!--MD5=[93aca6391243a7ec2c9e8eb350c17842]
cluster GraphBuilders--><g id="cluster_GraphBuilders"><path d="M1833.5,50 L1936.5,50 A3.75,3.75 0 0 1 1939,52.5 L1946,73.6094 L2163.5,73.6094 A2.5,2.5 0 0 1 2166,76.1094 L2166,255.5 A2.5,2.5 0 0 1 2163.5,258 L1833.5,258 A2.5,2.5 0 0 1 1831,255.5 L1831,52.5 A2.5,2.5 0 0 1 1833.5,50 " fill="none" style="stroke:#000000;stroke-width:1.5;"/><line style="stroke:#000000;stroke-width:1.5;" x1="1831" x2="1946" y1="73.6094" y2="73.6094"/><text fill="#000000" font-family="sans-serif" font-size="14" font-weight="bold" lengthAdjust="spacing" textLength="102" x="1835" y="66.5332">GraphBuilders</text></g><!--MD5=[69c1e447a2abbf73a81ee99126eb94a3]
cluster LogInstructionCollectors--><g id="cluster_LogInstructionCollectors"><path d="M1273.5,50 L1448.5,50 A3.75,3.75 0 0 1 1451,52.5 L1458,73.6094 L1804.5,73.6094 A2.5,2.5 0 0 1 1807,76.1094 L1807,255.5 A2.5,2.5 0 0 1 1804.5,258 L1273.5,258 A2.5,2.5 0 0 1 1271,255.5 L1271,52.5 A2.5,2.5 0 0 1 1273.5,50 " fill="none" style="stroke:#000000;stroke-width:1.5;"/><line style="stroke:#000000;stroke-width:1.5;" x1="1271" x2="1458" y1="73.6094" y2="73.6094"/><text fill="#000000" font-family="sans-serif" font-size="14" font-weight="bold" lengthAdjust="spacing" textLength="174" x="1275" y="66.5332">LogInstructionCollectors</text></g><!--MD5=[cdb75225ade8d073128a2cc57595953f]
cluster LogInstructionFileGenerators--><g id="cluster_LogInstructionFileGenerators"><path d="M828.5,50 L1037.5,50 A3.75,3.75 0 0 1 1040,52.5 L1047,73.6094 L1244.5,73.6094 A2.5,2.5 0 0 1 1247,76.1094 L1247,147.5 A2.5,2.5 0 0 1 1244.5,150 L828.5,150 A2.5,2.5 0 0 1 826,147.5 L826,52.5 A2.5,2.5 0 0 1 828.5,50 " fill="none" style="stroke:#000000;stroke-width:1.5;"/><line style="stroke:#000000;stroke-width:1.5;" x1="826" x2="1047" y1="73.6094" y2="73.6094"/><text fill="#000000" font-family="sans-serif" font-size="14" font-weight="bold" lengthAdjust="spacing" textLength="208" x="830" y="66.5332">LogInstructionFileGenerators</text></g><!--MD5=[86cbce8df1eb9d604fbbb2fa357940f8]
cluster view--><g id="cluster_view"><path d="M2216.5,50 L2250.5,50 A3.75,3.75 0 0 1 2253,52.5 L2260,73.6094 L2576.5,73.6094 A2.5,2.5 0 0 1 2579,76.1094 L2579,255.5 A2.5,2.5 0 0 1 2576.5,258 L2216.5,258 A2.5,2.5 0 0 1 2214,255.5 L2214,52.5 A2.5,2.5 0 0 1 2216.5,50 " fill="none" style="stroke:#000000;stroke-width:1.5;"/><line style="stroke:#000000;stroke-width:1.5;" x1="2214" x2="2260" y1="73.6094" y2="73.6094"/><text fill="#000000" font-family="sans-serif" font-size="14" font-weight="bold" lengthAdjust="spacing" textLength="33" x="2218" y="66.5332">view</text></g><!--MD5=[3f908ccd3a2056432adfb9e2b53696ab]
class HomeController--><g id="elem_HomeController"><rect codeLine="3" fill="#F1F1F1" height="48" id="HomeController" rx="2.5" ry="2.5" style="stroke:#181818;stroke-width:0.5;" width="130" x="22" y="86"/><ellipse cx="37" cy="102" fill="#ADD1B2" rx="11" ry="11" style="stroke:#181818;stroke-width:1.0;"/><path d="M39.7656,97.875 Q39.9219,97.6563 40.1094,97.5469 Q40.2969,97.4375 40.5156,97.4375 Q40.8906,97.4375 41.125,97.6953 Q41.3594,97.9531 41.3594,98.5625 L41.3594,100.0156 Q41.3594,100.625 41.125,100.8906 Q40.8906,101.1563 40.5156,101.1563 Q40.1719,101.1563 39.9688,100.9531 Q39.7656,100.7656 39.6563,100.25 Q39.6094,99.8906 39.4219,99.7031 Q39.0938,99.3281 38.4844,99.1094 Q37.875,98.8906 37.25,98.8906 Q36.4844,98.8906 35.8516,99.2188 Q35.2188,99.5469 34.7266,100.2969 Q34.2344,101.0469 34.2344,102.0781 L34.2344,103.1719 Q34.2344,104.4063 35.125,105.2266 Q36.0156,106.0469 37.6094,106.0469 Q38.5469,106.0469 39.2031,105.7969 Q39.5938,105.6406 40.0156,105.2031 Q40.2813,104.9375 40.4297,104.8594 Q40.5781,104.7813 40.7813,104.7813 Q41.1094,104.7813 41.3672,105.0391 Q41.625,105.2969 41.625,105.6406 Q41.625,105.9844 41.2813,106.3906 Q40.7813,106.9688 39.9844,107.2969 Q38.9063,107.75 37.6094,107.75 Q36.0938,107.75 34.8906,107.125 Q33.9063,106.625 33.2188,105.5547 Q32.5313,104.4844 32.5313,103.2031 L32.5313,102.0469 Q32.5313,100.7188 33.1484,99.5703 Q33.7656,98.4219 34.8594,97.8047 Q35.9531,97.1875 37.1875,97.1875 Q37.9219,97.1875 38.5703,97.3516 Q39.2188,97.5156 39.7656,97.875 Z " fill="#000000"/><text fill="#000000" font-family="sans-serif" font-size="14" lengthAdjust="spacing" textLength="98" x="51" y="107.7285">HomeController</text><line style="stroke:#181818;stroke-width:0.5;" x1="23" x2="151" y1="118" y2="118"/><line style="stroke:#181818;stroke-width:0.5;" x1="23" x2="151" y1="126" y2="126"/></g><!--MD5=[624fda96084990f474dbb692f3ed956d]
class TraceVisualizerController--><g id="elem_TraceVisualizerController"><rect codeLine="4" fill="#F1F1F1" height="48" id="TraceVisualizerController" rx="2.5" ry="2.5" style="stroke:#181818;stroke-width:0.5;" width="191" x="187.5" y="86"/><ellipse cx="202.5" cy="102" fill="#ADD1B2" rx="11" ry="11" style="stroke:#181818;stroke-width:1.0;"/><path d="M205.2656,97.875 Q205.4219,97.6563 205.6094,97.5469 Q205.7969,97.4375 206.0156,97.4375 Q206.3906,97.4375 206.625,97.6953 Q206.8594,97.9531 206.8594,98.5625 L206.8594,100.0156 Q206.8594,100.625 206.625,100.8906 Q206.3906,101.1563 206.0156,101.1563 Q205.6719,101.1563 205.4688,100.9531 Q205.2656,100.7656 205.1563,100.25 Q205.1094,99.8906 204.9219,99.7031 Q204.5938,99.3281 203.9844,99.1094 Q203.375,98.8906 202.75,98.8906 Q201.9844,98.8906 201.3516,99.2188 Q200.7188,99.5469 200.2266,100.2969 Q199.7344,101.0469 199.7344,102.0781 L199.7344,103.1719 Q199.7344,104.4063 200.625,105.2266 Q201.5156,106.0469 203.1094,106.0469 Q204.0469,106.0469 204.7031,105.7969 Q205.0938,105.6406 205.5156,105.2031 Q205.7813,104.9375 205.9297,104.8594 Q206.0781,104.7813 206.2813,104.7813 Q206.6094,104.7813 206.8672,105.0391 Q207.125,105.2969 207.125,105.6406 Q207.125,105.9844 206.7813,106.3906 Q206.2813,106.9688 205.4844,107.2969 Q204.4063,107.75 203.1094,107.75 Q201.5938,107.75 200.3906,107.125 Q199.4063,106.625 198.7188,105.5547 Q198.0313,104.4844 198.0313,103.2031 L198.0313,102.0469 Q198.0313,100.7188 198.6484,99.5703 Q199.2656,98.4219 200.3594,97.8047 Q201.4531,97.1875 202.6875,97.1875 Q203.4219,97.1875 204.0703,97.3516 Q204.7188,97.5156 205.2656,97.875 Z " fill="#000000"/><text fill="#000000" font-family="sans-serif" font-size="14" lengthAdjust="spacing" textLength="159" x="216.5" y="107.7285">TraceVisualizerController</text><line style="stroke:#181818;stroke-width:0.5;" x1="188.5" x2="377.5" y1="118" y2="118"/><line style="stroke:#181818;stroke-width:0.5;" x1="188.5" x2="377.5" y1="126" y2="126"/></g><!--MD5=[1f0ad5f0d1fa1a6c0560668d4d92649b]
class NewRepoController--><g id="elem_NewRepoController"><rect codeLine="5" fill="#F1F1F1" height="48" id="NewRepoController" rx="2.5" ry="2.5" style="stroke:#181818;stroke-width:0.5;" width="154" x="22" y="194"/><ellipse cx="37" cy="210" fill="#ADD1B2" rx="11" ry="11" style="stroke:#181818;stroke-width:1.0;"/><path d="M39.7656,205.875 Q39.9219,205.6563 40.1094,205.5469 Q40.2969,205.4375 40.5156,205.4375 Q40.8906,205.4375 41.125,205.6953 Q41.3594,205.9531 41.3594,206.5625 L41.3594,208.0156 Q41.3594,208.625 41.125,208.8906 Q40.8906,209.1563 40.5156,209.1563 Q40.1719,209.1563 39.9688,208.9531 Q39.7656,208.7656 39.6563,208.25 Q39.6094,207.8906 39.4219,207.7031 Q39.0938,207.3281 38.4844,207.1094 Q37.875,206.8906 37.25,206.8906 Q36.4844,206.8906 35.8516,207.2188 Q35.2188,207.5469 34.7266,208.2969 Q34.2344,209.0469 34.2344,210.0781 L34.2344,211.1719 Q34.2344,212.4063 35.125,213.2266 Q36.0156,214.0469 37.6094,214.0469 Q38.5469,214.0469 39.2031,213.7969 Q39.5938,213.6406 40.0156,213.2031 Q40.2813,212.9375 40.4297,212.8594 Q40.5781,212.7813 40.7813,212.7813 Q41.1094,212.7813 41.3672,213.0391 Q41.625,213.2969 41.625,213.6406 Q41.625,213.9844 41.2813,214.3906 Q40.7813,214.9688 39.9844,215.2969 Q38.9063,215.75 37.6094,215.75 Q36.0938,215.75 34.8906,215.125 Q33.9063,214.625 33.2188,213.5547 Q32.5313,212.4844 32.5313,211.2031 L32.5313,210.0469 Q32.5313,208.7188 33.1484,207.5703 Q33.7656,206.4219 34.8594,205.8047 Q35.9531,205.1875 37.1875,205.1875 Q37.9219,205.1875 38.5703,205.3516 Q39.2188,205.5156 39.7656,205.875 Z " fill="#000000"/><text fill="#000000" font-family="sans-serif" font-size="14" lengthAdjust="spacing" textLength="122" x="51" y="215.7285">NewRepoController</text><line style="stroke:#181818;stroke-width:0.5;" x1="23" x2="175" y1="226" y2="226"/><line style="stroke:#181818;stroke-width:0.5;" x1="23" x2="175" y1="234" y2="234"/></g><!--MD5=[2e427409284e4192b674167e2f40184d]
class LogInstructionDiffGenerator--><g id="elem_LogInstructionDiffGenerator"><rect codeLine="10" fill="#F1F1F1" height="48" id="LogInstructionDiffGenerator" rx="2.5" ry="2.5" style="stroke:#181818;stroke-width:0.5;" width="207" x="599.5" y="86"/><ellipse cx="614.5" cy="102" fill="#ADD1B2" rx="11" ry="11" style="stroke:#181818;stroke-width:1.0;"/><path d="M617.2656,97.875 Q617.4219,97.6563 617.6094,97.5469 Q617.7969,97.4375 618.0156,97.4375 Q618.3906,97.4375 618.625,97.6953 Q618.8594,97.9531 618.8594,98.5625 L618.8594,100.0156 Q618.8594,100.625 618.625,100.8906 Q618.3906,101.1563 618.0156,101.1563 Q617.6719,101.1563 617.4688,100.9531 Q617.2656,100.7656 617.1563,100.25 Q617.1094,99.8906 616.9219,99.7031 Q616.5938,99.3281 615.9844,99.1094 Q615.375,98.8906 614.75,98.8906 Q613.9844,98.8906 613.3516,99.2188 Q612.7188,99.5469 612.2266,100.2969 Q611.7344,101.0469 611.7344,102.0781 L611.7344,103.1719 Q611.7344,104.4063 612.625,105.2266 Q613.5156,106.0469 615.1094,106.0469 Q616.0469,106.0469 616.7031,105.7969 Q617.0938,105.6406 617.5156,105.2031 Q617.7813,104.9375 617.9297,104.8594 Q618.0781,104.7813 618.2813,104.7813 Q618.6094,104.7813 618.8672,105.0391 Q619.125,105.2969 619.125,105.6406 Q619.125,105.9844 618.7813,106.3906 Q618.2813,106.9688 617.4844,107.2969 Q616.4063,107.75 615.1094,107.75 Q613.5938,107.75 612.3906,107.125 Q611.4063,106.625 610.7188,105.5547 Q610.0313,104.4844 610.0313,103.2031 L610.0313,102.0469 Q610.0313,100.7188 610.6484,99.5703 Q611.2656,98.4219 612.3594,97.8047 Q613.4531,97.1875 614.6875,97.1875 Q615.4219,97.1875 616.0703,97.3516 Q616.7188,97.5156 617.2656,97.875 Z " fill="#000000"/><text fill="#000000" font-family="sans-serif" font-size="14" lengthAdjust="spacing" textLength="175" x="628.5" y="107.7285">LogInstructionDiffGenerator</text><line style="stroke:#181818;stroke-width:0.5;" x1="600.5" x2="805.5" y1="118" y2="118"/><line style="stroke:#181818;stroke-width:0.5;" x1="600.5" x2="805.5" y1="126" y2="126"/></g><!--MD5=[32206ff2be32f597e6f8bddc11836e68]
class ReposManager--><g id="elem_ReposManager"><rect codeLine="11" fill="#F1F1F1" height="48" id="ReposManager" rx="2.5" ry="2.5" style="stroke:#181818;stroke-width:0.5;" width="129" x="435.5" y="86"/><ellipse cx="450.5" cy="102" fill="#ADD1B2" rx="11" ry="11" style="stroke:#181818;stroke-width:1.0;"/><path d="M453.2656,97.875 Q453.4219,97.6563 453.6094,97.5469 Q453.7969,97.4375 454.0156,97.4375 Q454.3906,97.4375 454.625,97.6953 Q454.8594,97.9531 454.8594,98.5625 L454.8594,100.0156 Q454.8594,100.625 454.625,100.8906 Q454.3906,101.1563 454.0156,101.1563 Q453.6719,101.1563 453.4688,100.9531 Q453.2656,100.7656 453.1563,100.25 Q453.1094,99.8906 452.9219,99.7031 Q452.5938,99.3281 451.9844,99.1094 Q451.375,98.8906 450.75,98.8906 Q449.9844,98.8906 449.3516,99.2188 Q448.7188,99.5469 448.2266,100.2969 Q447.7344,101.0469 447.7344,102.0781 L447.7344,103.1719 Q447.7344,104.4063 448.625,105.2266 Q449.5156,106.0469 451.1094,106.0469 Q452.0469,106.0469 452.7031,105.7969 Q453.0938,105.6406 453.5156,105.2031 Q453.7813,104.9375 453.9297,104.8594 Q454.0781,104.7813 454.2813,104.7813 Q454.6094,104.7813 454.8672,105.0391 Q455.125,105.2969 455.125,105.6406 Q455.125,105.9844 454.7813,106.3906 Q454.2813,106.9688 453.4844,107.2969 Q452.4063,107.75 451.1094,107.75 Q449.5938,107.75 448.3906,107.125 Q447.4063,106.625 446.7188,105.5547 Q446.0313,104.4844 446.0313,103.2031 L446.0313,102.0469 Q446.0313,100.7188 446.6484,99.5703 Q447.2656,98.4219 448.3594,97.8047 Q449.4531,97.1875 450.6875,97.1875 Q451.4219,97.1875 452.0703,97.3516 Q452.7188,97.5156 453.2656,97.875 Z " fill="#000000"/><text fill="#000000" font-family="sans-serif" font-size="14" lengthAdjust="spacing" textLength="97" x="464.5" y="107.7285">ReposManager</text><line style="stroke:#181818;stroke-width:0.5;" x1="436.5" x2="563.5" y1="118" y2="118"/><line style="stroke:#181818;stroke-width:0.5;" x1="436.5" x2="563.5" y1="126" y2="126"/></g><!--MD5=[57adcbfcd00175f9b7abe25398e7de0c]
class Director--><g id="elem_Director"><rect codeLine="13" fill="#F1F1F1" height="48" id="Director" rx="2.5" ry="2.5" style="stroke:#181818;stroke-width:0.5;" width="82" x="1884" y="86"/><ellipse cx="1899" cy="102" fill="#ADD1B2" rx="11" ry="11" style="stroke:#181818;stroke-width:1.0;"/><path d="M1901.7656,97.875 Q1901.9219,97.6563 1902.1094,97.5469 Q1902.2969,97.4375 1902.5156,97.4375 Q1902.8906,97.4375 1903.125,97.6953 Q1903.3594,97.9531 1903.3594,98.5625 L1903.3594,100.0156 Q1903.3594,100.625 1903.125,100.8906 Q1902.8906,101.1563 1902.5156,101.1563 Q1902.1719,101.1563 1901.9688,100.9531 Q1901.7656,100.7656 1901.6563,100.25 Q1901.6094,99.8906 1901.4219,99.7031 Q1901.0938,99.3281 1900.4844,99.1094 Q1899.875,98.8906 1899.25,98.8906 Q1898.4844,98.8906 1897.8516,99.2188 Q1897.2188,99.5469 1896.7266,100.2969 Q1896.2344,101.0469 1896.2344,102.0781 L1896.2344,103.1719 Q1896.2344,104.4063 1897.125,105.2266 Q1898.0156,106.0469 1899.6094,106.0469 Q1900.5469,106.0469 1901.2031,105.7969 Q1901.5938,105.6406 1902.0156,105.2031 Q1902.2813,104.9375 1902.4297,104.8594 Q1902.5781,104.7813 1902.7813,104.7813 Q1903.1094,104.7813 1903.3672,105.0391 Q1903.625,105.2969 1903.625,105.6406 Q1903.625,105.9844 1903.2813,106.3906 Q1902.7813,106.9688 1901.9844,107.2969 Q1900.9063,107.75 1899.6094,107.75 Q1898.0938,107.75 1896.8906,107.125 Q1895.9063,106.625 1895.2188,105.5547 Q1894.5313,104.4844 1894.5313,103.2031 L1894.5313,102.0469 Q1894.5313,100.7188 1895.1484,99.5703 Q1895.7656,98.4219 1896.8594,97.8047 Q1897.9531,97.1875 1899.1875,97.1875 Q1899.9219,97.1875 1900.5703,97.3516 Q1901.2188,97.5156 1901.7656,97.875 Z " fill="#000000"/><text fill="#000000" font-family="sans-serif" font-size="14" lengthAdjust="spacing" textLength="50" x="1913" y="107.7285">Director</text><line style="stroke:#181818;stroke-width:0.5;" x1="1885" x2="1965" y1="118" y2="118"/><line style="stroke:#181818;stroke-width:0.5;" x1="1885" x2="1965" y1="126" y2="126"/></g><!--MD5=[79192a478d62deba35bb89aba7222362]
class GraphBuilder--><g id="elem_GraphBuilder"><rect codeLine="14" fill="#F1F1F1" height="48" id="GraphBuilder" rx="2.5" ry="2.5" style="stroke:#181818;stroke-width:0.5;" width="116" x="2001" y="86"/><ellipse cx="2016" cy="102" fill="#B4A7E5" rx="11" ry="11" style="stroke:#181818;stroke-width:1.0;"/><path d="M2016.9531,98.6406 L2016.9531,105.2969 L2018.6719,105.2969 Q2019.2813,105.2969 2019.5469,105.5313 Q2019.8125,105.7656 2019.8125,106.1563 Q2019.8125,106.5313 2019.5469,106.7656 Q2019.2813,107 2018.6719,107 L2013.5313,107 Q2012.9219,107 2012.6563,106.7656 Q2012.3906,106.5313 2012.3906,106.1406 Q2012.3906,105.7656 2012.6563,105.5313 Q2012.9219,105.2969 2013.5313,105.2969 L2015.25,105.2969 L2015.25,98.6406 L2013.5313,98.6406 Q2012.9219,98.6406 2012.6563,98.4063 Q2012.3906,98.1719 2012.3906,97.7813 Q2012.3906,97.4063 2012.6563,97.1719 Q2012.9219,96.9375 2013.5313,96.9375 L2018.6719,96.9375 Q2019.2813,96.9375 2019.5469,97.1719 Q2019.8125,97.4063 2019.8125,97.7813 Q2019.8125,98.1719 2019.5469,98.4063 Q2019.2813,98.6406 2018.6719,98.6406 L2016.9531,98.6406 Z " fill="#000000"/><text fill="#000000" font-family="sans-serif" font-size="14" font-style="italic" lengthAdjust="spacing" textLength="84" x="2030" y="107.7285">GraphBuilder</text><line style="stroke:#181818;stroke-width:0.5;" x1="2002" x2="2116" y1="118" y2="118"/><line style="stroke:#181818;stroke-width:0.5;" x1="2002" x2="2116" y1="126" y2="126"/></g><!--MD5=[3fecb71b93e9d3dda2b1f5e1b493efda]
class LinearGraphBuilder--><g id="elem_LinearGraphBuilder"><rect codeLine="15" fill="#F1F1F1" height="48" id="LinearGraphBuilder" rx="2.5" ry="2.5" style="stroke:#181818;stroke-width:0.5;" width="156" x="1847" y="194"/><ellipse cx="1862" cy="210" fill="#ADD1B2" rx="11" ry="11" style="stroke:#181818;stroke-width:1.0;"/><path d="M1864.7656,205.875 Q1864.9219,205.6563 1865.1094,205.5469 Q1865.2969,205.4375 1865.5156,205.4375 Q1865.8906,205.4375 1866.125,205.6953 Q1866.3594,205.9531 1866.3594,206.5625 L1866.3594,208.0156 Q1866.3594,208.625 1866.125,208.8906 Q1865.8906,209.1563 1865.5156,209.1563 Q1865.1719,209.1563 1864.9688,208.9531 Q1864.7656,208.7656 1864.6563,208.25 Q1864.6094,207.8906 1864.4219,207.7031 Q1864.0938,207.3281 1863.4844,207.1094 Q1862.875,206.8906 1862.25,206.8906 Q1861.4844,206.8906 1860.8516,207.2188 Q1860.2188,207.5469 1859.7266,208.2969 Q1859.2344,209.0469 1859.2344,210.0781 L1859.2344,211.1719 Q1859.2344,212.4063 1860.125,213.2266 Q1861.0156,214.0469 1862.6094,214.0469 Q1863.5469,214.0469 1864.2031,213.7969 Q1864.5938,213.6406 1865.0156,213.2031 Q1865.2813,212.9375 1865.4297,212.8594 Q1865.5781,212.7813 1865.7813,212.7813 Q1866.1094,212.7813 1866.3672,213.0391 Q1866.625,213.2969 1866.625,213.6406 Q1866.625,213.9844 1866.2813,214.3906 Q1865.7813,214.9688 1864.9844,215.2969 Q1863.9063,215.75 1862.6094,215.75 Q1861.0938,215.75 1859.8906,215.125 Q1858.9063,214.625 1858.2188,213.5547 Q1857.5313,212.4844 1857.5313,211.2031 L1857.5313,210.0469 Q1857.5313,208.7188 1858.1484,207.5703 Q1858.7656,206.4219 1859.8594,205.8047 Q1860.9531,205.1875 1862.1875,205.1875 Q1862.9219,205.1875 1863.5703,205.3516 Q1864.2188,205.5156 1864.7656,205.875 Z " fill="#000000"/><text fill="#000000" font-family="sans-serif" font-size="14" lengthAdjust="spacing" textLength="124" x="1876" y="215.7285">LinearGraphBuilder</text><line style="stroke:#181818;stroke-width:0.5;" x1="1848" x2="2002" y1="226" y2="226"/><line style="stroke:#181818;stroke-width:0.5;" x1="1848" x2="2002" y1="234" y2="234"/></g><!--MD5=[6f9993856f7dfcfb32a3e858fdbd3c2d]
class LinearGraph--><g id="elem_LinearGraph"><rect codeLine="16" fill="#F1F1F1" height="48" id="LinearGraph" rx="2.5" ry="2.5" style="stroke:#181818;stroke-width:0.5;" width="112" x="2038" y="194"/><ellipse cx="2053" cy="210" fill="#ADD1B2" rx="11" ry="11" style="stroke:#181818;stroke-width:1.0;"/><path d="M2055.7656,205.875 Q2055.9219,205.6563 2056.1094,205.5469 Q2056.2969,205.4375 2056.5156,205.4375 Q2056.8906,205.4375 2057.125,205.6953 Q2057.3594,205.9531 2057.3594,206.5625 L2057.3594,208.0156 Q2057.3594,208.625 2057.125,208.8906 Q2056.8906,209.1563 2056.5156,209.1563 Q2056.1719,209.1563 2055.9688,208.9531 Q2055.7656,208.7656 2055.6563,208.25 Q2055.6094,207.8906 2055.4219,207.7031 Q2055.0938,207.3281 2054.4844,207.1094 Q2053.875,206.8906 2053.25,206.8906 Q2052.4844,206.8906 2051.8516,207.2188 Q2051.2188,207.5469 2050.7266,208.2969 Q2050.2344,209.0469 2050.2344,210.0781 L2050.2344,211.1719 Q2050.2344,212.4063 2051.125,213.2266 Q2052.0156,214.0469 2053.6094,214.0469 Q2054.5469,214.0469 2055.2031,213.7969 Q2055.5938,213.6406 2056.0156,213.2031 Q2056.2813,212.9375 2056.4297,212.8594 Q2056.5781,212.7813 2056.7813,212.7813 Q2057.1094,212.7813 2057.3672,213.0391 Q2057.625,213.2969 2057.625,213.6406 Q2057.625,213.9844 2057.2813,214.3906 Q2056.7813,214.9688 2055.9844,215.2969 Q2054.9063,215.75 2053.6094,215.75 Q2052.0938,215.75 2050.8906,215.125 Q2049.9063,214.625 2049.2188,213.5547 Q2048.5313,212.4844 2048.5313,211.2031 L2048.5313,210.0469 Q2048.5313,208.7188 2049.1484,207.5703 Q2049.7656,206.4219 2050.8594,205.8047 Q2051.9531,205.1875 2053.1875,205.1875 Q2053.9219,205.1875 2054.5703,205.3516 Q2055.2188,205.5156 2055.7656,205.875 Z " fill="#000000"/><text fill="#000000" font-family="sans-serif" font-size="14" lengthAdjust="spacing" textLength="80" x="2067" y="215.7285">LinearGraph</text><line style="stroke:#181818;stroke-width:0.5;" x1="2039" x2="2149" y1="226" y2="226"/><line style="stroke:#181818;stroke-width:0.5;" x1="2039" x2="2149" y1="234" y2="234"/></g><!--MD5=[eb1b21c623a6d695731a5485efcb9819]
class LogInstructionCollector--><g id="elem_LogInstructionCollector"><rect codeLine="19" fill="#F1F1F1" height="48" id="LogInstructionCollector" rx="2.5" ry="2.5" style="stroke:#181818;stroke-width:0.5;" width="178" x="1287" y="86"/><ellipse cx="1302" cy="102" fill="#B4A7E5" rx="11" ry="11" style="stroke:#181818;stroke-width:1.0;"/><path d="M1302.9531,98.6406 L1302.9531,105.2969 L1304.6719,105.2969 Q1305.2813,105.2969 1305.5469,105.5313 Q1305.8125,105.7656 1305.8125,106.1563 Q1305.8125,106.5313 1305.5469,106.7656 Q1305.2813,107 1304.6719,107 L1299.5313,107 Q1298.9219,107 1298.6563,106.7656 Q1298.3906,106.5313 1298.3906,106.1406 Q1298.3906,105.7656 1298.6563,105.5313 Q1298.9219,105.2969 1299.5313,105.2969 L1301.25,105.2969 L1301.25,98.6406 L1299.5313,98.6406 Q1298.9219,98.6406 1298.6563,98.4063 Q1298.3906,98.1719 1298.3906,97.7813 Q1298.3906,97.4063 1298.6563,97.1719 Q1298.9219,96.9375 1299.5313,96.9375 L1304.6719,96.9375 Q1305.2813,96.9375 1305.5469,97.1719 Q1305.8125,97.4063 1305.8125,97.7813 Q1305.8125,98.1719 1305.5469,98.4063 Q1305.2813,98.6406 1304.6719,98.6406 L1302.9531,98.6406 Z " fill="#000000"/><text fill="#000000" font-family="sans-serif" font-size="14" font-style="italic" lengthAdjust="spacing" textLength="146" x="1316" y="107.7285">LogInstructionCollector</text><line style="stroke:#181818;stroke-width:0.5;" x1="1288" x2="1464" y1="118" y2="118"/><line style="stroke:#181818;stroke-width:0.5;" x1="1288" x2="1464" y1="126" y2="126"/></g><!--MD5=[e8f52cef377e304b977822c8772acb84]
class Log4JCollector--><g id="elem_Log4JCollector"><rect codeLine="20" fill="#F1F1F1" height="48" id="Log4JCollector" rx="2.5" ry="2.5" style="stroke:#181818;stroke-width:0.5;" width="126" x="1500" y="86"/><ellipse cx="1515" cy="102" fill="#ADD1B2" rx="11" ry="11" style="stroke:#181818;stroke-width:1.0;"/><path d="M1517.7656,97.875 Q1517.9219,97.6563 1518.1094,97.5469 Q1518.2969,97.4375 1518.5156,97.4375 Q1518.8906,97.4375 1519.125,97.6953 Q1519.3594,97.9531 1519.3594,98.5625 L1519.3594,100.0156 Q1519.3594,100.625 1519.125,100.8906 Q1518.8906,101.1563 1518.5156,101.1563 Q1518.1719,101.1563 1517.9688,100.9531 Q1517.7656,100.7656 1517.6563,100.25 Q1517.6094,99.8906 1517.4219,99.7031 Q1517.0938,99.3281 1516.4844,99.1094 Q1515.875,98.8906 1515.25,98.8906 Q1514.4844,98.8906 1513.8516,99.2188 Q1513.2188,99.5469 1512.7266,100.2969 Q1512.2344,101.0469 1512.2344,102.0781 L1512.2344,103.1719 Q1512.2344,104.4063 1513.125,105.2266 Q1514.0156,106.0469 1515.6094,106.0469 Q1516.5469,106.0469 1517.2031,105.7969 Q1517.5938,105.6406 1518.0156,105.2031 Q1518.2813,104.9375 1518.4297,104.8594 Q1518.5781,104.7813 1518.7813,104.7813 Q1519.1094,104.7813 1519.3672,105.0391 Q1519.625,105.2969 1519.625,105.6406 Q1519.625,105.9844 1519.2813,106.3906 Q1518.7813,106.9688 1517.9844,107.2969 Q1516.9063,107.75 1515.6094,107.75 Q1514.0938,107.75 1512.8906,107.125 Q1511.9063,106.625 1511.2188,105.5547 Q1510.5313,104.4844 1510.5313,103.2031 L1510.5313,102.0469 Q1510.5313,100.7188 1511.1484,99.5703 Q1511.7656,98.4219 1512.8594,97.8047 Q1513.9531,97.1875 1515.1875,97.1875 Q1515.9219,97.1875 1516.5703,97.3516 Q1517.2188,97.5156 1517.7656,97.875 Z " fill="#000000"/><text fill="#000000" font-family="sans-serif" font-size="14" lengthAdjust="spacing" textLength="94" x="1529" y="107.7285">Log4JCollector</text><line style="stroke:#181818;stroke-width:0.5;" x1="1501" x2="1625" y1="118" y2="118"/><line style="stroke:#181818;stroke-width:0.5;" x1="1501" x2="1625" y1="126" y2="126"/></g><!--MD5=[e495d209213e4713227ad5c144ffc56b]
class Log4PCollector--><g id="elem_Log4PCollector"><rect codeLine="21" fill="#F1F1F1" height="48" id="Log4PCollector" rx="2.5" ry="2.5" style="stroke:#181818;stroke-width:0.5;" width="129" x="1661.5" y="86"/><ellipse cx="1676.5" cy="102" fill="#ADD1B2" rx="11" ry="11" style="stroke:#181818;stroke-width:1.0;"/><path d="M1679.2656,97.875 Q1679.4219,97.6563 1679.6094,97.5469 Q1679.7969,97.4375 1680.0156,97.4375 Q1680.3906,97.4375 1680.625,97.6953 Q1680.8594,97.9531 1680.8594,98.5625 L1680.8594,100.0156 Q1680.8594,100.625 1680.625,100.8906 Q1680.3906,101.1563 1680.0156,101.1563 Q1679.6719,101.1563 1679.4688,100.9531 Q1679.2656,100.7656 1679.1563,100.25 Q1679.1094,99.8906 1678.9219,99.7031 Q1678.5938,99.3281 1677.9844,99.1094 Q1677.375,98.8906 1676.75,98.8906 Q1675.9844,98.8906 1675.3516,99.2188 Q1674.7188,99.5469 1674.2266,100.2969 Q1673.7344,101.0469 1673.7344,102.0781 L1673.7344,103.1719 Q1673.7344,104.4063 1674.625,105.2266 Q1675.5156,106.0469 1677.1094,106.0469 Q1678.0469,106.0469 1678.7031,105.7969 Q1679.0938,105.6406 1679.5156,105.2031 Q1679.7813,104.9375 1679.9297,104.8594 Q1680.0781,104.7813 1680.2813,104.7813 Q1680.6094,104.7813 1680.8672,105.0391 Q1681.125,105.2969 1681.125,105.6406 Q1681.125,105.9844 1680.7813,106.3906 Q1680.2813,106.9688 1679.4844,107.2969 Q1678.4063,107.75 1677.1094,107.75 Q1675.5938,107.75 1674.3906,107.125 Q1673.4063,106.625 1672.7188,105.5547 Q1672.0313,104.4844 1672.0313,103.2031 L1672.0313,102.0469 Q1672.0313,100.7188 1672.6484,99.5703 Q1673.2656,98.4219 1674.3594,97.8047 Q1675.4531,97.1875 1676.6875,97.1875 Q1677.4219,97.1875 1678.0703,97.3516 Q1678.7188,97.5156 1679.2656,97.875 Z " fill="#000000"/><text fill="#000000" font-family="sans-serif" font-size="14" lengthAdjust="spacing" textLength="97" x="1690.5" y="107.7285">Log4PCollector</text><line style="stroke:#181818;stroke-width:0.5;" x1="1662.5" x2="1789.5" y1="118" y2="118"/><line style="stroke:#181818;stroke-width:0.5;" x1="1662.5" x2="1789.5" y1="126" y2="126"/></g><!--MD5=[618ac1cf5bc8a3d04f724c7f019864e3]
class LogInstruction--><g id="elem_LogInstruction"><rect codeLine="22" fill="#F1F1F1" height="48" id="LogInstruction" rx="2.5" ry="2.5" style="stroke:#181818;stroke-width:0.5;" width="121" x="1315.5" y="194"/><ellipse cx="1330.5" cy="210" fill="#ADD1B2" rx="11" ry="11" style="stroke:#181818;stroke-width:1.0;"/><path d="M1333.2656,205.875 Q1333.4219,205.6563 1333.6094,205.5469 Q1333.7969,205.4375 1334.0156,205.4375 Q1334.3906,205.4375 1334.625,205.6953 Q1334.8594,205.9531 1334.8594,206.5625 L1334.8594,208.0156 Q1334.8594,208.625 1334.625,208.8906 Q1334.3906,209.1563 1334.0156,209.1563 Q1333.6719,209.1563 1333.4688,208.9531 Q1333.2656,208.7656 1333.1563,208.25 Q1333.1094,207.8906 1332.9219,207.7031 Q1332.5938,207.3281 1331.9844,207.1094 Q1331.375,206.8906 1330.75,206.8906 Q1329.9844,206.8906 1329.3516,207.2188 Q1328.7188,207.5469 1328.2266,208.2969 Q1327.7344,209.0469 1327.7344,210.0781 L1327.7344,211.1719 Q1327.7344,212.4063 1328.625,213.2266 Q1329.5156,214.0469 1331.1094,214.0469 Q1332.0469,214.0469 1332.7031,213.7969 Q1333.0938,213.6406 1333.5156,213.2031 Q1333.7813,212.9375 1333.9297,212.8594 Q1334.0781,212.7813 1334.2813,212.7813 Q1334.6094,212.7813 1334.8672,213.0391 Q1335.125,213.2969 1335.125,213.6406 Q1335.125,213.9844 1334.7813,214.3906 Q1334.2813,214.9688 1333.4844,215.2969 Q1332.4063,215.75 1331.1094,215.75 Q1329.5938,215.75 1328.3906,215.125 Q1327.4063,214.625 1326.7188,213.5547 Q1326.0313,212.4844 1326.0313,211.2031 L1326.0313,210.0469 Q1326.0313,208.7188 1326.6484,207.5703 Q1327.2656,206.4219 1328.3594,205.8047 Q1329.4531,205.1875 1330.6875,205.1875 Q1331.4219,205.1875 1332.0703,205.3516 Q1332.7188,205.5156 1333.2656,205.875 Z " fill="#000000"/><text fill="#000000" font-family="sans-serif" font-size="14" lengthAdjust="spacing" textLength="89" x="1344.5" y="215.7285">LogInstruction</text><line style="stroke:#181818;stroke-width:0.5;" x1="1316.5" x2="1435.5" y1="226" y2="226"/><line style="stroke:#181818;stroke-width:0.5;" x1="1316.5" x2="1435.5" y1="234" y2="234"/></g><!--MD5=[392569bdf4cc06d7d4c14230b81d2d7d]
class Modification--><g id="elem_Modification"><rect codeLine="23" fill="#F1F1F1" height="48" id="Modification" rx="2.5" ry="2.5" style="stroke:#181818;stroke-width:0.5;" width="107" x="1471.5" y="194"/><ellipse cx="1486.5" cy="210" fill="#ADD1B2" rx="11" ry="11" style="stroke:#181818;stroke-width:1.0;"/><path d="M1489.2656,205.875 Q1489.4219,205.6563 1489.6094,205.5469 Q1489.7969,205.4375 1490.0156,205.4375 Q1490.3906,205.4375 1490.625,205.6953 Q1490.8594,205.9531 1490.8594,206.5625 L1490.8594,208.0156 Q1490.8594,208.625 1490.625,208.8906 Q1490.3906,209.1563 1490.0156,209.1563 Q1489.6719,209.1563 1489.4688,208.9531 Q1489.2656,208.7656 1489.1563,208.25 Q1489.1094,207.8906 1488.9219,207.7031 Q1488.5938,207.3281 1487.9844,207.1094 Q1487.375,206.8906 1486.75,206.8906 Q1485.9844,206.8906 1485.3516,207.2188 Q1484.7188,207.5469 1484.2266,208.2969 Q1483.7344,209.0469 1483.7344,210.0781 L1483.7344,211.1719 Q1483.7344,212.4063 1484.625,213.2266 Q1485.5156,214.0469 1487.1094,214.0469 Q1488.0469,214.0469 1488.7031,213.7969 Q1489.0938,213.6406 1489.5156,213.2031 Q1489.7813,212.9375 1489.9297,212.8594 Q1490.0781,212.7813 1490.2813,212.7813 Q1490.6094,212.7813 1490.8672,213.0391 Q1491.125,213.2969 1491.125,213.6406 Q1491.125,213.9844 1490.7813,214.3906 Q1490.2813,214.9688 1489.4844,215.2969 Q1488.4063,215.75 1487.1094,215.75 Q1485.5938,215.75 1484.3906,215.125 Q1483.4063,214.625 1482.7188,213.5547 Q1482.0313,212.4844 1482.0313,211.2031 L1482.0313,210.0469 Q1482.0313,208.7188 1482.6484,207.5703 Q1483.2656,206.4219 1484.3594,205.8047 Q1485.4531,205.1875 1486.6875,205.1875 Q1487.4219,205.1875 1488.0703,205.3516 Q1488.7188,205.5156 1489.2656,205.875 Z " fill="#000000"/><text fill="#000000" font-family="sans-serif" font-size="14" lengthAdjust="spacing" textLength="75" x="1500.5" y="215.7285">Modification</text><line style="stroke:#181818;stroke-width:0.5;" x1="1472.5" x2="1577.5" y1="226" y2="226"/><line style="stroke:#181818;stroke-width:0.5;" x1="1472.5" x2="1577.5" y1="234" y2="234"/></g><!--MD5=[756a5eb3d986321fecb12198addf98f6]
class LogInstructionFileGenerator--><g id="elem_LogInstructionFileGenerator"><rect codeLine="27" fill="#F1F1F1" height="48" id="LogInstructionFileGenerator" rx="2.5" ry="2.5" style="stroke:#181818;stroke-width:0.5;" width="210" x="1021" y="86"/><ellipse cx="1036" cy="102" fill="#B4A7E5" rx="11" ry="11" style="stroke:#181818;stroke-width:1.0;"/><path d="M1036.9531,98.6406 L1036.9531,105.2969 L1038.6719,105.2969 Q1039.2813,105.2969 1039.5469,105.5313 Q1039.8125,105.7656 1039.8125,106.1563 Q1039.8125,106.5313 1039.5469,106.7656 Q1039.2813,107 1038.6719,107 L1033.5313,107 Q1032.9219,107 1032.6563,106.7656 Q1032.3906,106.5313 1032.3906,106.1406 Q1032.3906,105.7656 1032.6563,105.5313 Q1032.9219,105.2969 1033.5313,105.2969 L1035.25,105.2969 L1035.25,98.6406 L1033.5313,98.6406 Q1032.9219,98.6406 1032.6563,98.4063 Q1032.3906,98.1719 1032.3906,97.7813 Q1032.3906,97.4063 1032.6563,97.1719 Q1032.9219,96.9375 1033.5313,96.9375 L1038.6719,96.9375 Q1039.2813,96.9375 1039.5469,97.1719 Q1039.8125,97.4063 1039.8125,97.7813 Q1039.8125,98.1719 1039.5469,98.4063 Q1039.2813,98.6406 1038.6719,98.6406 L1036.9531,98.6406 Z " fill="#000000"/><text fill="#000000" font-family="sans-serif" font-size="14" font-style="italic" lengthAdjust="spacing" textLength="178" x="1050" y="107.7285">LogInstructionFileGenerator</text><line style="stroke:#181818;stroke-width:0.5;" x1="1022" x2="1230" y1="118" y2="118"/><line style="stroke:#181818;stroke-width:0.5;" x1="1022" x2="1230" y1="126" y2="126"/></g><!--MD5=[5af79b0b2155ee57da9d7e0e1ff6f2fd]
class CsvFileGenerator--><g id="elem_CsvFileGenerator"><rect codeLine="28" fill="#F1F1F1" height="48" id="CsvFileGenerator" rx="2.5" ry="2.5" style="stroke:#181818;stroke-width:0.5;" width="144" x="842" y="86"/><ellipse cx="857" cy="102" fill="#ADD1B2" rx="11" ry="11" style="stroke:#181818;stroke-width:1.0;"/><path d="M859.7656,97.875 Q859.9219,97.6563 860.1094,97.5469 Q860.2969,97.4375 860.5156,97.4375 Q860.8906,97.4375 861.125,97.6953 Q861.3594,97.9531 861.3594,98.5625 L861.3594,100.0156 Q861.3594,100.625 861.125,100.8906 Q860.8906,101.1563 860.5156,101.1563 Q860.1719,101.1563 859.9688,100.9531 Q859.7656,100.7656 859.6563,100.25 Q859.6094,99.8906 859.4219,99.7031 Q859.0938,99.3281 858.4844,99.1094 Q857.875,98.8906 857.25,98.8906 Q856.4844,98.8906 855.8516,99.2188 Q855.2188,99.5469 854.7266,100.2969 Q854.2344,101.0469 854.2344,102.0781 L854.2344,103.1719 Q854.2344,104.4063 855.125,105.2266 Q856.0156,106.0469 857.6094,106.0469 Q858.5469,106.0469 859.2031,105.7969 Q859.5938,105.6406 860.0156,105.2031 Q860.2813,104.9375 860.4297,104.8594 Q860.5781,104.7813 860.7813,104.7813 Q861.1094,104.7813 861.3672,105.0391 Q861.625,105.2969 861.625,105.6406 Q861.625,105.9844 861.2813,106.3906 Q860.7813,106.9688 859.9844,107.2969 Q858.9063,107.75 857.6094,107.75 Q856.0938,107.75 854.8906,107.125 Q853.9063,106.625 853.2188,105.5547 Q852.5313,104.4844 852.5313,103.2031 L852.5313,102.0469 Q852.5313,100.7188 853.1484,99.5703 Q853.7656,98.4219 854.8594,97.8047 Q855.9531,97.1875 857.1875,97.1875 Q857.9219,97.1875 858.5703,97.3516 Q859.2188,97.5156 859.7656,97.875 Z " fill="#000000"/><text fill="#000000" font-family="sans-serif" font-size="14" lengthAdjust="spacing" textLength="112" x="871" y="107.7285">CsvFileGenerator</text><line style="stroke:#181818;stroke-width:0.5;" x1="843" x2="985" y1="118" y2="118"/><line style="stroke:#181818;stroke-width:0.5;" x1="843" x2="985" y1="126" y2="126"/></g><!--MD5=[9a5c7ef6f1b55b5416e49b291d6cd453]
class CommitWindowView--><g id="elem_CommitWindowView"><rect codeLine="33" fill="#F1F1F1" height="48" id="CommitWindowView" rx="2.5" ry="2.5" style="stroke:#181818;stroke-width:0.5;" width="157" x="2230.5" y="86"/><ellipse cx="2245.5" cy="102" fill="#ADD1B2" rx="11" ry="11" style="stroke:#181818;stroke-width:1.0;"/><path d="M2248.2656,97.875 Q2248.4219,97.6563 2248.6094,97.5469 Q2248.7969,97.4375 2249.0156,97.4375 Q2249.3906,97.4375 2249.625,97.6953 Q2249.8594,97.9531 2249.8594,98.5625 L2249.8594,100.0156 Q2249.8594,100.625 2249.625,100.8906 Q2249.3906,101.1563 2249.0156,101.1563 Q2248.6719,101.1563 2248.4688,100.9531 Q2248.2656,100.7656 2248.1563,100.25 Q2248.1094,99.8906 2247.9219,99.7031 Q2247.5938,99.3281 2246.9844,99.1094 Q2246.375,98.8906 2245.75,98.8906 Q2244.9844,98.8906 2244.3516,99.2188 Q2243.7188,99.5469 2243.2266,100.2969 Q2242.7344,101.0469 2242.7344,102.0781 L2242.7344,103.1719 Q2242.7344,104.4063 2243.625,105.2266 Q2244.5156,106.0469 2246.1094,106.0469 Q2247.0469,106.0469 2247.7031,105.7969 Q2248.0938,105.6406 2248.5156,105.2031 Q2248.7813,104.9375 2248.9297,104.8594 Q2249.0781,104.7813 2249.2813,104.7813 Q2249.6094,104.7813 2249.8672,105.0391 Q2250.125,105.2969 2250.125,105.6406 Q2250.125,105.9844 2249.7813,106.3906 Q2249.2813,106.9688 2248.4844,107.2969 Q2247.4063,107.75 2246.1094,107.75 Q2244.5938,107.75 2243.3906,107.125 Q2242.4063,106.625 2241.7188,105.5547 Q2241.0313,104.4844 2241.0313,103.2031 L2241.0313,102.0469 Q2241.0313,100.7188 2241.6484,99.5703 Q2242.2656,98.4219 2243.3594,97.8047 Q2244.4531,97.1875 2245.6875,97.1875 Q2246.4219,97.1875 2247.0703,97.3516 Q2247.7188,97.5156 2248.2656,97.875 Z " fill="#000000"/><text fill="#000000" font-family="sans-serif" font-size="14" lengthAdjust="spacing" textLength="125" x="2259.5" y="107.7285">CommitWindowView</text><line style="stroke:#181818;stroke-width:0.5;" x1="2231.5" x2="2386.5" y1="118" y2="118"/><line style="stroke:#181818;stroke-width:0.5;" x1="2231.5" x2="2386.5" y1="126" y2="126"/></g><!--MD5=[638d2833c1deeea8266eb58e4e049321]
class HomeView--><g id="elem_HomeView"><rect codeLine="34" fill="#F1F1F1" height="48" id="HomeView" rx="2.5" ry="2.5" style="stroke:#181818;stroke-width:0.5;" width="97" x="2422.5" y="86"/><ellipse cx="2437.5" cy="102" fill="#ADD1B2" rx="11" ry="11" style="stroke:#181818;stroke-width:1.0;"/><path d="M2440.2656,97.875 Q2440.4219,97.6563 2440.6094,97.5469 Q2440.7969,97.4375 2441.0156,97.4375 Q2441.3906,97.4375 2441.625,97.6953 Q2441.8594,97.9531 2441.8594,98.5625 L2441.8594,100.0156 Q2441.8594,100.625 2441.625,100.8906 Q2441.3906,101.1563 2441.0156,101.1563 Q2440.6719,101.1563 2440.4688,100.9531 Q2440.2656,100.7656 2440.1563,100.25 Q2440.1094,99.8906 2439.9219,99.7031 Q2439.5938,99.3281 2438.9844,99.1094 Q2438.375,98.8906 2437.75,98.8906 Q2436.9844,98.8906 2436.3516,99.2188 Q2435.7188,99.5469 2435.2266,100.2969 Q2434.7344,101.0469 2434.7344,102.0781 L2434.7344,103.1719 Q2434.7344,104.4063 2435.625,105.2266 Q2436.5156,106.0469 2438.1094,106.0469 Q2439.0469,106.0469 2439.7031,105.7969 Q2440.0938,105.6406 2440.5156,105.2031 Q2440.7813,104.9375 2440.9297,104.8594 Q2441.0781,104.7813 2441.2813,104.7813 Q2441.6094,104.7813 2441.8672,105.0391 Q2442.125,105.2969 2442.125,105.6406 Q2442.125,105.9844 2441.7813,106.3906 Q2441.2813,106.9688 2440.4844,107.2969 Q2439.4063,107.75 2438.1094,107.75 Q2436.5938,107.75 2435.3906,107.125 Q2434.4063,106.625 2433.7188,105.5547 Q2433.0313,104.4844 2433.0313,103.2031 L2433.0313,102.0469 Q2433.0313,100.7188 2433.6484,99.5703 Q2434.2656,98.4219 2435.3594,97.8047 Q2436.4531,97.1875 2437.6875,97.1875 Q2438.4219,97.1875 2439.0703,97.3516 Q2439.7188,97.5156 2440.2656,97.875 Z " fill="#000000"/><text fill="#000000" font-family="sans-serif" font-size="14" lengthAdjust="spacing" textLength="65" x="2451.5" y="107.7285">HomeView</text><line style="stroke:#181818;stroke-width:0.5;" x1="2423.5" x2="2518.5" y1="118" y2="118"/><line style="stroke:#181818;stroke-width:0.5;" x1="2423.5" x2="2518.5" y1="126" y2="126"/></g><!--MD5=[8283b49bf57b64d6403c6871ced2d88e]
class NewRepoView--><g id="elem_NewRepoView"><rect codeLine="35" fill="#F1F1F1" height="48" id="NewRepoView" rx="2.5" ry="2.5" style="stroke:#181818;stroke-width:0.5;" width="121" x="2230.5" y="194"/><ellipse cx="2245.5" cy="210" fill="#ADD1B2" rx="11" ry="11" style="stroke:#181818;stroke-width:1.0;"/><path d="M2248.2656,205.875 Q2248.4219,205.6563 2248.6094,205.5469 Q2248.7969,205.4375 2249.0156,205.4375 Q2249.3906,205.4375 2249.625,205.6953 Q2249.8594,205.9531 2249.8594,206.5625 L2249.8594,208.0156 Q2249.8594,208.625 2249.625,208.8906 Q2249.3906,209.1563 2249.0156,209.1563 Q2248.6719,209.1563 2248.4688,208.9531 Q2248.2656,208.7656 2248.1563,208.25 Q2248.1094,207.8906 2247.9219,207.7031 Q2247.5938,207.3281 2246.9844,207.1094 Q2246.375,206.8906 2245.75,206.8906 Q2244.9844,206.8906 2244.3516,207.2188 Q2243.7188,207.5469 2243.2266,208.2969 Q2242.7344,209.0469 2242.7344,210.0781 L2242.7344,211.1719 Q2242.7344,212.4063 2243.625,213.2266 Q2244.5156,214.0469 2246.1094,214.0469 Q2247.0469,214.0469 2247.7031,213.7969 Q2248.0938,213.6406 2248.5156,213.2031 Q2248.7813,212.9375 2248.9297,212.8594 Q2249.0781,212.7813 2249.2813,212.7813 Q2249.6094,212.7813 2249.8672,213.0391 Q2250.125,213.2969 2250.125,213.6406 Q2250.125,213.9844 2249.7813,214.3906 Q2249.2813,214.9688 2248.4844,215.2969 Q2247.4063,215.75 2246.1094,215.75 Q2244.5938,215.75 2243.3906,215.125 Q2242.4063,214.625 2241.7188,213.5547 Q2241.0313,212.4844 2241.0313,211.2031 L2241.0313,210.0469 Q2241.0313,208.7188 2241.6484,207.5703 Q2242.2656,206.4219 2243.3594,205.8047 Q2244.4531,205.1875 2245.6875,205.1875 Q2246.4219,205.1875 2247.0703,205.3516 Q2247.7188,205.5156 2248.2656,205.875 Z " fill="#000000"/><text fill="#000000" font-family="sans-serif" font-size="14" lengthAdjust="spacing" textLength="89" x="2259.5" y="215.7285">NewRepoView</text><line style="stroke:#181818;stroke-width:0.5;" x1="2231.5" x2="2350.5" y1="226" y2="226"/><line style="stroke:#181818;stroke-width:0.5;" x1="2231.5" x2="2350.5" y1="234" y2="234"/></g><!--MD5=[d12f2f72b0fd0dffee309c62bc6c5250]
class TraceVisualizationView--><g id="elem_TraceVisualizationView"><rect codeLine="36" fill="#F1F1F1" height="48" id="TraceVisualizationView" rx="2.5" ry="2.5" style="stroke:#181818;stroke-width:0.5;" width="176" x="2387" y="194"/><ellipse cx="2402" cy="210" fill="#ADD1B2" rx="11" ry="11" style="stroke:#181818;stroke-width:1.0;"/><path d="M2404.7656,205.875 Q2404.9219,205.6563 2405.1094,205.5469 Q2405.2969,205.4375 2405.5156,205.4375 Q2405.8906,205.4375 2406.125,205.6953 Q2406.3594,205.9531 2406.3594,206.5625 L2406.3594,208.0156 Q2406.3594,208.625 2406.125,208.8906 Q2405.8906,209.1563 2405.5156,209.1563 Q2405.1719,209.1563 2404.9688,208.9531 Q2404.7656,208.7656 2404.6563,208.25 Q2404.6094,207.8906 2404.4219,207.7031 Q2404.0938,207.3281 2403.4844,207.1094 Q2402.875,206.8906 2402.25,206.8906 Q2401.4844,206.8906 2400.8516,207.2188 Q2400.2188,207.5469 2399.7266,208.2969 Q2399.2344,209.0469 2399.2344,210.0781 L2399.2344,211.1719 Q2399.2344,212.4063 2400.125,213.2266 Q2401.0156,214.0469 2402.6094,214.0469 Q2403.5469,214.0469 2404.2031,213.7969 Q2404.5938,213.6406 2405.0156,213.2031 Q2405.2813,212.9375 2405.4297,212.8594 Q2405.5781,212.7813 2405.7813,212.7813 Q2406.1094,212.7813 2406.3672,213.0391 Q2406.625,213.2969 2406.625,213.6406 Q2406.625,213.9844 2406.2813,214.3906 Q2405.7813,214.9688 2404.9844,215.2969 Q2403.9063,215.75 2402.6094,215.75 Q2401.0938,215.75 2399.8906,215.125 Q2398.9063,214.625 2398.2188,213.5547 Q2397.5313,212.4844 2397.5313,211.2031 L2397.5313,210.0469 Q2397.5313,208.7188 2398.1484,207.5703 Q2398.7656,206.4219 2399.8594,205.8047 Q2400.9531,205.1875 2402.1875,205.1875 Q2402.9219,205.1875 2403.5703,205.3516 Q2404.2188,205.5156 2404.7656,205.875 Z " fill="#000000"/><text fill="#000000" font-family="sans-serif" font-size="14" lengthAdjust="spacing" textLength="144" x="2416" y="215.7285">TraceVisualizationView</text><line style="stroke:#181818;stroke-width:0.5;" x1="2388" x2="2562" y1="226" y2="226"/><line style="stroke:#181818;stroke-width:0.5;" x1="2388" x2="2562" y1="234" y2="234"/></g><!--MD5=[d0f9ed4337d0dbba1ce28a62c1bfb4e5]
@startuml packageView

package controller {
    class HomeController
    class TraceVisualizerController
    class NewRepoController
}

package model {

    class LogInstructionDiffGenerator
    class ReposManager
    package GraphBuilders{
        class Director
        interface GraphBuilder
        class LinearGraphBuilder
        class LinearGraph
    }
    package LogInstructionCollectors{
        interface LogInstructionCollector
        class Log4JCollector
        class Log4PCollector
        class LogInstruction
        class Modification
    }

    package LogInstructionFileGenerators{
        interface LogInstructionFileGenerator
        class CsvFileGenerator
    }
}

package view {
    class CommitWindowView
    class HomeView
    class NewRepoView
    class TraceVisualizationView
}
@enduml

PlantUML version 1.2022.7(Mon Aug 22 13:01:30 EDT 2022)
(GPL source distribution)
Java Runtime: Java(TM) SE Runtime Environment
JVM: Java HotSpot(TM) Client VM
Default Encoding: Cp1252
Language: en
Country: US
--></g></svg>