<?xml version="1.0" encoding="UTF-8" standalone="no"?><svg xmlns="http://www.w3.org/2000/svg" xmlns:xlink="http://www.w3.org/1999/xlink" contentStyleType="text/css" height="275px" preserveAspectRatio="none" style="width:1439px;height:275px;background:#FFFFFF;" version="1.1" viewBox="0 0 1439 275" width="1439px" zoomAndPan="magnify"><defs/><g><!--MD5=[624fda96084990f474dbb692f3ed956d]
class TraceVisualizerController--><g id="elem_TraceVisualizerController"><rect codeLine="1" fill="#F1F1F1" height="118.4375" id="TraceVisualizerController" rx="2.5" ry="2.5" style="stroke:#181818;stroke-width:0.5;" width="559" x="545" y="7"/><ellipse cx="740.75" cy="23" fill="#ADD1B2" rx="11" ry="11" style="stroke:#181818;stroke-width:1.0;"/><path d="M743.5156,18.875 Q743.6719,18.6563 743.8594,18.5469 Q744.0469,18.4375 744.2656,18.4375 Q744.6406,18.4375 744.875,18.6953 Q745.1094,18.9531 745.1094,19.5625 L745.1094,21.0156 Q745.1094,21.625 744.875,21.8906 Q744.6406,22.1563 744.2656,22.1563 Q743.9219,22.1563 743.7188,21.9531 Q743.5156,21.7656 743.4063,21.25 Q743.3594,20.8906 743.1719,20.7031 Q742.8438,20.3281 742.2344,20.1094 Q741.625,19.8906 741,19.8906 Q740.2344,19.8906 739.6016,20.2188 Q738.9688,20.5469 738.4766,21.2969 Q737.9844,22.0469 737.9844,23.0781 L737.9844,24.1719 Q737.9844,25.4063 738.875,26.2266 Q739.7656,27.0469 741.3594,27.0469 Q742.2969,27.0469 742.9531,26.7969 Q743.3438,26.6406 743.7656,26.2031 Q744.0313,25.9375 744.1797,25.8594 Q744.3281,25.7813 744.5313,25.7813 Q744.8594,25.7813 745.1172,26.0391 Q745.375,26.2969 745.375,26.6406 Q745.375,26.9844 745.0313,27.3906 Q744.5313,27.9688 743.7344,28.2969 Q742.6563,28.75 741.3594,28.75 Q739.8438,28.75 738.6406,28.125 Q737.6563,27.625 736.9688,26.5547 Q736.2813,25.4844 736.2813,24.2031 L736.2813,23.0469 Q736.2813,21.7188 736.8984,20.5703 Q737.5156,19.4219 738.6094,18.8047 Q739.7031,18.1875 740.9375,18.1875 Q741.6719,18.1875 742.3203,18.3516 Q742.9688,18.5156 743.5156,18.875 Z " fill="#000000"/><text fill="#000000" font-family="sans-serif" font-size="14" lengthAdjust="spacing" textLength="159" x="761.25" y="28.7285">TraceVisualizerController</text><line style="stroke:#181818;stroke-width:0.5;" x1="546" x2="1103" y1="39" y2="39"/><rect fill="none" height="6" style="stroke:#C82930;stroke-width:1.0;" width="6" x="553" y="50.3047"/><text fill="#000000" font-family="sans-serif" font-size="14" lengthAdjust="spacing" textLength="329" x="565" y="57.5332">strategy_collector : LogInstructionCollectorsStrategy</text><rect fill="none" height="6" style="stroke:#C82930;stroke-width:1.0;" width="6" x="553" y="67.9141"/><text fill="#000000" font-family="sans-serif" font-size="14" lengthAdjust="spacing" textLength="396" x="565" y="75.1426">strategy_generator_file : LogInstructionFileGeneratorsStrategy</text><line style="stroke:#181818;stroke-width:0.5;" x1="546" x2="1103" y1="82.2188" y2="82.2188"/><rect fill="#F24D5C" height="6" style="stroke:#C82930;stroke-width:1.0;" width="6" x="553" y="93.5234"/><text fill="#000000" font-family="sans-serif" font-size="14" lengthAdjust="spacing" textLength="466" x="565" y="100.752">set_strategy_collector(strategy : String) : LogInstructionCollectorsStrategy</text><rect fill="#F24D5C" height="6" style="stroke:#C82930;stroke-width:1.0;" width="6" x="553" y="111.1328"/><text fill="#000000" font-family="sans-serif" font-size="14" lengthAdjust="spacing" textLength="533" x="565" y="118.3613">set_strategy_generator_file(strategy : String) : LogInstructionFileGeneratorsStrategy</text></g><!--MD5=[388245a4d28dd375e067b2e75943a2e5]
class TraceVisualizerView--><g id="elem_TraceVisualizerView"><rect codeLine="8" fill="#F1F1F1" height="83.2188" id="TraceVisualizerView" rx="2.5" ry="2.5" style="stroke:#181818;stroke-width:0.5;" width="381" x="7" y="185"/><ellipse cx="130.25" cy="201" fill="#ADD1B2" rx="11" ry="11" style="stroke:#181818;stroke-width:1.0;"/><path d="M133.0156,196.875 Q133.1719,196.6563 133.3594,196.5469 Q133.5469,196.4375 133.7656,196.4375 Q134.1406,196.4375 134.375,196.6953 Q134.6094,196.9531 134.6094,197.5625 L134.6094,199.0156 Q134.6094,199.625 134.375,199.8906 Q134.1406,200.1563 133.7656,200.1563 Q133.4219,200.1563 133.2188,199.9531 Q133.0156,199.7656 132.9063,199.25 Q132.8594,198.8906 132.6719,198.7031 Q132.3438,198.3281 131.7344,198.1094 Q131.125,197.8906 130.5,197.8906 Q129.7344,197.8906 129.1016,198.2188 Q128.4688,198.5469 127.9766,199.2969 Q127.4844,200.0469 127.4844,201.0781 L127.4844,202.1719 Q127.4844,203.4063 128.375,204.2266 Q129.2656,205.0469 130.8594,205.0469 Q131.7969,205.0469 132.4531,204.7969 Q132.8438,204.6406 133.2656,204.2031 Q133.5313,203.9375 133.6797,203.8594 Q133.8281,203.7813 134.0313,203.7813 Q134.3594,203.7813 134.6172,204.0391 Q134.875,204.2969 134.875,204.6406 Q134.875,204.9844 134.5313,205.3906 Q134.0313,205.9688 133.2344,206.2969 Q132.1563,206.75 130.8594,206.75 Q129.3438,206.75 128.1406,206.125 Q127.1563,205.625 126.4688,204.5547 Q125.7813,203.4844 125.7813,202.2031 L125.7813,201.0469 Q125.7813,199.7188 126.3984,198.5703 Q127.0156,197.4219 128.1094,196.8047 Q129.2031,196.1875 130.4375,196.1875 Q131.1719,196.1875 131.8203,196.3516 Q132.4688,196.5156 133.0156,196.875 Z " fill="#000000"/><text fill="#000000" font-family="sans-serif" font-size="14" lengthAdjust="spacing" textLength="126" x="150.75" y="206.7285">TraceVisualizerView</text><line style="stroke:#181818;stroke-width:0.5;" x1="8" x2="387" y1="217" y2="217"/><line style="stroke:#181818;stroke-width:0.5;" x1="8" x2="387" y1="225" y2="225"/><ellipse cx="18" cy="239.3047" fill="#84BE84" rx="3" ry="3" style="stroke:#038048;stroke-width:1.0;"/><text fill="#000000" font-family="sans-serif" font-size="14" lengthAdjust="spacing" textLength="355" x="27" y="243.5332">setLogInstructions(logInstructions : List&lt;LogInstruction&gt;)</text><ellipse cx="18" cy="256.9141" fill="#84BE84" rx="3" ry="3" style="stroke:#038048;stroke-width:1.0;"/><text fill="#000000" font-family="sans-serif" font-size="14" lengthAdjust="spacing" textLength="223" x="27" y="261.1426">set_graphic(graphic : LinearGraph)</text></g><!--MD5=[2e427409284e4192b674167e2f40184d]
class LogInstructionDiffGenerator--><g id="elem_LogInstructionDiffGenerator"><rect codeLine="13" fill="#F1F1F1" height="65.6094" id="LogInstructionDiffGenerator" rx="2.5" ry="2.5" style="stroke:#181818;stroke-width:0.5;" width="433" x="423" y="193.5"/><ellipse cx="547.75" cy="209.5" fill="#ADD1B2" rx="11" ry="11" style="stroke:#181818;stroke-width:1.0;"/><path d="M550.5156,205.375 Q550.6719,205.1563 550.8594,205.0469 Q551.0469,204.9375 551.2656,204.9375 Q551.6406,204.9375 551.875,205.1953 Q552.1094,205.4531 552.1094,206.0625 L552.1094,207.5156 Q552.1094,208.125 551.875,208.3906 Q551.6406,208.6563 551.2656,208.6563 Q550.9219,208.6563 550.7188,208.4531 Q550.5156,208.2656 550.4063,207.75 Q550.3594,207.3906 550.1719,207.2031 Q549.8438,206.8281 549.2344,206.6094 Q548.625,206.3906 548,206.3906 Q547.2344,206.3906 546.6016,206.7188 Q545.9688,207.0469 545.4766,207.7969 Q544.9844,208.5469 544.9844,209.5781 L544.9844,210.6719 Q544.9844,211.9063 545.875,212.7266 Q546.7656,213.5469 548.3594,213.5469 Q549.2969,213.5469 549.9531,213.2969 Q550.3438,213.1406 550.7656,212.7031 Q551.0313,212.4375 551.1797,212.3594 Q551.3281,212.2813 551.5313,212.2813 Q551.8594,212.2813 552.1172,212.5391 Q552.375,212.7969 552.375,213.1406 Q552.375,213.4844 552.0313,213.8906 Q551.5313,214.4688 550.7344,214.7969 Q549.6563,215.25 548.3594,215.25 Q546.8438,215.25 545.6406,214.625 Q544.6563,214.125 543.9688,213.0547 Q543.2813,211.9844 543.2813,210.7031 L543.2813,209.5469 Q543.2813,208.2188 543.8984,207.0703 Q544.5156,205.9219 545.6094,205.3047 Q546.7031,204.6875 547.9375,204.6875 Q548.6719,204.6875 549.3203,204.8516 Q549.9688,205.0156 550.5156,205.375 Z " fill="#000000"/><text fill="#000000" font-family="sans-serif" font-size="14" lengthAdjust="spacing" textLength="175" x="568.25" y="215.2285">LogInstructionDiffGenerator</text><line style="stroke:#181818;stroke-width:0.5;" x1="424" x2="855" y1="225.5" y2="225.5"/><line style="stroke:#181818;stroke-width:0.5;" x1="424" x2="855" y1="233.5" y2="233.5"/><ellipse cx="434" cy="247.8047" fill="#84BE84" rx="3" ry="3" style="stroke:#038048;stroke-width:1.0;"/><text fill="#000000" font-family="sans-serif" font-size="14" lengthAdjust="spacing" textLength="407" x="443" y="252.0332">getCommitChanges(commits : List&lt;Commit&gt;) : List&lt;Modification&gt;</text></g><!--MD5=[de8adb074d711e6f73d0179e8e5f5813]
class LogInstructionCollectorsStrategy--><g id="elem_LogInstructionCollectorsStrategy"><rect fill="#F1F1F1" height="48" id="LogInstructionCollectorsStrategy" rx="2.5" ry="2.5" style="stroke:#181818;stroke-width:0.5;" width="237" x="891" y="202.5"/><ellipse cx="906" cy="218.5" fill="#ADD1B2" rx="11" ry="11" style="stroke:#181818;stroke-width:1.0;"/><path d="M908.7656,214.375 Q908.9219,214.1563 909.1094,214.0469 Q909.2969,213.9375 909.5156,213.9375 Q909.8906,213.9375 910.125,214.1953 Q910.3594,214.4531 910.3594,215.0625 L910.3594,216.5156 Q910.3594,217.125 910.125,217.3906 Q909.8906,217.6563 909.5156,217.6563 Q909.1719,217.6563 908.9688,217.4531 Q908.7656,217.2656 908.6563,216.75 Q908.6094,216.3906 908.4219,216.2031 Q908.0938,215.8281 907.4844,215.6094 Q906.875,215.3906 906.25,215.3906 Q905.4844,215.3906 904.8516,215.7188 Q904.2188,216.0469 903.7266,216.7969 Q903.2344,217.5469 903.2344,218.5781 L903.2344,219.6719 Q903.2344,220.9063 904.125,221.7266 Q905.0156,222.5469 906.6094,222.5469 Q907.5469,222.5469 908.2031,222.2969 Q908.5938,222.1406 909.0156,221.7031 Q909.2813,221.4375 909.4297,221.3594 Q909.5781,221.2813 909.7813,221.2813 Q910.1094,221.2813 910.3672,221.5391 Q910.625,221.7969 910.625,222.1406 Q910.625,222.4844 910.2813,222.8906 Q909.7813,223.4688 908.9844,223.7969 Q907.9063,224.25 906.6094,224.25 Q905.0938,224.25 903.8906,223.625 Q902.9063,223.125 902.2188,222.0547 Q901.5313,220.9844 901.5313,219.7031 L901.5313,218.5469 Q901.5313,217.2188 902.1484,216.0703 Q902.7656,214.9219 903.8594,214.3047 Q904.9531,213.6875 906.1875,213.6875 Q906.9219,213.6875 907.5703,213.8516 Q908.2188,214.0156 908.7656,214.375 Z " fill="#000000"/><text fill="#000000" font-family="sans-serif" font-size="14" lengthAdjust="spacing" textLength="205" x="920" y="224.2285">LogInstructionCollectorsStrategy</text><line style="stroke:#181818;stroke-width:0.5;" x1="892" x2="1127" y1="234.5" y2="234.5"/><line style="stroke:#181818;stroke-width:0.5;" x1="892" x2="1127" y1="242.5" y2="242.5"/></g><!--MD5=[aae3493685a0d9cfb2bd0827e5c17900]
class LogInstructionFileGeneratorsStrategy--><g id="elem_LogInstructionFileGeneratorsStrategy"><rect fill="#F1F1F1" height="48" id="LogInstructionFileGeneratorsStrategy" rx="2.5" ry="2.5" style="stroke:#181818;stroke-width:0.5;" width="269" x="1163" y="202.5"/><ellipse cx="1178" cy="218.5" fill="#ADD1B2" rx="11" ry="11" style="stroke:#181818;stroke-width:1.0;"/><path d="M1180.7656,214.375 Q1180.9219,214.1563 1181.1094,214.0469 Q1181.2969,213.9375 1181.5156,213.9375 Q1181.8906,213.9375 1182.125,214.1953 Q1182.3594,214.4531 1182.3594,215.0625 L1182.3594,216.5156 Q1182.3594,217.125 1182.125,217.3906 Q1181.8906,217.6563 1181.5156,217.6563 Q1181.1719,217.6563 1180.9688,217.4531 Q1180.7656,217.2656 1180.6563,216.75 Q1180.6094,216.3906 1180.4219,216.2031 Q1180.0938,215.8281 1179.4844,215.6094 Q1178.875,215.3906 1178.25,215.3906 Q1177.4844,215.3906 1176.8516,215.7188 Q1176.2188,216.0469 1175.7266,216.7969 Q1175.2344,217.5469 1175.2344,218.5781 L1175.2344,219.6719 Q1175.2344,220.9063 1176.125,221.7266 Q1177.0156,222.5469 1178.6094,222.5469 Q1179.5469,222.5469 1180.2031,222.2969 Q1180.5938,222.1406 1181.0156,221.7031 Q1181.2813,221.4375 1181.4297,221.3594 Q1181.5781,221.2813 1181.7813,221.2813 Q1182.1094,221.2813 1182.3672,221.5391 Q1182.625,221.7969 1182.625,222.1406 Q1182.625,222.4844 1182.2813,222.8906 Q1181.7813,223.4688 1180.9844,223.7969 Q1179.9063,224.25 1178.6094,224.25 Q1177.0938,224.25 1175.8906,223.625 Q1174.9063,223.125 1174.2188,222.0547 Q1173.5313,220.9844 1173.5313,219.7031 L1173.5313,218.5469 Q1173.5313,217.2188 1174.1484,216.0703 Q1174.7656,214.9219 1175.8594,214.3047 Q1176.9531,213.6875 1178.1875,213.6875 Q1178.9219,213.6875 1179.5703,213.8516 Q1180.2188,214.0156 1180.7656,214.375 Z " fill="#000000"/><text fill="#000000" font-family="sans-serif" font-size="14" lengthAdjust="spacing" textLength="237" x="1192" y="224.2285">LogInstructionFileGeneratorsStrategy</text><line style="stroke:#181818;stroke-width:0.5;" x1="1164" x2="1431" y1="234.5" y2="234.5"/><line style="stroke:#181818;stroke-width:0.5;" x1="1164" x2="1431" y1="242.5" y2="242.5"/></g><!--MD5=[772c04445e493f915fab86436f0cefa4]
reverse link TraceVisualizerController to TraceVisualizerView--><g id="link_TraceVisualizerController_TraceVisualizerView"><path codeLine="17" d="M582.06,128.29 C506.96,147.27 426.12,167.71 358.03,184.92 " fill="none" id="TraceVisualizerController-backto-TraceVisualizerView" style="stroke:#181818;stroke-width:1.0;"/><polygon fill="none" points="595.03,125.01,588.2326,122.6028,583.3961,127.9515,590.1935,130.3587,595.03,125.01" style="stroke:#181818;stroke-width:1.0;"/><text fill="#000000" font-family="sans-serif" font-size="13" lengthAdjust="spacing" textLength="7" x="558.1807" y="147.0853">1</text><text fill="#000000" font-family="sans-serif" font-size="13" lengthAdjust="spacing" textLength="7" x="377.0381" y="174.2144">1</text></g><!--MD5=[e68c28f5acde5f5b85d7ef1c7731eb34]
link TraceVisualizerController to LogInstructionDiffGenerator--><g id="link_TraceVisualizerController_LogInstructionDiffGenerator"><path codeLine="18" d="M756.66,125.12 C731.22,146.92 703.09,171.02 680.77,190.14 " fill="none" id="TraceVisualizerController-to-LogInstructionDiffGenerator" style="stroke:#181818;stroke-width:1.0;stroke-dasharray:7.0,7.0;"/><polygon fill="#181818" points="676.96,193.41,686.3965,190.5899,680.7563,190.156,681.1901,184.5159,676.96,193.41" style="stroke:#181818;stroke-width:1.0;"/></g><!--MD5=[270672ceab79711002a849b9e80989d5]
reverse link TraceVisualizerController to LogInstructionCollectorsStrategy--><g id="link_TraceVisualizerController_LogInstructionCollectorsStrategy"><path codeLine="19" d="M902.31,133.66 C930.77,158.05 961.14,184.06 982.26,202.16 " fill="none" id="TraceVisualizerController-backto-LogInstructionCollectorsStrategy" style="stroke:#181818;stroke-width:1.0;"/><polygon fill="none" points="892.34,125.12,894.294,132.0613,901.4529,132.9273,899.4989,125.986,892.34,125.12" style="stroke:#181818;stroke-width:1.0;"/><text fill="#000000" font-family="sans-serif" font-size="13" lengthAdjust="spacing" textLength="7" x="893.1814" y="146.7901">1</text><text fill="#000000" font-family="sans-serif" font-size="13" lengthAdjust="spacing" textLength="7" x="967.7671" y="191.8151">1</text></g><!--MD5=[90274c750690532bc3ffdc692bb6e8d9]
reverse link TraceVisualizerController to LogInstructionFileGeneratorsStrategy--><g id="link_TraceVisualizerController_LogInstructionFileGeneratorsStrategy"><path codeLine="20" d="M1010.35,129.28 C1087.13,155.01 1171.37,183.24 1228.64,202.42 " fill="none" id="TraceVisualizerController-backto-LogInstructionFileGeneratorsStrategy" style="stroke:#181818;stroke-width:1.0;"/><polygon fill="none" points="997.61,125.01,1002.0293,130.7082,1008.9889,128.8206,1004.5696,123.1223,997.61,125.01" style="stroke:#181818;stroke-width:1.0;"/><text fill="#000000" font-family="sans-serif" font-size="13" lengthAdjust="spacing" textLength="7" x="1012.3413" y="147.0853">1</text><text fill="#000000" font-family="sans-serif" font-size="13" lengthAdjust="spacing" textLength="7" x="1203.0978" y="191.7397">1</text></g><!--MD5=[a31398c2513c3bbb8b4c476217271efa]
@startuml TraceVisualizerController
    class TraceVisualizerController{
        - strategy_collector : LogInstructionCollectorsStrategy
        - strategy_generator_file : LogInstructionFileGeneratorsStrategy
        - set_strategy_collector(strategy : String) : LogInstructionCollectorsStrategy
        - set_strategy_generator_file(strategy : String) : LogInstructionFileGeneratorsStrategy
    }

    class TraceVisualizerView{
        + setLogInstructions(logInstructions : List<LogInstruction>)
        + set_graphic(graphic : LinearGraph)
    }

    class LogInstructionDiffGenerator{
        + getCommitChanges(commits : List<Commit>) : List<Modification>
    }

    TraceVisualizerController "1" o- - "1" TraceVisualizerView
    TraceVisualizerController ..> LogInstructionDiffGenerator
    TraceVisualizerController "1" o- - "1" LogInstructionCollectorsStrategy
    TraceVisualizerController "1" o- - "1" LogInstructionFileGeneratorsStrategy


@enduml

PlantUML version 1.2022.7(Mon Aug 22 13:01:30 EDT 2022)
(GPL source distribution)
Java Runtime: Java(TM) SE Runtime Environment
JVM: Java HotSpot(TM) Client VM
Default Encoding: Cp1252
Language: en
Country: US
--></g></svg>